<mxfile host="app.diagrams.net" agent="Mozilla/5.0 (Windows NT 10.0; Win64; x64) AppleWebKit/537.36 (KHTML, like Gecko) Chrome/136.0.0.0 Safari/537.36 Edg/136.0.0.0" version="27.1.1">
  <diagram name="Page-1" id="SybLyfU5_UqjYdVus4F0">
    <mxGraphModel dx="7245" dy="3765" grid="0" gridSize="10" guides="1" tooltips="1" connect="1" arrows="1" fold="1" page="0" pageScale="1" pageWidth="850" pageHeight="1100" math="0" shadow="0">
      <root>
        <mxCell id="0" />
        <mxCell id="1" parent="0" />
        <UserObject label="" plantUmlData="{&#xa;  &quot;data&quot;: &quot;@startuml\nleft to right direction\nskinparam packageStyle rectangle\n\nactor \&quot;Passenger\&quot; as P\nactor \&quot;Admin\&quot; as A\nactor \&quot;Operator\&quot; as O\nactor \&quot;Bank System\&quot; as B\nactor \&quot;Metro API\&quot; as M\nactor \&quot;OTP Service\&quot; as Otp\n\nrectangle \&quot;Metro Companion App\&quot; {\n\n  &#39; User Account Management\n  usecase \&quot;Create Account\&quot; as UC1\n  usecase \&quot;Verify OTP\&quot; as UC2\n  usecase \&quot;Login\&quot; as UC3\n  usecase \&quot;Recover Password\&quot; as UC4\n  usecase \&quot;Update Profile\&quot; as UC5\n\n  &#39; Wallet and Payment\n  usecase \&quot;Top-Up Wallet\&quot; as UC6\n  usecase \&quot;View Wallet Balance\&quot; as UC7\n  usecase \&quot;Make Payment\&quot; as UC8\n  usecase \&quot;View Payment History\&quot; as UC9\n\n  &#39; Ticket Booking\n  usecase \&quot;Select Route for Ticket\&quot; as UC10\n  usecase \&quot;View Fare and Details\&quot; as UC11\n  usecase \&quot;Purchase Ticket\&quot; as UC12\n  usecase \&quot;Save Ticket\&quot; as UC13\n\n  &#39; QR Code\n  usecase \&quot;Generate QR Code\&quot; as UC14\n  usecase \&quot;View QR Code\&quot; as UC15\n  usecase \&quot;Validate QR at Gate\&quot; as UC16\n\n  &#39; Route Planning\n  usecase \&quot;Plan Route\&quot; as UC17\n  usecase \&quot;View Route Options\&quot; as UC18\n  usecase \&quot;Search Location via GPS\&quot; as UC19\n  usecase \&quot;Save Route\&quot; as UC20\n  usecase \&quot;View Walking Distance\&quot; as UC21\n\n  &#39; Real-Time Updates\n  usecase \&quot;Fetch Live Status\&quot; as UC22\n  usecase \&quot;View Live Updates\&quot; as UC23\n  usecase \&quot;Get Delay Alerts\&quot; as UC24\n  usecase \&quot;Get Alternate Routes\&quot; as UC25\n  usecase \&quot;Subscribe to Line Updates\&quot; as UC26\n\n  &#39; Accessibility\n  usecase \&quot;Voice Assist\&quot; as UC27\n  usecase \&quot;Screen Reader Support\&quot; as UC28\n  usecase \&quot;Simple Navigation\&quot; as UC29\n  usecase \&quot;Audio Prompts\&quot; as UC30\n\n  &#39; Favorites and History\n  usecase \&quot;Save Favorite Route\&quot; as UC31\n  usecase \&quot;View Booking History\&quot; as UC32\n  usecase \&quot;Rebook from History\&quot; as UC33\n\n  &#39; Admin/Operator\n  usecase \&quot;Manage Users\&quot; as UC34\n  usecase \&quot;View Reports\&quot; as UC35\n  usecase \&quot;Update Routes &amp; Fares\&quot; as UC36\n\n  &#39; Relationships (Primary Actors)\n  P --&gt; UC1\n  P --&gt; UC2\n  P --&gt; UC3\n  P --&gt; UC4\n  P --&gt; UC5\n  P --&gt; UC6\n  P --&gt; UC7\n  P --&gt; UC8\n  P --&gt; UC9\n  P --&gt; UC10\n  P --&gt; UC11\n  P --&gt; UC12\n  P --&gt; UC13\n  P --&gt; UC14\n  P --&gt; UC15\n  P --&gt; UC16\n  P --&gt; UC17\n  P --&gt; UC18\n  P --&gt; UC19\n  P --&gt; UC20\n  P --&gt; UC21\n  P --&gt; UC22\n  P --&gt; UC23\n  P --&gt; UC24\n  P --&gt; UC25\n  P --&gt; UC26\n  P --&gt; UC27\n  P --&gt; UC28\n  P --&gt; UC29\n  P --&gt; UC30\n  P --&gt; UC31\n  P --&gt; UC32\n  P --&gt; UC33\n\n  A --&gt; UC34\n  A --&gt; UC35\n\n  O --&gt; UC36\n\n  &#39; Relationships (Secondary Actors)\n  B --&gt; UC8\n  B --&gt; UC6\n  M --&gt; UC11\n  M --&gt; UC22\n  M --&gt; UC25\n  Otp --&gt; UC2\n  Otp --&gt; UC4\n\n  &#39; Include/Extend\n  UC12 --&gt; UC8 : &lt;&lt;include&gt;&gt;\n  UC14 --&gt; UC12 : &lt;&lt;include&gt;&gt;\n  UC15 --&gt; UC14 : &lt;&lt;include&gt;&gt;\n  UC13 --&gt; UC12 : &lt;&lt;include&gt;&gt;\n  UC11 --&gt; UC10 : &lt;&lt;include&gt;&gt;\n  UC25 --&gt; UC24 : &lt;&lt;extend&gt;&gt;\n  UC20 --&gt; UC17 : &lt;&lt;include&gt;&gt;\n  UC33 --&gt; UC32 : &lt;&lt;include&gt;&gt;\n\n  UC27 .&gt; UC10 : &lt;&lt;extend&gt;&gt;\n  UC28 .&gt; UC23 : &lt;&lt;extend&gt;&gt;\n  UC30 .&gt; UC12 : &lt;&lt;extend&gt;&gt;\n}\n\n@enduml\n&quot;,&#xa;  &quot;format&quot;: &quot;svg&quot;&#xa;}" id="eHgLMdEdHHg-rtYAkAGY-1">
          <mxCell style="shape=image;noLabel=1;verticalAlign=top;aspect=fixed;imageAspect=0;image=data:image/svg+xml,PHN2ZyB4bWxucz0iaHR0cDovL3d3dy53My5vcmcvMjAwMC9zdmciIHhtbG5zOnhsaW5rPSJodHRwOi8vd3d3LnczLm9yZy8xOTk5L3hsaW5rIiBjb250ZW50U3R5bGVUeXBlPSJ0ZXh0L2NzcyIgZGF0YS1kaWFncmFtLXR5cGU9IkRFU0NSSVBUSU9OIiBoZWlnaHQ9IjI2NDBweCIgcHJlc2VydmVBc3BlY3RSYXRpbz0ibm9uZSIgc3R5bGU9IndpZHRoOjEyMDNweDtoZWlnaHQ6MjY0MHB4O2JhY2tncm91bmQ6I0ZGRkZGRjsiIHZlcnNpb249IjEuMSIgdmlld0JveD0iMCAwIDEyMDMgMjY0MCIgd2lkdGg9IjEyMDNweCIgem9vbUFuZFBhbj0ibWFnbmlmeSI+PGRlZnMvPjxnPjwhLS1jbHVzdGVyIE1ldHJvIENvbXBhbmlvbiBBcHAtLT48ZyBjbGFzcz0iY2x1c3RlciIgZGF0YS1lbnRpdHk9Ik1ldHJvIENvbXBhbmlvbiBBcHAiIGRhdGEtc291cmNlLWxpbmU9IjExIiBkYXRhLXVpZD0iZW50MDAwOCIgaWQ9ImNsdXN0ZXJfTWV0cm8gQ29tcGFuaW9uIEFwcCI+PHJlY3QgZmlsbD0ibm9uZSIgaGVpZ2h0PSIxODg1IiByeD0iMi41IiByeT0iMi41IiBzdHlsZT0ic3Ryb2tlOiMxODE4MTg7c3Ryb2tlLXdpZHRoOjE7IiB3aWR0aD0iMTA2NyIgeD0iMTMwIiB5PSIyMDQuNiIvPjx0ZXh0IGZpbGw9IiMwMDAwMDAiIGZvbnQtZmFtaWx5PSJzYW5zLXNlcmlmIiBmb250LXNpemU9IjE0IiBmb250LXdlaWdodD0iYm9sZCIgbGVuZ3RoQWRqdXN0PSJzcGFjaW5nIiB0ZXh0TGVuZ3RoPSIxMzMiIHg9IjU5NyIgeT0iMjE5LjgzNDQiPk1ldHJvIENvbXBhbmlvbiBBcHA8L3RleHQ+PC9nPjxnIGNsYXNzPSJlbnRpdHkiIGRhdGEtZW50aXR5PSJVQzEiIGRhdGEtc291cmNlLWxpbmU9IjE0IiBkYXRhLXVpZD0iZW50MDAwOSIgaWQ9ImVudGl0eV9VQzEiPjxlbGxpcHNlIGN4PSIyNDkuNTQ1NiIgY3k9IjE0OTkuNDA5MSIgZmlsbD0iI0YxRjFGMSIgcng9IjY5LjU0NTYiIHJ5PSIxNi4zMDkxIiBzdHlsZT0ic3Ryb2tlOiMxODE4MTg7c3Ryb2tlLXdpZHRoOjAuNTsiLz48dGV4dCBmaWxsPSIjMDAwMDAwIiBmb250LWZhbWlseT0ic2Fucy1zZXJpZiIgZm9udC1zaXplPSIxNCIgbGVuZ3RoQWRqdXN0PSJzcGFjaW5nIiB0ZXh0TGVuZ3RoPSI5OCIgeD0iMjAwLjU0NTYiIHk9IjE1MDMuMTUxMyI+Q3JlYXRlIEFjY291bnQ8L3RleHQ+PC9nPjxnIGNsYXNzPSJlbnRpdHkiIGRhdGEtZW50aXR5PSJVQzIiIGRhdGEtc291cmNlLWxpbmU9IjE1IiBkYXRhLXVpZD0iZW50MDAxMCIgaWQ9ImVudGl0eV9VQzIiPjxlbGxpcHNlIGN4PSIyNDkuNTM2NyIgY3k9IjY4MS43MDczIiBmaWxsPSIjRjFGMUYxIiByeD0iNTguNTM2NyIgcnk9IjE0LjEwNzMiIHN0eWxlPSJzdHJva2U6IzE4MTgxODtzdHJva2Utd2lkdGg6MC41OyIvPjx0ZXh0IGZpbGw9IiMwMDAwMDAiIGZvbnQtZmFtaWx5PSJzYW5zLXNlcmlmIiBmb250LXNpemU9IjE0IiBsZW5ndGhBZGp1c3Q9InNwYWNpbmciIHRleHRMZW5ndGg9IjcwIiB4PSIyMTQuNTM2NyIgeT0iNjg1LjQ0OTUiPlZlcmlmeSBPVFA8L3RleHQ+PC9nPjxnIGNsYXNzPSJlbnRpdHkiIGRhdGEtZW50aXR5PSJVQzMiIGRhdGEtc291cmNlLWxpbmU9IjE2IiBkYXRhLXVpZD0iZW50MDAxMSIgaWQ9ImVudGl0eV9VQzMiPjxlbGxpcHNlIGN4PSIyNDkuNzM0IiBjeT0iMTU2NC42OTU2IiBmaWxsPSIjRjFGMUYxIiByeD0iMzYuMjM0IiByeT0iMTMuNTk1NiIgc3R5bGU9InN0cm9rZTojMTgxODE4O3N0cm9rZS13aWR0aDowLjU7Ii8+PHRleHQgZmlsbD0iIzAwMDAwMCIgZm9udC1mYW1pbHk9InNhbnMtc2VyaWYiIGZvbnQtc2l6ZT0iMTQiIGxlbmd0aEFkanVzdD0ic3BhY2luZyIgdGV4dExlbmd0aD0iMzUiIHg9IjIzMi4yMzQiIHk9IjE1NjguNDM3NyI+TG9naW48L3RleHQ+PC9nPjxnIGNsYXNzPSJlbnRpdHkiIGRhdGEtZW50aXR5PSJVQzQiIGRhdGEtc291cmNlLWxpbmU9IjE3IiBkYXRhLXVpZD0iZW50MDAxMiIgaWQ9ImVudGl0eV9VQzQiPjxlbGxpcHNlIGN4PSIyNDkuNDM4NCIgY3k9Ijc0OC41ODc3IiBmaWxsPSIjRjFGMUYxIiByeD0iNzUuNDM4NCIgcnk9IjE3LjQ4NzciIHN0eWxlPSJzdHJva2U6IzE4MTgxODtzdHJva2Utd2lkdGg6MC41OyIvPjx0ZXh0IGZpbGw9IiMwMDAwMDAiIGZvbnQtZmFtaWx5PSJzYW5zLXNlcmlmIiBmb250LXNpemU9IjE0IiBsZW5ndGhBZGp1c3Q9InNwYWNpbmciIHRleHRMZW5ndGg9IjExMiIgeD0iMTkzLjQzODQiIHk9Ijc1Mi4zMjk5Ij5SZWNvdmVyIFBhc3N3b3JkPC90ZXh0PjwvZz48ZyBjbGFzcz0iZW50aXR5IiBkYXRhLWVudGl0eT0iVUM1IiBkYXRhLXNvdXJjZS1saW5lPSIxOCIgZGF0YS11aWQ9ImVudDAwMTMiIGlkPSJlbnRpdHlfVUM1Ij48ZWxsaXBzZSBjeD0iMjQ5LjU0NTYiIGN5PSIxNjI5LjQwOTEiIGZpbGw9IiNGMUYxRjEiIHJ4PSI2OS41NDU2IiByeT0iMTYuMzA5MSIgc3R5bGU9InN0cm9rZTojMTgxODE4O3N0cm9rZS13aWR0aDowLjU7Ii8+PHRleHQgZmlsbD0iIzAwMDAwMCIgZm9udC1mYW1pbHk9InNhbnMtc2VyaWYiIGZvbnQtc2l6ZT0iMTQiIGxlbmd0aEFkanVzdD0ic3BhY2luZyIgdGV4dExlbmd0aD0iOTgiIHg9IjIwMC41NDU2IiB5PSIxNjMzLjE1MTMiPlVwZGF0ZSBQcm9maWxlPC90ZXh0PjwvZz48ZyBjbGFzcz0iZW50aXR5IiBkYXRhLWVudGl0eT0iVUM2IiBkYXRhLXNvdXJjZS1saW5lPSIyMSIgZGF0YS11aWQ9ImVudDAwMTQiIGlkPSJlbnRpdHlfVUM2Ij48ZWxsaXBzZSBjeD0iMjQ5LjY4MzQiIGN5PSIyMDU3LjgzNjciIGZpbGw9IiNGMUYxRjEiIHJ4PSI2Ni42ODM0IiByeT0iMTUuNzM2NyIgc3R5bGU9InN0cm9rZTojMTgxODE4O3N0cm9rZS13aWR0aDowLjU7Ii8+PHRleHQgZmlsbD0iIzAwMDAwMCIgZm9udC1mYW1pbHk9InNhbnMtc2VyaWYiIGZvbnQtc2l6ZT0iMTQiIGxlbmd0aEFkanVzdD0ic3BhY2luZyIgdGV4dExlbmd0aD0iOTEiIHg9IjIwNC4xODM0IiB5PSIyMDYxLjU3ODkiPlRvcC1VcCBXYWxsZXQ8L3RleHQ+PC9nPjxnIGNsYXNzPSJlbnRpdHkiIGRhdGEtZW50aXR5PSJVQzciIGRhdGEtc291cmNlLWxpbmU9IjIyIiBkYXRhLXVpZD0iZW50MDAxNSIgaWQ9ImVudGl0eV9VQzciPjxlbGxpcHNlIGN4PSIyNDkuNjA2MiIgY3k9IjE3MDAuNDIxMiIgZmlsbD0iI0YxRjFGMSIgcng9Ijg0LjYwNjIiIHJ5PSIxOS4zMjEyIiBzdHlsZT0ic3Ryb2tlOiMxODE4MTg7c3Ryb2tlLXdpZHRoOjAuNTsiLz48dGV4dCBmaWxsPSIjMDAwMDAwIiBmb250LWZhbWlseT0ic2Fucy1zZXJpZiIgZm9udC1zaXplPSIxNCIgbGVuZ3RoQWRqdXN0PSJzcGFjaW5nIiB0ZXh0TGVuZ3RoPSIxMzMiIHg9IjE4My4xMDYyIiB5PSIxNzA0LjE2MzQiPlZpZXcgV2FsbGV0IEJhbGFuY2U8L3RleHQ+PC9nPjxnIGNsYXNzPSJlbnRpdHkiIGRhdGEtZW50aXR5PSJVQzgiIGRhdGEtc291cmNlLWxpbmU9IjIzIiBkYXRhLXVpZD0iZW50MDAxNiIgaWQ9ImVudGl0eV9VQzgiPjxlbGxpcHNlIGN4PSIxMTE2Ljg4NzgiIGN5PSIyMDU4Ljc3NzYiIGZpbGw9IiNGMUYxRjEiIHJ4PSI2My44ODc4IiByeT0iMTUuMTc3NiIgc3R5bGU9InN0cm9rZTojMTgxODE4O3N0cm9rZS13aWR0aDowLjU7Ii8+PHRleHQgZmlsbD0iIzAwMDAwMCIgZm9udC1mYW1pbHk9InNhbnMtc2VyaWYiIGZvbnQtc2l6ZT0iMTQiIGxlbmd0aEFkanVzdD0ic3BhY2luZyIgdGV4dExlbmd0aD0iODQiIHg9IjEwNzQuODg3OCIgeT0iMjA2Mi41MTk3Ij5NYWtlIFBheW1lbnQ8L3RleHQ+PC9nPjxnIGNsYXNzPSJlbnRpdHkiIGRhdGEtZW50aXR5PSJVQzkiIGRhdGEtc291cmNlLWxpbmU9IjI0IiBkYXRhLXVpZD0iZW50MDAxNyIgaWQ9ImVudGl0eV9VQzkiPjxlbGxpcHNlIGN4PSIyNDkuNzMwOSIgY3k9IjE3NzUuNTQ2MiIgZmlsbD0iI0YxRjFGMSIgcng9Ijg3LjczMDkiIHJ5PSIxOS45NDYyIiBzdHlsZT0ic3Ryb2tlOiMxODE4MTg7c3Ryb2tlLXdpZHRoOjAuNTsiLz48dGV4dCBmaWxsPSIjMDAwMDAwIiBmb250LWZhbWlseT0ic2Fucy1zZXJpZiIgZm9udC1zaXplPSIxNCIgbGVuZ3RoQWRqdXN0PSJzcGFjaW5nIiB0ZXh0TGVuZ3RoPSIxNDAiIHg9IjE3OS43MzA5IiB5PSIxNzc5LjI4ODQiPlZpZXcgUGF5bWVudCBIaXN0b3J5PC90ZXh0PjwvZz48ZyBjbGFzcz0iZW50aXR5IiBkYXRhLWVudGl0eT0iVUMxMCIgZGF0YS1zb3VyY2UtbGluZT0iMjciIGRhdGEtdWlkPSJlbnQwMDE4IiBpZD0iZW50aXR5X1VDMTAiPjxlbGxpcHNlIGN4PSI1NzAuMjYzMyIgY3k9IjM4OS40NTI3IiBmaWxsPSIjRjFGMUYxIiByeD0iOTcuMjYzMyIgcnk9IjIxLjg1MjciIHN0eWxlPSJzdHJva2U6IzE4MTgxODtzdHJva2Utd2lkdGg6MC41OyIvPjx0ZXh0IGZpbGw9IiMwMDAwMDAiIGZvbnQtZmFtaWx5PSJzYW5zLXNlcmlmIiBmb250LXNpemU9IjE0IiBsZW5ndGhBZGp1c3Q9InNwYWNpbmciIHRleHRMZW5ndGg9IjE2MSIgeD0iNDg5Ljc2MzMiIHk9IjM5My4xOTQ4Ij5TZWxlY3QgUm91dGUgZm9yIFRpY2tldDwvdGV4dD48L2c+PGcgY2xhc3M9ImVudGl0eSIgZGF0YS1lbnRpdHk9IlVDMTEiIGRhdGEtc291cmNlLWxpbmU9IjI4IiBkYXRhLXVpZD0iZW50MDAxOSIgaWQ9ImVudGl0eV9VQzExIj48ZWxsaXBzZSBjeD0iMjQ5LjM4MzkiIGN5PSI2MTEuNjc2OCIgZmlsbD0iI0YxRjFGMSIgcng9IjkwLjg4MzkiIHJ5PSIyMC41NzY4IiBzdHlsZT0ic3Ryb2tlOiMxODE4MTg7c3Ryb2tlLXdpZHRoOjAuNTsiLz48dGV4dCBmaWxsPSIjMDAwMDAwIiBmb250LWZhbWlseT0ic2Fucy1zZXJpZiIgZm9udC1zaXplPSIxNCIgbGVuZ3RoQWRqdXN0PSJzcGFjaW5nIiB0ZXh0TGVuZ3RoPSIxNDciIHg9IjE3NS44ODM5IiB5PSI2MTUuNDE5Ij5WaWV3IEZhcmUgYW5kIERldGFpbHM8L3RleHQ+PC9nPjxnIGNsYXNzPSJlbnRpdHkiIGRhdGEtZW50aXR5PSJVQzEyIiBkYXRhLXNvdXJjZS1saW5lPSIyOSIgZGF0YS11aWQ9ImVudDAwMjAiIGlkPSJlbnRpdHlfVUMxMiI+PGVsbGlwc2UgY3g9Ijg2MC40NjYzIiBjeT0iMTk3NS40OTMzIiBmaWxsPSIjRjFGMUYxIiByeD0iNzIuNDY2MyIgcnk9IjE2Ljg5MzMiIHN0eWxlPSJzdHJva2U6IzE4MTgxODtzdHJva2Utd2lkdGg6MC41OyIvPjx0ZXh0IGZpbGw9IiMwMDAwMDAiIGZvbnQtZmFtaWx5PSJzYW5zLXNlcmlmIiBmb250LXNpemU9IjE0IiBsZW5ndGhBZGp1c3Q9InNwYWNpbmciIHRleHRMZW5ndGg9IjEwNSIgeD0iODA3Ljk2NjMiIHk9IjE5NzkuMjM1NSI+UHVyY2hhc2UgVGlja2V0PC90ZXh0PjwvZz48ZyBjbGFzcz0iZW50aXR5IiBkYXRhLWVudGl0eT0iVUMxMyIgZGF0YS1zb3VyY2UtbGluZT0iMzAiIGRhdGEtdWlkPSJlbnQwMDIxIiBpZD0iZW50aXR5X1VDMTMiPjxlbGxpcHNlIGN4PSI1NzAuNjY4NSIgY3k9IjMxNy43MzM3IiBmaWxsPSIjRjFGMUYxIiByeD0iNjEuMTY4NSIgcnk9IjE0LjYzMzciIHN0eWxlPSJzdHJva2U6IzE4MTgxODtzdHJva2Utd2lkdGg6MC41OyIvPjx0ZXh0IGZpbGw9IiMwMDAwMDAiIGZvbnQtZmFtaWx5PSJzYW5zLXNlcmlmIiBmb250LXNpemU9IjE0IiBsZW5ndGhBZGp1c3Q9InNwYWNpbmciIHRleHRMZW5ndGg9Ijc3IiB4PSI1MzIuMTY4NSIgeT0iMzIxLjQ3NTkiPlNhdmUgVGlja2V0PC90ZXh0PjwvZz48ZyBjbGFzcz0iZW50aXR5IiBkYXRhLWVudGl0eT0iVUMxNCIgZGF0YS1zb3VyY2UtbGluZT0iMzMiIGRhdGEtdWlkPSJlbnQwMDIyIiBpZD0iZW50aXR5X1VDMTQiPjxlbGxpcHNlIGN4PSI1NzAuNDM4NCIgY3k9IjE5NzUuNTg3NyIgZmlsbD0iI0YxRjFGMSIgcng9Ijc1LjQzODQiIHJ5PSIxNy40ODc3IiBzdHlsZT0ic3Ryb2tlOiMxODE4MTg7c3Ryb2tlLXdpZHRoOjAuNTsiLz48dGV4dCBmaWxsPSIjMDAwMDAwIiBmb250LWZhbWlseT0ic2Fucy1zZXJpZiIgZm9udC1zaXplPSIxNCIgbGVuZ3RoQWRqdXN0PSJzcGFjaW5nIiB0ZXh0TGVuZ3RoPSIxMTIiIHg9IjUxNC40Mzg0IiB5PSIxOTc5LjMyOTkiPkdlbmVyYXRlIFFSIENvZGU8L3RleHQ+PC9nPjxnIGNsYXNzPSJlbnRpdHkiIGRhdGEtZW50aXR5PSJVQzE1IiBkYXRhLXNvdXJjZS1saW5lPSIzNCIgZGF0YS11aWQ9ImVudDAwMjMiIGlkPSJlbnRpdHlfVUMxNSI+PGVsbGlwc2UgY3g9IjI0OS4zODc4IiBjeT0iMTg0NS43Nzc2IiBmaWxsPSIjRjFGMUYxIiByeD0iNjMuODg3OCIgcnk9IjE1LjE3NzYiIHN0eWxlPSJzdHJva2U6IzE4MTgxODtzdHJva2Utd2lkdGg6MC41OyIvPjx0ZXh0IGZpbGw9IiMwMDAwMDAiIGZvbnQtZmFtaWx5PSJzYW5zLXNlcmlmIiBmb250LXNpemU9IjE0IiBsZW5ndGhBZGp1c3Q9InNwYWNpbmciIHRleHRMZW5ndGg9Ijg0IiB4PSIyMDcuMzg3OCIgeT0iMTg0OS41MTk3Ij5WaWV3IFFSIENvZGU8L3RleHQ+PC9nPjxnIGNsYXNzPSJlbnRpdHkiIGRhdGEtZW50aXR5PSJVQzE2IiBkYXRhLXNvdXJjZS1saW5lPSIzNSIgZGF0YS11aWQ9ImVudDAwMjQiIGlkPSJlbnRpdHlfVUMxNiI+PGVsbGlwc2UgY3g9IjI0OS42MDYyIiBjeT0iMTkxNS40MjEyIiBmaWxsPSIjRjFGMUYxIiByeD0iODQuNjA2MiIgcnk9IjE5LjMyMTIiIHN0eWxlPSJzdHJva2U6IzE4MTgxODtzdHJva2Utd2lkdGg6MC41OyIvPjx0ZXh0IGZpbGw9IiMwMDAwMDAiIGZvbnQtZmFtaWx5PSJzYW5zLXNlcmlmIiBmb250LXNpemU9IjE0IiBsZW5ndGhBZGp1c3Q9InNwYWNpbmciIHRleHRMZW5ndGg9IjEzMyIgeD0iMTgzLjEwNjIiIHk9IjE5MTkuMTYzNCI+VmFsaWRhdGUgUVIgYXQgR2F0ZTwvdGV4dD48L2c+PGcgY2xhc3M9ImVudGl0eSIgZGF0YS1lbnRpdHk9IlVDMTciIGRhdGEtc291cmNlLWxpbmU9IjM4IiBkYXRhLXVpZD0iZW50MDAyNSIgaWQ9ImVudGl0eV9VQzE3Ij48ZWxsaXBzZSBjeD0iNTcwLjUzNjciIGN5PSIxMzUzLjcwNzMiIGZpbGw9IiNGMUYxRjEiIHJ4PSI1OC41MzY3IiByeT0iMTQuMTA3MyIgc3R5bGU9InN0cm9rZTojMTgxODE4O3N0cm9rZS13aWR0aDowLjU7Ii8+PHRleHQgZmlsbD0iIzAwMDAwMCIgZm9udC1mYW1pbHk9InNhbnMtc2VyaWYiIGZvbnQtc2l6ZT0iMTQiIGxlbmd0aEFkanVzdD0ic3BhY2luZyIgdGV4dExlbmd0aD0iNzAiIHg9IjUzNS41MzY3IiB5PSIxMzU3LjQ0OTUiPlBsYW4gUm91dGU8L3RleHQ+PC9nPjxnIGNsYXNzPSJlbnRpdHkiIGRhdGEtZW50aXR5PSJVQzE4IiBkYXRhLXNvdXJjZS1saW5lPSIzOSIgZGF0YS11aWQ9ImVudDAwMjYiIGlkPSJlbnRpdHlfVUMxOCI+PGVsbGlwc2UgY3g9IjI0OS41MTMyIiBjeT0iMTk4OC44MDI2IiBmaWxsPSIjRjFGMUYxIiByeD0iODEuNTEzMiIgcnk9IjE4LjcwMjYiIHN0eWxlPSJzdHJva2U6IzE4MTgxODtzdHJva2Utd2lkdGg6MC41OyIvPjx0ZXh0IGZpbGw9IiMwMDAwMDAiIGZvbnQtZmFtaWx5PSJzYW5zLXNlcmlmIiBmb250LXNpemU9IjE0IiBsZW5ndGhBZGp1c3Q9InNwYWNpbmciIHRleHRMZW5ndGg9IjEyNiIgeD0iMTg2LjUxMzIiIHk9IjE5OTIuNTQ0OCI+VmlldyBSb3V0ZSBPcHRpb25zPC90ZXh0PjwvZz48ZyBjbGFzcz0iZW50aXR5IiBkYXRhLWVudGl0eT0iVUMxOSIgZGF0YS1zb3VyY2UtbGluZT0iNDAiIGRhdGEtdWlkPSJlbnQwMDI3IiBpZD0iZW50aXR5X1VDMTkiPjxlbGxpcHNlIGN4PSIyNDkuMjYzMyIgY3k9IjgyMy40NTI3IiBmaWxsPSIjRjFGMUYxIiByeD0iOTcuMjYzMyIgcnk9IjIxLjg1MjciIHN0eWxlPSJzdHJva2U6IzE4MTgxODtzdHJva2Utd2lkdGg6MC41OyIvPjx0ZXh0IGZpbGw9IiMwMDAwMDAiIGZvbnQtZmFtaWx5PSJzYW5zLXNlcmlmIiBmb250LXNpemU9IjE0IiBsZW5ndGhBZGp1c3Q9InNwYWNpbmciIHRleHRMZW5ndGg9IjE2MSIgeD0iMTY4Ljc2MzMiIHk9IjgyNy4xOTQ4Ij5TZWFyY2ggTG9jYXRpb24gdmlhIEdQUzwvdGV4dD48L2c+PGcgY2xhc3M9ImVudGl0eSIgZGF0YS1lbnRpdHk9IlVDMjAiIGRhdGEtc291cmNlLWxpbmU9IjQxIiBkYXRhLXVpZD0iZW50MDAyOCIgaWQ9ImVudGl0eV9VQzIwIj48ZWxsaXBzZSBjeD0iMjQ5LjUzNjciIGN5PSI4OTQuNzA3MyIgZmlsbD0iI0YxRjFGMSIgcng9IjU4LjUzNjciIHJ5PSIxNC4xMDczIiBzdHlsZT0ic3Ryb2tlOiMxODE4MTg7c3Ryb2tlLXdpZHRoOjAuNTsiLz48dGV4dCBmaWxsPSIjMDAwMDAwIiBmb250LWZhbWlseT0ic2Fucy1zZXJpZiIgZm9udC1zaXplPSIxNCIgbGVuZ3RoQWRqdXN0PSJzcGFjaW5nIiB0ZXh0TGVuZ3RoPSI3MCIgeD0iMjE0LjUzNjciIHk9Ijg5OC40NDk1Ij5TYXZlIFJvdXRlPC90ZXh0PjwvZz48ZyBjbGFzcz0iZW50aXR5IiBkYXRhLWVudGl0eT0iVUMyMSIgZGF0YS1zb3VyY2UtbGluZT0iNDIiIGRhdGEtdWlkPSJlbnQwMDI5IiBpZD0iZW50aXR5X1VDMjEiPjxlbGxpcHNlIGN4PSIyNDkuMzgzOSIgY3k9Ijk2NC42NzY4IiBmaWxsPSIjRjFGMUYxIiByeD0iOTAuODgzOSIgcnk9IjIwLjU3NjgiIHN0eWxlPSJzdHJva2U6IzE4MTgxODtzdHJva2Utd2lkdGg6MC41OyIvPjx0ZXh0IGZpbGw9IiMwMDAwMDAiIGZvbnQtZmFtaWx5PSJzYW5zLXNlcmlmIiBmb250LXNpemU9IjE0IiBsZW5ndGhBZGp1c3Q9InNwYWNpbmciIHRleHRMZW5ndGg9IjE0NyIgeD0iMTc1Ljg4MzkiIHk9Ijk2OC40MTkiPlZpZXcgV2Fsa2luZyBEaXN0YW5jZTwvdGV4dD48L2c+PGcgY2xhc3M9ImVudGl0eSIgZGF0YS1lbnRpdHk9IlVDMjIiIGRhdGEtc291cmNlLWxpbmU9IjQ1IiBkYXRhLXVpZD0iZW50MDAzMCIgaWQ9ImVudGl0eV9VQzIyIj48ZWxsaXBzZSBjeD0iMjQ5LjQ1NTgiIGN5PSI0NjIuNjkxMiIgZmlsbD0iI0YxRjFGMSIgcng9Ijc4LjQ1NTgiIHJ5PSIxOC4wOTEyIiBzdHlsZT0ic3Ryb2tlOiMxODE4MTg7c3Ryb2tlLXdpZHRoOjAuNTsiLz48dGV4dCBmaWxsPSIjMDAwMDAwIiBmb250LWZhbWlseT0ic2Fucy1zZXJpZiIgZm9udC1zaXplPSIxNCIgbGVuZ3RoQWRqdXN0PSJzcGFjaW5nIiB0ZXh0TGVuZ3RoPSIxMTkiIHg9IjE4OS45NTU4IiB5PSI0NjYuNDMzMyI+RmV0Y2ggTGl2ZSBTdGF0dXM8L3RleHQ+PC9nPjxnIGNsYXNzPSJlbnRpdHkiIGRhdGEtZW50aXR5PSJVQzIzIiBkYXRhLXNvdXJjZS1saW5lPSI0NiIgZGF0YS11aWQ9ImVudDAwMzEiIGlkPSJlbnRpdHlfVUMyMyI+PGVsbGlwc2UgY3g9IjI0OS40NTU4IiBjeT0iMTQyOS42OTEyIiBmaWxsPSIjRjFGMUYxIiByeD0iNzguNDU1OCIgcnk9IjE4LjA5MTIiIHN0eWxlPSJzdHJva2U6IzE4MTgxODtzdHJva2Utd2lkdGg6MC41OyIvPjx0ZXh0IGZpbGw9IiMwMDAwMDAiIGZvbnQtZmFtaWx5PSJzYW5zLXNlcmlmIiBmb250LXNpemU9IjE0IiBsZW5ndGhBZGp1c3Q9InNwYWNpbmciIHRleHRMZW5ndGg9IjExOSIgeD0iMTg5Ljk1NTgiIHk9IjE0MzMuNDMzMyI+VmlldyBMaXZlIFVwZGF0ZXM8L3RleHQ+PC9nPjxnIGNsYXNzPSJlbnRpdHkiIGRhdGEtZW50aXR5PSJVQzI0IiBkYXRhLXNvdXJjZS1saW5lPSI0NyIgZGF0YS11aWQ9ImVudDAwMzIiIGlkPSJlbnRpdHlfVUMyNCI+PGVsbGlwc2UgY3g9IjU3MC40Mzg0IiBjeT0iOTE1LjU4NzciIGZpbGw9IiNGMUYxRjEiIHJ4PSI3NS40Mzg0IiByeT0iMTcuNDg3NyIgc3R5bGU9InN0cm9rZTojMTgxODE4O3N0cm9rZS13aWR0aDowLjU7Ii8+PHRleHQgZmlsbD0iIzAwMDAwMCIgZm9udC1mYW1pbHk9InNhbnMtc2VyaWYiIGZvbnQtc2l6ZT0iMTQiIGxlbmd0aEFkanVzdD0ic3BhY2luZyIgdGV4dExlbmd0aD0iMTEyIiB4PSI1MTQuNDM4NCIgeT0iOTE5LjMyOTkiPkdldCBEZWxheSBBbGVydHM8L3RleHQ+PC9nPjxnIGNsYXNzPSJlbnRpdHkiIGRhdGEtZW50aXR5PSJVQzI1IiBkYXRhLXNvdXJjZS1saW5lPSI0OCIgZGF0YS11aWQ9ImVudDAwMzMiIGlkPSJlbnRpdHlfVUMyNSI+PGVsbGlwc2UgY3g9IjI0OS43MzA5IiBjeT0iNTM1LjU0NjIiIGZpbGw9IiNGMUYxRjEiIHJ4PSI4Ny43MzA5IiByeT0iMTkuOTQ2MiIgc3R5bGU9InN0cm9rZTojMTgxODE4O3N0cm9rZS13aWR0aDowLjU7Ii8+PHRleHQgZmlsbD0iIzAwMDAwMCIgZm9udC1mYW1pbHk9InNhbnMtc2VyaWYiIGZvbnQtc2l6ZT0iMTQiIGxlbmd0aEFkanVzdD0ic3BhY2luZyIgdGV4dExlbmd0aD0iMTQwIiB4PSIxNzkuNzMwOSIgeT0iNTM5LjI4ODQiPkdldCBBbHRlcm5hdGUgUm91dGVzPC90ZXh0PjwvZz48ZyBjbGFzcz0iZW50aXR5IiBkYXRhLWVudGl0eT0iVUMyNiIgZGF0YS1zb3VyY2UtbGluZT0iNDkiIGRhdGEtdWlkPSJlbnQwMDM0IiBpZD0iZW50aXR5X1VDMjYiPjxlbGxpcHNlIGN4PSIyNDkuNzI1MiIgY3k9IjEwNDMuNzQ1IiBmaWxsPSIjRjFGMUYxIiByeD0iMTAzLjcyNTIiIHJ5PSIyMy4xNDUiIHN0eWxlPSJzdHJva2U6IzE4MTgxODtzdHJva2Utd2lkdGg6MC41OyIvPjx0ZXh0IGZpbGw9IiMwMDAwMDAiIGZvbnQtZmFtaWx5PSJzYW5zLXNlcmlmIiBmb250LXNpemU9IjE0IiBsZW5ndGhBZGp1c3Q9InNwYWNpbmciIHRleHRMZW5ndGg9IjE3NSIgeD0iMTYyLjIyNTIiIHk9IjEwNDcuNDg3MiI+U3Vic2NyaWJlIHRvIExpbmUgVXBkYXRlczwvdGV4dD48L2c+PGcgY2xhc3M9ImVudGl0eSIgZGF0YS1lbnRpdHk9IlVDMjciIGRhdGEtc291cmNlLWxpbmU9IjUyIiBkYXRhLXVpZD0iZW50MDAzNSIgaWQ9ImVudGl0eV9VQzI3Ij48ZWxsaXBzZSBjeD0iNTcwLjM4NzgiIGN5PSIyNTIuNzc3NiIgZmlsbD0iI0YxRjFGMSIgcng9IjYzLjg4NzgiIHJ5PSIxNS4xNzc2IiBzdHlsZT0ic3Ryb2tlOiMxODE4MTg7c3Ryb2tlLXdpZHRoOjAuNTsiLz48dGV4dCBmaWxsPSIjMDAwMDAwIiBmb250LWZhbWlseT0ic2Fucy1zZXJpZiIgZm9udC1zaXplPSIxNCIgbGVuZ3RoQWRqdXN0PSJzcGFjaW5nIiB0ZXh0TGVuZ3RoPSI4NCIgeD0iNTI4LjM4NzgiIHk9IjI1Ni41MTk3Ij5Wb2ljZSBBc3Npc3Q8L3RleHQ+PC9nPjxnIGNsYXNzPSJlbnRpdHkiIGRhdGEtZW50aXR5PSJVQzI4IiBkYXRhLXNvdXJjZS1saW5lPSI1MyIgZGF0YS11aWQ9ImVudDAwMzYiIGlkPSJlbnRpdHlfVUMyOCI+PGVsbGlwc2UgY3g9IjI0OS4zODM5IiBjeT0iMTM0MS42NzY4IiBmaWxsPSIjRjFGMUYxIiByeD0iOTAuODgzOSIgcnk9IjIwLjU3NjgiIHN0eWxlPSJzdHJva2U6IzE4MTgxODtzdHJva2Utd2lkdGg6MC41OyIvPjx0ZXh0IGZpbGw9IiMwMDAwMDAiIGZvbnQtZmFtaWx5PSJzYW5zLXNlcmlmIiBmb250LXNpemU9IjE0IiBsZW5ndGhBZGp1c3Q9InNwYWNpbmciIHRleHRMZW5ndGg9IjE0NyIgeD0iMTc1Ljg4MzkiIHk9IjEzNDUuNDE5Ij5TY3JlZW4gUmVhZGVyIFN1cHBvcnQ8L3RleHQ+PC9nPjxnIGNsYXNzPSJlbnRpdHkiIGRhdGEtZW50aXR5PSJVQzI5IiBkYXRhLXNvdXJjZS1saW5lPSI1NCIgZGF0YS11aWQ9ImVudDAwMzciIGlkPSJlbnRpdHlfVUMyOSI+PGVsbGlwc2UgY3g9IjI0OS40NTU4IiBjeT0iMTExOS42OTEyIiBmaWxsPSIjRjFGMUYxIiByeD0iNzguNDU1OCIgcnk9IjE4LjA5MTIiIHN0eWxlPSJzdHJva2U6IzE4MTgxODtzdHJva2Utd2lkdGg6MC41OyIvPjx0ZXh0IGZpbGw9IiMwMDAwMDAiIGZvbnQtZmFtaWx5PSJzYW5zLXNlcmlmIiBmb250LXNpemU9IjE0IiBsZW5ndGhBZGp1c3Q9InNwYWNpbmciIHRleHRMZW5ndGg9IjExOSIgeD0iMTg5Ljk1NTgiIHk9IjExMjMuNDMzMyI+U2ltcGxlIE5hdmlnYXRpb248L3RleHQ+PC9nPjxnIGNsYXNzPSJlbnRpdHkiIGRhdGEtZW50aXR5PSJVQzMwIiBkYXRhLXNvdXJjZS1saW5lPSI1NSIgZGF0YS11aWQ9ImVudDAwMzgiIGlkPSJlbnRpdHlfVUMzMCI+PGVsbGlwc2UgY3g9Ijg2MC42ODM0IiBjeT0iMjA1Ny44MzY3IiBmaWxsPSIjRjFGMUYxIiByeD0iNjYuNjgzNCIgcnk9IjE1LjczNjciIHN0eWxlPSJzdHJva2U6IzE4MTgxODtzdHJva2Utd2lkdGg6MC41OyIvPjx0ZXh0IGZpbGw9IiMwMDAwMDAiIGZvbnQtZmFtaWx5PSJzYW5zLXNlcmlmIiBmb250LXNpemU9IjE0IiBsZW5ndGhBZGp1c3Q9InNwYWNpbmciIHRleHRMZW5ndGg9IjkxIiB4PSI4MTUuMTgzNCIgeT0iMjA2MS41Nzg5Ij5BdWRpbyBQcm9tcHRzPC90ZXh0PjwvZz48ZyBjbGFzcz0iZW50aXR5IiBkYXRhLWVudGl0eT0iVUMzMSIgZGF0YS1zb3VyY2UtbGluZT0iNTgiIGRhdGEtdWlkPSJlbnQwMDM5IiBpZD0iZW50aXR5X1VDMzEiPjxlbGxpcHNlIGN4PSIyNDkuNjA2MiIgY3k9IjExOTIuNDIxMiIgZmlsbD0iI0YxRjFGMSIgcng9Ijg0LjYwNjIiIHJ5PSIxOS4zMjEyIiBzdHlsZT0ic3Ryb2tlOiMxODE4MTg7c3Ryb2tlLXdpZHRoOjAuNTsiLz48dGV4dCBmaWxsPSIjMDAwMDAwIiBmb250LWZhbWlseT0ic2Fucy1zZXJpZiIgZm9udC1zaXplPSIxNCIgbGVuZ3RoQWRqdXN0PSJzcGFjaW5nIiB0ZXh0TGVuZ3RoPSIxMzMiIHg9IjE4My4xMDYyIiB5PSIxMTk2LjE2MzQiPlNhdmUgRmF2b3JpdGUgUm91dGU8L3RleHQ+PC9nPjxnIGNsYXNzPSJlbnRpdHkiIGRhdGEtZW50aXR5PSJVQzMyIiBkYXRhLXNvdXJjZS1saW5lPSI1OSIgZGF0YS11aWQ9ImVudDAwNDAiIGlkPSJlbnRpdHlfVUMzMiI+PGVsbGlwc2UgY3g9IjU3MC43MzA5IiBjeT0iMTczMS41NDYyIiBmaWxsPSIjRjFGMUYxIiByeD0iODcuNzMwOSIgcnk9IjE5Ljk0NjIiIHN0eWxlPSJzdHJva2U6IzE4MTgxODtzdHJva2Utd2lkdGg6MC41OyIvPjx0ZXh0IGZpbGw9IiMwMDAwMDAiIGZvbnQtZmFtaWx5PSJzYW5zLXNlcmlmIiBmb250LXNpemU9IjE0IiBsZW5ndGhBZGp1c3Q9InNwYWNpbmciIHRleHRMZW5ndGg9IjE0MCIgeD0iNTAwLjczMDkiIHk9IjE3MzUuMjg4NCI+VmlldyBCb29raW5nIEhpc3Rvcnk8L3RleHQ+PC9nPjxnIGNsYXNzPSJlbnRpdHkiIGRhdGEtZW50aXR5PSJVQzMzIiBkYXRhLXNvdXJjZS1saW5lPSI2MCIgZGF0YS11aWQ9ImVudDAwNDEiIGlkPSJlbnRpdHlfVUMzMyI+PGVsbGlwc2UgY3g9IjI0OS42MDYyIiBjeT0iMTI2Ni40MjEyIiBmaWxsPSIjRjFGMUYxIiByeD0iODQuNjA2MiIgcnk9IjE5LjMyMTIiIHN0eWxlPSJzdHJva2U6IzE4MTgxODtzdHJva2Utd2lkdGg6MC41OyIvPjx0ZXh0IGZpbGw9IiMwMDAwMDAiIGZvbnQtZmFtaWx5PSJzYW5zLXNlcmlmIiBmb250LXNpemU9IjE0IiBsZW5ndGhBZGp1c3Q9InNwYWNpbmciIHRleHRMZW5ndGg9IjEzMyIgeD0iMTgzLjEwNjIiIHk9IjEyNzAuMTYzNCI+UmVib29rIGZyb20gSGlzdG9yeTwvdGV4dD48L2c+PGcgY2xhc3M9ImVudGl0eSIgZGF0YS1lbnRpdHk9IlVDMzQiIGRhdGEtc291cmNlLWxpbmU9IjYzIiBkYXRhLXVpZD0iZW50MDA0MiIgaWQ9ImVudGl0eV9VQzM0Ij48ZWxsaXBzZSBjeD0iMjQ5LjM4NzgiIGN5PSIyNTIuNzc3NiIgZmlsbD0iI0YxRjFGMSIgcng9IjYzLjg4NzgiIHJ5PSIxNS4xNzc2IiBzdHlsZT0ic3Ryb2tlOiMxODE4MTg7c3Ryb2tlLXdpZHRoOjAuNTsiLz48dGV4dCBmaWxsPSIjMDAwMDAwIiBmb250LWZhbWlseT0ic2Fucy1zZXJpZiIgZm9udC1zaXplPSIxNCIgbGVuZ3RoQWRqdXN0PSJzcGFjaW5nIiB0ZXh0TGVuZ3RoPSI4NCIgeD0iMjA3LjM4NzgiIHk9IjI1Ni41MTk3Ij5NYW5hZ2UgVXNlcnM8L3RleHQ+PC9nPjxnIGNsYXNzPSJlbnRpdHkiIGRhdGEtZW50aXR5PSJVQzM1IiBkYXRhLXNvdXJjZS1saW5lPSI2NCIgZGF0YS11aWQ9ImVudDAwNDMiIGlkPSJlbnRpdHlfVUMzNSI+PGVsbGlwc2UgY3g9IjI0OS4zODc4IiBjeT0iMzE3Ljc3NzYiIGZpbGw9IiNGMUYxRjEiIHJ4PSI2My44ODc4IiByeT0iMTUuMTc3NiIgc3R5bGU9InN0cm9rZTojMTgxODE4O3N0cm9rZS13aWR0aDowLjU7Ii8+PHRleHQgZmlsbD0iIzAwMDAwMCIgZm9udC1mYW1pbHk9InNhbnMtc2VyaWYiIGZvbnQtc2l6ZT0iMTQiIGxlbmd0aEFkanVzdD0ic3BhY2luZyIgdGV4dExlbmd0aD0iODQiIHg9IjIwNy4zODc4IiB5PSIzMjEuNTE5NyI+VmlldyBSZXBvcnRzPC90ZXh0PjwvZz48ZyBjbGFzcz0iZW50aXR5IiBkYXRhLWVudGl0eT0iVUMzNiIgZGF0YS1zb3VyY2UtbGluZT0iNjUiIGRhdGEtdWlkPSJlbnQwMDQ0IiBpZD0iZW50aXR5X1VDMzYiPjxlbGxpcHNlIGN4PSIyNDkuMzgzOSIgY3k9IjM4OC42NzY4IiBmaWxsPSIjRjFGMUYxIiByeD0iOTAuODgzOSIgcnk9IjIwLjU3NjgiIHN0eWxlPSJzdHJva2U6IzE4MTgxODtzdHJva2Utd2lkdGg6MC41OyIvPjx0ZXh0IGZpbGw9IiMwMDAwMDAiIGZvbnQtZmFtaWx5PSJzYW5zLXNlcmlmIiBmb250LXNpemU9IjE0IiBsZW5ndGhBZGp1c3Q9InNwYWNpbmciIHRleHRMZW5ndGg9IjE0NyIgeD0iMTc1Ljg4MzkiIHk9IjM5Mi40MTkiPlVwZGF0ZSBSb3V0ZXMgJmFtcDsgRmFyZXM8L3RleHQ+PC9nPjwhLS1lbnRpdHkgUC0tPjxnIGNsYXNzPSJlbnRpdHkiIGRhdGEtZW50aXR5PSJQIiBkYXRhLXNvdXJjZS1saW5lPSI0IiBkYXRhLXVpZD0iZW50MDAwMiIgaWQ9ImVudGl0eV9QIj48ZWxsaXBzZSBjeD0iNDQuNSIgY3k9IjE0MDAuNiIgZmlsbD0iI0YxRjFGMSIgcng9IjgiIHJ5PSI4IiBzdHlsZT0ic3Ryb2tlOiMxODE4MTg7c3Ryb2tlLXdpZHRoOjAuNTsiLz48cGF0aCBkPSJNNDQuNSwxNDA4LjYgTDQ0LjUsMTQzNS42IE0zMS41LDE0MTYuNiBMNTcuNSwxNDE2LjYgTTQ0LjUsMTQzNS42IEwzMS41LDE0NTAuNiBNNDQuNSwxNDM1LjYgTDU3LjUsMTQ1MC42IiBmaWxsPSJub25lIiBzdHlsZT0ic3Ryb2tlOiMxODE4MTg7c3Ryb2tlLXdpZHRoOjAuNTsiLz48dGV4dCBmaWxsPSIjMDAwMDAwIiBmb250LWZhbWlseT0ic2Fucy1zZXJpZiIgZm9udC1zaXplPSIxNCIgbGVuZ3RoQWRqdXN0PSJzcGFjaW5nIiB0ZXh0TGVuZ3RoPSI2MyIgeD0iMTMiIHk9IjE0NjUuMzM0NCI+UGFzc2VuZ2VyPC90ZXh0PjwvZz48IS0tZW50aXR5IEEtLT48ZyBjbGFzcz0iZW50aXR5IiBkYXRhLWVudGl0eT0iQSIgZGF0YS1zb3VyY2UtbGluZT0iNSIgZGF0YS11aWQ9ImVudDAwMDMiIGlkPSJlbnRpdHlfQSI+PGVsbGlwc2UgY3g9IjQ0LjUiIGN5PSI5Ny42IiBmaWxsPSIjRjFGMUYxIiByeD0iOCIgcnk9IjgiIHN0eWxlPSJzdHJva2U6IzE4MTgxODtzdHJva2Utd2lkdGg6MC41OyIvPjxwYXRoIGQ9Ik00NC41LDEwNS42IEw0NC41LDEzMi42IE0zMS41LDExMy42IEw1Ny41LDExMy42IE00NC41LDEzMi42IEwzMS41LDE0Ny42IE00NC41LDEzMi42IEw1Ny41LDE0Ny42IiBmaWxsPSJub25lIiBzdHlsZT0ic3Ryb2tlOiMxODE4MTg7c3Ryb2tlLXdpZHRoOjAuNTsiLz48dGV4dCBmaWxsPSIjMDAwMDAwIiBmb250LWZhbWlseT0ic2Fucy1zZXJpZiIgZm9udC1zaXplPSIxNCIgbGVuZ3RoQWRqdXN0PSJzcGFjaW5nIiB0ZXh0TGVuZ3RoPSIzNSIgeD0iMjciIHk9IjE2Mi4zMzQ0Ij5BZG1pbjwvdGV4dD48L2c+PCEtLWVudGl0eSBPLS0+PGcgY2xhc3M9ImVudGl0eSIgZGF0YS1lbnRpdHk9Ik8iIGRhdGEtc291cmNlLWxpbmU9IjYiIGRhdGEtdWlkPSJlbnQwMDA0IiBpZD0iZW50aXR5X08iPjxlbGxpcHNlIGN4PSI0NC41IiBjeT0iMzU5LjYiIGZpbGw9IiNGMUYxRjEiIHJ4PSI4IiByeT0iOCIgc3R5bGU9InN0cm9rZTojMTgxODE4O3N0cm9rZS13aWR0aDowLjU7Ii8+PHBhdGggZD0iTTQ0LjUsMzY3LjYgTDQ0LjUsMzk0LjYgTTMxLjUsMzc1LjYgTDU3LjUsMzc1LjYgTTQ0LjUsMzk0LjYgTDMxLjUsNDA5LjYgTTQ0LjUsMzk0LjYgTDU3LjUsNDA5LjYiIGZpbGw9Im5vbmUiIHN0eWxlPSJzdHJva2U6IzE4MTgxODtzdHJva2Utd2lkdGg6MC41OyIvPjx0ZXh0IGZpbGw9IiMwMDAwMDAiIGZvbnQtZmFtaWx5PSJzYW5zLXNlcmlmIiBmb250LXNpemU9IjE0IiBsZW5ndGhBZGp1c3Q9InNwYWNpbmciIHRleHRMZW5ndGg9IjU2IiB4PSIxNi41IiB5PSI0MjQuMzM0NCI+T3BlcmF0b3I8L3RleHQ+PC9nPjwhLS1lbnRpdHkgQi0tPjxnIGNsYXNzPSJlbnRpdHkiIGRhdGEtZW50aXR5PSJCIiBkYXRhLXNvdXJjZS1saW5lPSI3IiBkYXRhLXVpZD0iZW50MDAwNSIgaWQ9ImVudGl0eV9CIj48ZWxsaXBzZSBjeD0iNDQuNSIgY3k9IjIzNjAuNiIgZmlsbD0iI0YxRjFGMSIgcng9IjgiIHJ5PSI4IiBzdHlsZT0ic3Ryb2tlOiMxODE4MTg7c3Ryb2tlLXdpZHRoOjAuNTsiLz48cGF0aCBkPSJNNDQuNSwyMzY4LjYgTDQ0LjUsMjM5NS42IE0zMS41LDIzNzYuNiBMNTcuNSwyMzc2LjYgTTQ0LjUsMjM5NS42IEwzMS41LDI0MTAuNiBNNDQuNSwyMzk1LjYgTDU3LjUsMjQxMC42IiBmaWxsPSJub25lIiBzdHlsZT0ic3Ryb2tlOiMxODE4MTg7c3Ryb2tlLXdpZHRoOjAuNTsiLz48dGV4dCBmaWxsPSIjMDAwMDAwIiBmb250LWZhbWlseT0ic2Fucy1zZXJpZiIgZm9udC1zaXplPSIxNCIgbGVuZ3RoQWRqdXN0PSJzcGFjaW5nIiB0ZXh0TGVuZ3RoPSI3NyIgeD0iNiIgeT0iMjQyNS4zMzQ0Ij5CYW5rIFN5c3RlbTwvdGV4dD48L2c+PCEtLWVudGl0eSBNLS0+PGcgY2xhc3M9ImVudGl0eSIgZGF0YS1lbnRpdHk9Ik0iIGRhdGEtc291cmNlLWxpbmU9IjgiIGRhdGEtdWlkPSJlbnQwMDA2IiBpZD0iZW50aXR5X00iPjxlbGxpcHNlIGN4PSI0NC41IiBjeT0iNDg4LjYiIGZpbGw9IiNGMUYxRjEiIHJ4PSI4IiByeT0iOCIgc3R5bGU9InN0cm9rZTojMTgxODE4O3N0cm9rZS13aWR0aDowLjU7Ii8+PHBhdGggZD0iTTQ0LjUsNDk2LjYgTDQ0LjUsNTIzLjYgTTMxLjUsNTA0LjYgTDU3LjUsNTA0LjYgTTQ0LjUsNTIzLjYgTDMxLjUsNTM4LjYgTTQ0LjUsNTIzLjYgTDU3LjUsNTM4LjYiIGZpbGw9Im5vbmUiIHN0eWxlPSJzdHJva2U6IzE4MTgxODtzdHJva2Utd2lkdGg6MC41OyIvPjx0ZXh0IGZpbGw9IiMwMDAwMDAiIGZvbnQtZmFtaWx5PSJzYW5zLXNlcmlmIiBmb250LXNpemU9IjE0IiBsZW5ndGhBZGp1c3Q9InNwYWNpbmciIHRleHRMZW5ndGg9IjYzIiB4PSIxMyIgeT0iNTUzLjMzNDQiPk1ldHJvIEFQSTwvdGV4dD48L2c+PCEtLWVudGl0eSBPdHAtLT48ZyBjbGFzcz0iZW50aXR5IiBkYXRhLWVudGl0eT0iT3RwIiBkYXRhLXNvdXJjZS1saW5lPSI5IiBkYXRhLXVpZD0iZW50MDAwNyIgaWQ9ImVudGl0eV9PdHAiPjxlbGxpcHNlIGN4PSI0NC41IiBjeT0iNjkzLjYiIGZpbGw9IiNGMUYxRjEiIHJ4PSI4IiByeT0iOCIgc3R5bGU9InN0cm9rZTojMTgxODE4O3N0cm9rZS13aWR0aDowLjU7Ii8+PHBhdGggZD0iTTQ0LjUsNzAxLjYgTDQ0LjUsNzI4LjYgTTMxLjUsNzA5LjYgTDU3LjUsNzA5LjYgTTQ0LjUsNzI4LjYgTDMxLjUsNzQzLjYgTTQ0LjUsNzI4LjYgTDU3LjUsNzQzLjYiIGZpbGw9Im5vbmUiIHN0eWxlPSJzdHJva2U6IzE4MTgxODtzdHJva2Utd2lkdGg6MC41OyIvPjx0ZXh0IGZpbGw9IiMwMDAwMDAiIGZvbnQtZmFtaWx5PSJzYW5zLXNlcmlmIiBmb250LXNpemU9IjE0IiBsZW5ndGhBZGp1c3Q9InNwYWNpbmciIHRleHRMZW5ndGg9Ijc3IiB4PSI2IiB5PSI3NTguMzM0NCI+T1RQIFNlcnZpY2U8L3RleHQ+PC9nPjwhLS1saW5rIFAgdG8gVUMxLS0+PGcgY2xhc3M9ImxpbmsiIGRhdGEtZW50aXR5LTE9IlAiIGRhdGEtZW50aXR5LTI9IlVDMSIgZGF0YS1zb3VyY2UtbGluZT0iNjgiIGRhdGEtdWlkPSJsbms0NSIgaWQ9ImxpbmtfUF9VQzEiPjxwYXRoIGQ9Ik03Ni4zLDE0NDUuMDUgQzkwLjA3LDE0NTEuNiAxMDYuNjMsMTQ1OSAxMjIsMTQ2NC42IEMxNDcuMTYsMTQ3My43NyAxNzAuMDU5NCwxNDgwLjQwNDQgMTkzLjc1OTQsMTQ4Ni41MDQ0IiBmaWxsPSJub25lIiBpZD0iUC10by1VQzEiIHN0eWxlPSJzdHJva2U6IzE4MTgxODtzdHJva2Utd2lkdGg6MTsiLz48cG9seWdvbiBmaWxsPSIjMTgxODE4IiBwb2ludHM9IjE5OS41NywxNDg4LDE5MS44NTExLDE0ODEuODgyOSwxOTQuNzI3OCwxNDg2Ljc1MzcsMTg5Ljg1NywxNDg5LjYzMDQsMTk5LjU3LDE0ODgiIHN0eWxlPSJzdHJva2U6IzE4MTgxODtzdHJva2Utd2lkdGg6MTsiLz48L2c+PCEtLWxpbmsgUCB0byBVQzItLT48ZyBjbGFzcz0ibGluayIgZGF0YS1lbnRpdHktMT0iUCIgZGF0YS1lbnRpdHktMj0iVUMyIiBkYXRhLXNvdXJjZS1saW5lPSI2OSIgZGF0YS11aWQ9ImxuazQ2IiBpZD0ibGlua19QX1VDMiI+PHBhdGggZD0iTTQ4Ljk0LDEzOTEuODggQzYyLjMzLDEyNDYuMDQgMTEwLjczLDcyNi41OCAxMjIsNzEzLjYgQzEzOSw2OTQuMDEgMTYwLjE1NDgsNjg2LjM0OTIgMTg0LjkxNDgsNjgyLjk3OTIiIGZpbGw9Im5vbmUiIGlkPSJQLXRvLVVDMiIgc3R5bGU9InN0cm9rZTojMTgxODE4O3N0cm9rZS13aWR0aDoxOyIvPjxwb2x5Z29uIGZpbGw9IiMxODE4MTgiIHBvaW50cz0iMTkwLjg2LDY4Mi4xNywxODEuNDAyOCw2NzkuNDIwMywxODUuOTA1Nyw2ODIuODQ0MywxODIuNDgxNyw2ODcuMzQ3MiwxOTAuODYsNjgyLjE3IiBzdHlsZT0ic3Ryb2tlOiMxODE4MTg7c3Ryb2tlLXdpZHRoOjE7Ii8+PC9nPjwhLS1saW5rIFAgdG8gVUMzLS0+PGcgY2xhc3M9ImxpbmsiIGRhdGEtZW50aXR5LTE9IlAiIGRhdGEtZW50aXR5LTI9IlVDMyIgZGF0YS1zb3VyY2UtbGluZT0iNzAiIGRhdGEtdWlkPSJsbms0NyIgaWQ9ImxpbmtfUF9VQzMiPjxwYXRoIGQ9Ik02NC40OSwxNDY3LjM1IEM3Ny42NywxNDg5Ljg0IDk3LjMsMTUxNy4xMiAxMjIsMTUzMy42IEMxNDkuNDYsMTU1MS45MyAxODAuNzc4NSwxNTU4Ljc1MTQgMjA3Ljc0ODUsMTU2MS44MjE0IiBmaWxsPSJub25lIiBpZD0iUC10by1VQzMiIHN0eWxlPSJzdHJva2U6IzE4MTgxODtzdHJva2Utd2lkdGg6MTsiLz48cG9seWdvbiBmaWxsPSIjMTgxODE4IiBwb2ludHM9IjIxMy43MSwxNTYyLjUsMjA1LjIyMDEsMTU1Ny41MDc4LDIwOC43NDIxLDE1NjEuOTM0NSwyMDQuMzE1MywxNTY1LjQ1NjQsMjEzLjcxLDE1NjIuNSIgc3R5bGU9InN0cm9rZTojMTgxODE4O3N0cm9rZS13aWR0aDoxOyIvPjwvZz48IS0tbGluayBQIHRvIFVDNC0tPjxnIGNsYXNzPSJsaW5rIiBkYXRhLWVudGl0eS0xPSJQIiBkYXRhLWVudGl0eS0yPSJVQzQiIGRhdGEtc291cmNlLWxpbmU9IjcxIiBkYXRhLXVpZD0ibG5rNDgiIGlkPSJsaW5rX1BfVUM0Ij48cGF0aCBkPSJNNDkuNjcsMTM5MS45OCBDNjQuOTIsMTI1NC44NSAxMTYuOTgsNzg5LjQ1IDEyMiw3ODMuNiBDMTM1LjgsNzY3LjUyIDE1MC40Mzk0LDc1OS45MjU2IDE3MC45MDk0LDc1NC45NTU2IiBmaWxsPSJub25lIiBpZD0iUC10by1VQzQiIHN0eWxlPSJzdHJva2U6IzE4MTgxODtzdHJva2Utd2lkdGg6MTsiLz48cG9seWdvbiBmaWxsPSIjMTgxODE4IiBwb2ludHM9IjE3Ni43NCw3NTMuNTQsMTY3LjA1MDMsNzUxLjc3NjQsMTcxLjg4MTIsNzU0LjcxOTcsMTY4LjkzNzgsNzU5LjU1MDUsMTc2Ljc0LDc1My41NCIgc3R5bGU9InN0cm9rZTojMTgxODE4O3N0cm9rZS13aWR0aDoxOyIvPjwvZz48IS0tbGluayBQIHRvIFVDNS0tPjxnIGNsYXNzPSJsaW5rIiBkYXRhLWVudGl0eS0xPSJQIiBkYXRhLWVudGl0eS0yPSJVQzUiIGRhdGEtc291cmNlLWxpbmU9IjcyIiBkYXRhLXVpZD0ibG5rNDkiIGlkPSJsaW5rX1BfVUM1Ij48cGF0aCBkPSJNNjIuNzYsMTQ2Ny4xOSBDODUuMjIsMTUxNi4wNyAxMjEuNjYsMTU5NS4zMiAxMjIsMTU5NS42IEMxMzkuNDcsMTYxMC4zNCAxNTYuODU5MiwxNjE3LjQ1NDkgMTc4LjY1OTIsMTYyMi4yMzQ5IiBmaWxsPSJub25lIiBpZD0iUC10by1VQzUiIHN0eWxlPSJzdHJva2U6IzE4MTgxODtzdHJva2Utd2lkdGg6MTsiLz48cG9seWdvbiBmaWxsPSIjMTgxODE4IiBwb2ludHM9IjE4NC41MiwxNjIzLjUyLDE3Ni41ODU2LDE2MTcuNjg1MiwxNzkuNjM2LDE2MjIuNDQ5MSwxNzQuODcyMSwxNjI1LjQ5OTYsMTg0LjUyLDE2MjMuNTIiIHN0eWxlPSJzdHJva2U6IzE4MTgxODtzdHJva2Utd2lkdGg6MTsiLz48L2c+PCEtLWxpbmsgUCB0byBVQzYtLT48ZyBjbGFzcz0ibGluayIgZGF0YS1lbnRpdHktMT0iUCIgZGF0YS1lbnRpdHktMj0iVUM2IiBkYXRhLXNvdXJjZS1saW5lPSI3MyIgZGF0YS11aWQ9ImxuazUwIiBpZD0ibGlua19QX1VDNiI+PHBhdGggZD0iTTQ1LjA1LDE0NjcuMjggQzQ0LjQyLDE1ODQuNzMgNDguNzIsMTk0MS4zNCAxMjIsMjAyNC42IEMxMzcuNDUsMjA0Mi4xNSAxNTUuMDQxNywyMDQ5LjgxOTggMTc3LjYxMTcsMjA1NC4wMjk4IiBmaWxsPSJub25lIiBpZD0iUC10by1VQzYiIHN0eWxlPSJzdHJva2U6IzE4MTgxODtzdHJva2Utd2lkdGg6MTsiLz48cG9seWdvbiBmaWxsPSIjMTgxODE4IiBwb2ludHM9IjE4My41MSwyMDU1LjEzLDE3NS4zOTYxLDIwNDkuNTQ3NSwxNzguNTk0OCwyMDU0LjIxMzIsMTczLjkyOTEsMjA1Ny40MTE5LDE4My41MSwyMDU1LjEzIiBzdHlsZT0ic3Ryb2tlOiMxODE4MTg7c3Ryb2tlLXdpZHRoOjE7Ii8+PC9nPjwhLS1saW5rIFAgdG8gVUM3LS0+PGcgY2xhc3M9ImxpbmsiIGRhdGEtZW50aXR5LTE9IlAiIGRhdGEtZW50aXR5LTI9IlVDNyIgZGF0YS1zb3VyY2UtbGluZT0iNzQiIGRhdGEtdWlkPSJsbms1MSIgaWQ9ImxpbmtfUF9VQzciPjxwYXRoIGQ9Ik02MC40MywxNDY3LjIzIEM3NS40NywxNTA2LjE1IDk4LjU5LDE1NjguOTMgMTE0LDE2MjQuNiBDMTE4LjcyLDE2NDEuNjUgMTEwLjAxLDE2NTAuNTkgMTIyLDE2NjMuNiBDMTM1LjI1LDE2NzcuOTkgMTQ4LjAwMDIsMTY4NS4yMTkzIDE2Ni43ODAyLDE2OTAuNjk5MyIgZmlsbD0ibm9uZSIgaWQ9IlAtdG8tVUM3IiBzdHlsZT0ic3Ryb2tlOiMxODE4MTg7c3Ryb2tlLXdpZHRoOjE7Ii8+PHBvbHlnb24gZmlsbD0iIzE4MTgxOCIgcG9pbnRzPSIxNzIuNTQsMTY5Mi4zOCwxNjUuMDIwOCwxNjg2LjAxOTEsMTY3Ljc0MDIsMTY5MC45Nzk0LDE2Mi43Nzk4LDE2OTMuNjk4OCwxNzIuNTQsMTY5Mi4zOCIgc3R5bGU9InN0cm9rZTojMTgxODE4O3N0cm9rZS13aWR0aDoxOyIvPjwvZz48IS0tbGluayBQIHRvIFVDOC0tPjxnIGNsYXNzPSJsaW5rIiBkYXRhLWVudGl0eS0xPSJQIiBkYXRhLWVudGl0eS0yPSJVQzgiIGRhdGEtc291cmNlLWxpbmU9Ijc1IiBkYXRhLXVpZD0ibG5rNTIiIGlkPSJsaW5rX1BfVUM4Ij48cGF0aCBkPSJNNDYuOTcsMTQ2Ny4zOSBDNTQuNCwxNjUzLjkxIDg4LjY1LDI0NjkuMDMgMTIyLDI1MTAuNiBDMTU5LjA3LDI1NTYuODEgMTg5LjI2LDI1NTIuNiAyNDguNSwyNTUyLjYgQzI0OC41LDI1NTIuNiAyNDguNSwyNTUyLjYgODYxLjUsMjU1Mi42IEMxMDgyLjY3LDI1NTIuNiAxMTExLjU0MzYsMjE2Mi40NDQxIDExMTUuMjIzNiwyMDc5LjY1NDEiIGZpbGw9Im5vbmUiIGlkPSJQLXRvLVVDOCIgc3R5bGU9InN0cm9rZTojMTgxODE4O3N0cm9rZS13aWR0aDoxOyIvPjxwb2x5Z29uIGZpbGw9IiMxODE4MTgiIHBvaW50cz0iMTExNS40OSwyMDczLjY2LDExMTEuMDk0MywyMDgyLjQ3MzUsMTExNS4yNjgsMjA3OC42NTUxLDExMTkuMDg2NCwyMDgyLjgyODcsMTExNS40OSwyMDczLjY2IiBzdHlsZT0ic3Ryb2tlOiMxODE4MTg7c3Ryb2tlLXdpZHRoOjE7Ii8+PC9nPjwhLS1saW5rIFAgdG8gVUM5LS0+PGcgY2xhc3M9ImxpbmsiIGRhdGEtZW50aXR5LTE9IlAiIGRhdGEtZW50aXR5LTI9IlVDOSIgZGF0YS1zb3VyY2UtbGluZT0iNzYiIGRhdGEtdWlkPSJsbms1MyIgaWQ9ImxpbmtfUF9VQzkiPjxwYXRoIGQ9Ik01Ny4zLDE0NjcuMjUgQzcyLjI4LDE1MTYuMiA5OC4wOSwxNjA0LjU3IDExNCwxNjgxLjYgQzExNi41NCwxNjkzLjkxIDExMy44LDE3MjguMDcgMTIyLDE3MzcuNiBDMTM0LjQ5LDE3NTIuMTIgMTQ2LjU1NjcsMTc1OS40NDA5IDE2NC44NjY3LDE3NjUuMDkwOSIgZmlsbD0ibm9uZSIgaWQ9IlAtdG8tVUM5IiBzdHlsZT0ic3Ryb2tlOiMxODE4MTg7c3Ryb2tlLXdpZHRoOjE7Ii8+PHBvbHlnb24gZmlsbD0iIzE4MTgxOCIgcG9pbnRzPSIxNzAuNiwxNzY2Ljg2LDE2My4xNzk1LDE3NjAuMzg0MSwxNjUuODIyMywxNzY1LjM4NTcsMTYwLjgyMDcsMTc2OC4wMjg1LDE3MC42LDE3NjYuODYiIHN0eWxlPSJzdHJva2U6IzE4MTgxODtzdHJva2Utd2lkdGg6MTsiLz48L2c+PCEtLWxpbmsgUCB0byBVQzEwLS0+PGcgY2xhc3M9ImxpbmsiIGRhdGEtZW50aXR5LTE9IlAiIGRhdGEtZW50aXR5LTI9IlVDMTAiIGRhdGEtc291cmNlLWxpbmU9Ijc3IiBkYXRhLXVpZD0ibG5rNTQiIGlkPSJsaW5rX1BfVUMxMCI+PHBhdGggZD0iTTQ3LjcxLDEzOTEuOSBDNTkuNjksMTE4Ny44NiAxMTYuNTEsMjI0Ljc1IDEyMiwyMTkuNiBDMTk2Ljg1LDE0OS4zMyAyNjYuMzYsMTY0LjUzIDM1MywyMTkuNiBDMzc5LjUxLDIzNi40NSAzNjMuMDUsMjU5LjM0IDM4MywyODMuNiBDNDE0LjUsMzIxLjkxIDQyOS43OCwzMjUuMjYgNDczLDM0OS42IEM0ODcuMDYsMzU3LjUyIDQ5Ny40NTg0LDM2Mi40OTQgNTEyLjI4ODQsMzY4LjU3NCIgZmlsbD0ibm9uZSIgaWQ9IlAtdG8tVUMxMCIgc3R5bGU9InN0cm9rZTojMTgxODE4O3N0cm9rZS13aWR0aDoxOyIvPjxwb2x5Z29uIGZpbGw9IiMxODE4MTgiIHBvaW50cz0iNTE3Ljg0LDM3MC44NSw1MTEuMDMsMzYzLjczNDksNTEzLjIxMzcsMzY4Ljk1MzMsNTA3Ljk5NTMsMzcxLjEzNyw1MTcuODQsMzcwLjg1IiBzdHlsZT0ic3Ryb2tlOiMxODE4MTg7c3Ryb2tlLXdpZHRoOjE7Ii8+PC9nPjwhLS1saW5rIFAgdG8gVUMxMS0tPjxnIGNsYXNzPSJsaW5rIiBkYXRhLWVudGl0eS0xPSJQIiBkYXRhLWVudGl0eS0yPSJVQzExIiBkYXRhLXNvdXJjZS1saW5lPSI3OCIgZGF0YS11aWQ9ImxuazU1IiBpZD0ibGlua19QX1VDMTEiPjxwYXRoIGQ9Ik00OC4wMiwxMzkxLjk5IEM1OC4zNywxMjQwLjExIDk4LjA5LDY3OC42NiAxMjIsNjQ5LjYgQzEzMy42NSw2MzUuNDMgMTQ0LjY3NjYsNjI4LjI3MzEgMTYyLjE1NjYsNjIyLjU2MzEiIGZpbGw9Im5vbmUiIGlkPSJQLXRvLVVDMTEiIHN0eWxlPSJzdHJva2U6IzE4MTgxODtzdHJva2Utd2lkdGg6MTsiLz48cG9seWdvbiBmaWxsPSIjMTgxODE4IiBwb2ludHM9IjE2Ny44Niw2MjAuNywxNTguMDYyOCw2MTkuNjkyMywxNjMuMTA3Miw2MjIuMjUyNiwxNjAuNTQ2OSw2MjcuMjk2OSwxNjcuODYsNjIwLjciIHN0eWxlPSJzdHJva2U6IzE4MTgxODtzdHJva2Utd2lkdGg6MTsiLz48L2c+PCEtLWxpbmsgUCB0byBVQzEyLS0+PGcgY2xhc3M9ImxpbmsiIGRhdGEtZW50aXR5LTE9IlAiIGRhdGEtZW50aXR5LTI9IlVDMTIiIGRhdGEtc291cmNlLWxpbmU9Ijc5IiBkYXRhLXVpZD0ibG5rNTYiIGlkPSJsaW5rX1BfVUMxMiI+PHBhdGggZD0iTTQ1LjUyLDE0NjcuMjggQzQ1Ljk5LDE2MzYuMjUgNTIuMjIsMjMxOC41NiAxMjIsMjM3OS42IEMxOTkuMjgsMjQ0Ny4xOSAyNTMuMTksMjQwMy42MyAzNTMsMjM3OS42IEM1MjcuNTMsMjMzNy41OSA2OTEuNDMsMjEwMC40MiA3ODgsMjAyNC42IEM4MDIuOTEsMjAxMi44OSA4MTUuNDYxMiwyMDA0LjE0MzQgODI5LjQ0MTIsMTk5NC45MjM0IiBmaWxsPSJub25lIiBpZD0iUC10by1VQzEyIiBzdHlsZT0ic3Ryb2tlOiMxODE4MTg7c3Ryb2tlLXdpZHRoOjE7Ii8+PHBvbHlnb24gZmlsbD0iIzE4MTgxOCIgcG9pbnRzPSI4MzQuNDUsMTk5MS42Miw4MjQuNzM0NiwxOTkzLjIzNTgsODMwLjI3NiwxOTk0LjM3MjgsODI5LjEzOTEsMTk5OS45MTQyLDgzNC40NSwxOTkxLjYyIiBzdHlsZT0ic3Ryb2tlOiMxODE4MTg7c3Ryb2tlLXdpZHRoOjE7Ii8+PC9nPjwhLS1saW5rIFAgdG8gVUMxMy0tPjxnIGNsYXNzPSJsaW5rIiBkYXRhLWVudGl0eS0xPSJQIiBkYXRhLWVudGl0eS0yPSJVQzEzIiBkYXRhLXNvdXJjZS1saW5lPSI4MCIgZGF0YS11aWQ9ImxuazU3IiBpZD0ibGlua19QX1VDMTMiPjxwYXRoIGQ9Ik00Ny41OSwxMzkxLjk3IEM1NS41NSwxMjQ5LjIgODQuOTYsNzI3LjM2IDExMywyOTcuNiBDMTE2LjY4LDI0MS4xNCA4MC42LDIwOS4xNyAxMjIsMTcwLjYgQzE5Ny4xMiwxMDAuNjIgMjU3LjY1LDEzMi41MyAzNTMsMTcwLjYgQzM4Ny4xNiwxODQuMjQgNDQxLjU0LDI2NS41NCA0NzMsMjg0LjYgQzQ4OS41MSwyOTQuNiA1MDMuNzA2OSwzMDAuMzMzMiA1MjEuMTY2OSwzMDUuNjEzMiIgZmlsbD0ibm9uZSIgaWQ9IlAtdG8tVUMxMyIgc3R5bGU9InN0cm9rZTojMTgxODE4O3N0cm9rZS13aWR0aDoxOyIvPjxwb2x5Z29uIGZpbGw9IiMxODE4MTgiIHBvaW50cz0iNTI2LjkxLDMwNy4zNSw1MTkuNDUzMSwzMDAuOTE2MSw1MjIuMTI0LDMwNS45MDI3LDUxNy4xMzc0LDMwOC41NzM2LDUyNi45MSwzMDcuMzUiIHN0eWxlPSJzdHJva2U6IzE4MTgxODtzdHJva2Utd2lkdGg6MTsiLz48L2c+PCEtLWxpbmsgUCB0byBVQzE0LS0+PGcgY2xhc3M9ImxpbmsiIGRhdGEtZW50aXR5LTE9IlAiIGRhdGEtZW50aXR5LTI9IlVDMTQiIGRhdGEtc291cmNlLWxpbmU9IjgxIiBkYXRhLXVpZD0ibG5rNTgiIGlkPSJsaW5rX1BfVUMxNCI+PHBhdGggZD0iTTQ1Ljc4LDE0NjcuMzYgQzQ3LjM3LDE2MjkuMDcgNTcuNjgsMjI1Ny42MyAxMjIsMjMxNC42IEMyMjkuNjYsMjQwOS45NiAzNDIuNjMsMjM3Ni42MiA0NDMsMjI3My42IEM1MjUuMTcsMjE4OS4yNiA1NTYuNTA0NiwyMDQ5LjI5NDYgNTY1LjU2NDYsMTk5OS4wODQ2IiBmaWxsPSJub25lIiBpZD0iUC10by1VQzE0IiBzdHlsZT0ic3Ryb2tlOiMxODE4MTg7c3Ryb2tlLXdpZHRoOjE7Ii8+PHBvbHlnb24gZmlsbD0iIzE4MTgxOCIgcG9pbnRzPSI1NjYuNjMsMTk5My4xOCw1NjEuMDk1NCwyMDAxLjMyNjcsNTY1Ljc0MjEsMTk5OC4xMDA1LDU2OC45NjgzLDIwMDIuNzQ3Myw1NjYuNjMsMTk5My4xOCIgc3R5bGU9InN0cm9rZTojMTgxODE4O3N0cm9rZS13aWR0aDoxOyIvPjwvZz48IS0tbGluayBQIHRvIFVDMTUtLT48ZyBjbGFzcz0ibGluayIgZGF0YS1lbnRpdHktMT0iUCIgZGF0YS1lbnRpdHktMj0iVUMxNSIgZGF0YS1zb3VyY2UtbGluZT0iODIiIGRhdGEtdWlkPSJsbms1OSIgaWQ9ImxpbmtfUF9VQzE1Ij48cGF0aCBkPSJNNTQuMzksMTQ2Ny40NiBDNjguMzcsMTUyNy45MSA5NS44LDE2NTAuMDcgMTE0LDE3NTQuNiBDMTE2LjIzLDE3NjcuNDIgMTEzLjM2LDE4MDIuODcgMTIyLDE4MTIuNiBDMTM4LjA1LDE4MzAuNjcgMTU2LjcyOSwxODM4LjM5MDMgMTc5Ljk3OSwxODQyLjQ0MDMiIGZpbGw9Im5vbmUiIGlkPSJQLXRvLVVDMTUiIHN0eWxlPSJzdHJva2U6IzE4MTgxODtzdHJva2Utd2lkdGg6MTsiLz48cG9seWdvbiBmaWxsPSIjMTgxODE4IiBwb2ludHM9IjE4NS44OSwxODQzLjQ3LDE3Ny43MSwxODM3Ljk4NDksMTgwLjk2NDIsMTg0Mi42MTIsMTc2LjMzNzEsMTg0NS44NjYyLDE4NS44OSwxODQzLjQ3IiBzdHlsZT0ic3Ryb2tlOiMxODE4MTg7c3Ryb2tlLXdpZHRoOjE7Ii8+PC9nPjwhLS1saW5rIFAgdG8gVUMxNi0tPjxnIGNsYXNzPSJsaW5rIiBkYXRhLWVudGl0eS0xPSJQIiBkYXRhLWVudGl0eS0yPSJVQzE2IiBkYXRhLXNvdXJjZS1saW5lPSI4MyIgZGF0YS11aWQ9ImxuazYwIiBpZD0ibGlua19QX1VDMTYiPjxwYXRoIGQ9Ik01MC44NSwxNDY3LjQyIEM2NS45LDE1NzIuNjQgMTA4LjMzLDE4NjIuMTQgMTIyLDE4NzcuNiBDMTM1LjE0LDE4OTIuNDYgMTQ4LjA4NTQsMTg5OS45MjE4IDE2Ny4wOTU0LDE5MDUuNTMxOCIgZmlsbD0ibm9uZSIgaWQ9IlAtdG8tVUMxNiIgc3R5bGU9InN0cm9rZTojMTgxODE4O3N0cm9rZS13aWR0aDoxOyIvPjxwb2x5Z29uIGZpbGw9IiMxODE4MTgiIHBvaW50cz0iMTcyLjg1LDE5MDcuMjMsMTY1LjM1MDIsMTkwMC44NDYyLDE2OC4wNTQ1LDE5MDUuODE0OCwxNjMuMDg1OSwxOTA4LjUxOTEsMTcyLjg1LDE5MDcuMjMiIHN0eWxlPSJzdHJva2U6IzE4MTgxODtzdHJva2Utd2lkdGg6MTsiLz48L2c+PCEtLWxpbmsgUCB0byBVQzE3LS0+PGcgY2xhc3M9ImxpbmsiIGRhdGEtZW50aXR5LTE9IlAiIGRhdGEtZW50aXR5LTI9IlVDMTciIGRhdGEtc291cmNlLWxpbmU9Ijg0IiBkYXRhLXVpZD0ibG5rNjEiIGlkPSJsaW5rX1BfVUMxNyI+PHBhdGggZD0iTTQ2LjE5LDE0NjcuMjMgQzQ5LjAxLDE1OTUuOTYgNjIsMjAxNy41OCAxMTMsMjE0MS42IEMxNjguODEsMjI3Ny4zMiAzMzUuOSwyMjUyLjkzIDQ0MywyMTUyLjYgQzQ4MC4zLDIxMTcuNjYgNDY0LjMxLDE3NDMuOTcgNDczLDE2OTMuNiBDNDk1LjMzLDE1NjQuMjEgNTQ1LjcyMTQsMTQxOS4xOTMxIDU2Mi4zMjE0LDEzNzMuMjQzMSIgZmlsbD0ibm9uZSIgaWQ9IlAtdG8tVUMxNyIgc3R5bGU9InN0cm9rZTojMTgxODE4O3N0cm9rZS13aWR0aDoxOyIvPjxwb2x5Z29uIGZpbGw9IiMxODE4MTgiIHBvaW50cz0iNTY0LjM2LDEzNjcuNiw1NTcuNTQsMTM3NC43MDU1LDU2Mi42NjExLDEzNzIuMzAyNSw1NjUuMDY0MSwxMzc3LjQyMzcsNTY0LjM2LDEzNjcuNiIgc3R5bGU9InN0cm9rZTojMTgxODE4O3N0cm9rZS13aWR0aDoxOyIvPjwvZz48IS0tbGluayBQIHRvIFVDMTgtLT48ZyBjbGFzcz0ibGluayIgZGF0YS1lbnRpdHktMT0iUCIgZGF0YS1lbnRpdHktMj0iVUMxOCIgZGF0YS1zb3VyY2UtbGluZT0iODUiIGRhdGEtdWlkPSJsbms2MiIgaWQ9ImxpbmtfUF9VQzE4Ij48cGF0aCBkPSJNNDUuODcsMTQ2Ny4xNyBDNDcuNzEsMTU3NC42MiA1OC41MSwxODgwLjEyIDEyMiwxOTUyLjYgQzEzNS4xNywxOTY3LjYzIDE0OC4zMjQ5LDE5NzQuOTk4NiAxNjcuNTU0OSwxOTgwLjI4ODYiIGZpbGw9Im5vbmUiIGlkPSJQLXRvLVVDMTgiIHN0eWxlPSJzdHJva2U6IzE4MTgxODtzdHJva2Utd2lkdGg6MTsiLz48cG9seWdvbiBmaWxsPSIjMTgxODE4IiBwb2ludHM9IjE3My4zNCwxOTgxLjg4LDE2NS43MjMzLDE5NzUuNjM2MSwxNjguNTE5MSwxOTgwLjU1MzgsMTYzLjYwMTQsMTk4My4zNDk2LDE3My4zNCwxOTgxLjg4IiBzdHlsZT0ic3Ryb2tlOiMxODE4MTg7c3Ryb2tlLXdpZHRoOjE7Ii8+PC9nPjwhLS1saW5rIFAgdG8gVUMxOS0tPjxnIGNsYXNzPSJsaW5rIiBkYXRhLWVudGl0eS0xPSJQIiBkYXRhLWVudGl0eS0yPSJVQzE5IiBkYXRhLXNvdXJjZS1saW5lPSI4NiIgZGF0YS11aWQ9ImxuazYzIiBpZD0ibGlua19QX1VDMTkiPjxwYXRoIGQ9Ik00OC4xOSwxMzkyLjA3IEM1Ny4xMiwxMjcxLjk5IDg3LjE5LDkwMi43NiAxMjIsODYyLjYgQzEzMy4zNiw4NDkuNDkgMTQzLjM3NzIsODQyLjczMTUgMTU5LjgxNzIsODM2Ljg4MTUiIGZpbGw9Im5vbmUiIGlkPSJQLXRvLVVDMTkiIHN0eWxlPSJzdHJva2U6IzE4MTgxODtzdHJva2Utd2lkdGg6MTsiLz48cG9seWdvbiBmaWxsPSIjMTgxODE4IiBwb2ludHM9IjE2NS40Nyw4MzQuODcsMTU1LjY0OTgsODM0LjExODcsMTYwLjc1OTMsODM2LjU0NjIsMTU4LjMzMTgsODQxLjY1NTcsMTY1LjQ3LDgzNC44NyIgc3R5bGU9InN0cm9rZTojMTgxODE4O3N0cm9rZS13aWR0aDoxOyIvPjwvZz48IS0tbGluayBQIHRvIFVDMjAtLT48ZyBjbGFzcz0ibGluayIgZGF0YS1lbnRpdHktMT0iUCIgZGF0YS1lbnRpdHktMj0iVUMyMCIgZGF0YS1zb3VyY2UtbGluZT0iODciIGRhdGEtdWlkPSJsbms2NCIgaWQ9ImxpbmtfUF9VQzIwIj48cGF0aCBkPSJNNDYuMDIsMTM5MS44OCBDNDguMjMsMTI4Ni45NiA1OS45Nyw5OTQuOTUgMTIyLDkyNi42IEMxMzkuMzYsOTA3LjQ4IDE2MC4zOTkyLDg5OS44ODA3IDE4NC45ODkyLDg5Ni40MDA3IiBmaWxsPSJub25lIiBpZD0iUC10by1VQzIwIiBzdHlsZT0ic3Ryb2tlOiMxODE4MTg7c3Ryb2tlLXdpZHRoOjE7Ii8+PHBvbHlnb24gZmlsbD0iIzE4MTgxOCIgcG9pbnRzPSIxOTAuOTMsODk1LjU2LDE4MS40NTgzLDg5Mi44NjA2LDE4NS45NzkzLDg5Ni4yNjA2LDE4Mi41NzkzLDkwMC43ODE3LDE5MC45Myw4OTUuNTYiIHN0eWxlPSJzdHJva2U6IzE4MTgxODtzdHJva2Utd2lkdGg6MTsiLz48L2c+PCEtLWxpbmsgUCB0byBVQzIxLS0+PGcgY2xhc3M9ImxpbmsiIGRhdGEtZW50aXR5LTE9IlAiIGRhdGEtZW50aXR5LTI9IlVDMjEiIGRhdGEtc291cmNlLWxpbmU9Ijg4IiBkYXRhLXVpZD0ibG5rNjUiIGlkPSJsaW5rX1BfVUMyMSI+PHBhdGggZD0iTTQ3LjMsMTM5Mi4wMyBDNTIuNTIsMTI5OC43OSA3MC42OSwxMDYwLjE1IDEyMiwxMDAyLjYgQzEzNC4yOCw5ODguODIgMTQ1LjYzOTEsOTgxLjc4OTkgMTYzLjI2OTEsOTc2LjEwOTkiIGZpbGw9Im5vbmUiIGlkPSJQLXRvLVVDMjEiIHN0eWxlPSJzdHJva2U6IzE4MTgxODtzdHJva2Utd2lkdGg6MTsiLz48cG9seWdvbiBmaWxsPSIjMTgxODE4IiBwb2ludHM9IjE2OC45OCw5NzQuMjcsMTU5LjE4Nyw5NzMuMjIyNiwxNjQuMjIwOSw5NzUuODAzMywxNjEuNjQwMiw5ODAuODM3MiwxNjguOTgsOTc0LjI3IiBzdHlsZT0ic3Ryb2tlOiMxODE4MTg7c3Ryb2tlLXdpZHRoOjE7Ii8+PC9nPjwhLS1saW5rIFAgdG8gVUMyMi0tPjxnIGNsYXNzPSJsaW5rIiBkYXRhLWVudGl0eS0xPSJQIiBkYXRhLWVudGl0eS0yPSJVQzIyIiBkYXRhLXNvdXJjZS1saW5lPSI4OSIgZGF0YS11aWQ9ImxuazY2IiBpZD0ibGlua19QX1VDMjIiPjxwYXRoIGQ9Ik00Ny4zNiwxMzkyLjAzIEM1NS45NSwxMjIyLjEzIDkyLjUxLDUzMi4zIDEyMiw0OTcuNiBDMTM1LjIxLDQ4Mi4wNiAxNDguODI5NSw0NzQuNjA2MSAxNjguNTE5NSw0NjkuNTM2MSIgZmlsbD0ibm9uZSIgaWQ9IlAtdG8tVUMyMiIgc3R5bGU9InN0cm9rZTojMTgxODE4O3N0cm9rZS13aWR0aDoxOyIvPjxwb2x5Z29uIGZpbGw9IiMxODE4MTgiIHBvaW50cz0iMTc0LjMzLDQ2OC4wNCwxNjQuNjE2OSw0NjYuNDEwNiwxNjkuNDg3OSw0NjkuMjg2OCwxNjYuNjExNyw0NzQuMTU3OSwxNzQuMzMsNDY4LjA0IiBzdHlsZT0ic3Ryb2tlOiMxODE4MTg7c3Ryb2tlLXdpZHRoOjE7Ii8+PC9nPjwhLS1saW5rIFAgdG8gVUMyMy0tPjxnIGNsYXNzPSJsaW5rIiBkYXRhLWVudGl0eS0xPSJQIiBkYXRhLWVudGl0eS0yPSJVQzIzIiBkYXRhLXNvdXJjZS1saW5lPSI5MCIgZGF0YS11aWQ9ImxuazY3IiBpZD0ibGlua19QX1VDMjMiPjxwYXRoIGQ9Ik03Ni4zMywxNDI5LjYgQzEwMS40LDE0MjkuNiAxMzEuODgsMTQyOS42IDE2NC44MiwxNDI5LjYiIGZpbGw9Im5vbmUiIGlkPSJQLXRvLVVDMjMiIHN0eWxlPSJzdHJva2U6IzE4MTgxODtzdHJva2Utd2lkdGg6MTsiLz48cG9seWdvbiBmaWxsPSIjMTgxODE4IiBwb2ludHM9IjE3MC44MiwxNDI5LjYsMTYxLjgyLDE0MjUuNiwxNjUuODIsMTQyOS42LDE2MS44MiwxNDMzLjYsMTcwLjgyLDE0MjkuNiIgc3R5bGU9InN0cm9rZTojMTgxODE4O3N0cm9rZS13aWR0aDoxOyIvPjwvZz48IS0tbGluayBQIHRvIFVDMjQtLT48ZyBjbGFzcz0ibGluayIgZGF0YS1lbnRpdHktMT0iUCIgZGF0YS1lbnRpdHktMj0iVUMyNCIgZGF0YS1zb3VyY2UtbGluZT0iOTEiIGRhdGEtdWlkPSJsbms2OCIgaWQ9ImxpbmtfUF9VQzI0Ij48cGF0aCBkPSJNNDYuOTcsMTQ2Ny4xNCBDNTIuNTgsMTYwMSA3NC44LDIwNDkuMTYgMTIyLDIwOTAuNiBDMTk5LjE1LDIxNTguMzQgMjY0LjkyLDIxNDMuMzQgMzUzLDIwOTAuNiBDNDI1LjY4LDIwNDcuMDkgNDIwLjM0LDIwMDQuMjIgNDQzLDE5MjIuNiBDNDc4Ljc4LDE3OTMuNzUgNDU0LjEzLDE0NTMuOTggNDczLDEzMjEuNiBDNDk0Ljc4LDExNjguODMgNTQ1LjM4MDgsOTk0Ljk2MjQgNTYyLjM1MDgsOTM4LjkzMjQiIGZpbGw9Im5vbmUiIGlkPSJQLXRvLVVDMjQiIHN0eWxlPSJzdHJva2U6IzE4MTgxODtzdHJva2Utd2lkdGg6MTsiLz48cG9seWdvbiBmaWxsPSIjMTgxODE4IiBwb2ludHM9IjU2NC4wOSw5MzMuMTksNTU3LjY1MjksOTQwLjY0NDEsNTYyLjY0MDcsOTM3Ljk3NTMsNTY1LjMwOTQsOTQyLjk2MzEsNTY0LjA5LDkzMy4xOSIgc3R5bGU9InN0cm9rZTojMTgxODE4O3N0cm9rZS13aWR0aDoxOyIvPjwvZz48IS0tbGluayBQIHRvIFVDMjUtLT48ZyBjbGFzcz0ibGluayIgZGF0YS1lbnRpdHktMT0iUCIgZGF0YS1lbnRpdHktMj0iVUMyNSIgZGF0YS1zb3VyY2UtbGluZT0iOTIiIGRhdGEtdWlkPSJsbms2OSIgaWQ9ImxpbmtfUF9VQzI1Ij48cGF0aCBkPSJNNDcuNjgsMTM5MS45MyBDNTcuMTcsMTIzMC43MSA5NS41NCw2MDUuNjYgMTIyLDU3My42IEMxMzQuMTEsNTU4LjkyIDE0NS45NDE2LDU1MS41NTQ2IDE2NC4xNDE2LDU0NS44ODQ2IiBmaWxsPSJub25lIiBpZD0iUC10by1VQzI1IiBzdHlsZT0ic3Ryb2tlOiMxODE4MTg7c3Ryb2tlLXdpZHRoOjE7Ii8+PHBvbHlnb24gZmlsbD0iIzE4MTgxOCIgcG9pbnRzPSIxNjkuODcsNTQ0LjEsMTYwLjA4NzYsNTQyLjk1OCwxNjUuMDk2Myw1NDUuNTg3MiwxNjIuNDY3MSw1NTAuNTk1OSwxNjkuODcsNTQ0LjEiIHN0eWxlPSJzdHJva2U6IzE4MTgxODtzdHJva2Utd2lkdGg6MTsiLz48L2c+PCEtLWxpbmsgUCB0byBVQzI2LS0+PGcgY2xhc3M9ImxpbmsiIGRhdGEtZW50aXR5LTE9IlAiIGRhdGEtZW50aXR5LTI9IlVDMjYiIGRhdGEtc291cmNlLWxpbmU9IjkzIiBkYXRhLXVpZD0ibG5rNzAiIGlkPSJsaW5rX1BfVUMyNiI+PHBhdGggZD0iTTQ5LjExLDEzOTEuODkgQzU3LjQ5LDEzMTEuODYgODAuNzgsMTEyOC42NSAxMjIsMTA4My42IEMxMzMuMjcsMTA3MS4yOCAxNDIuNjk0NCwxMDY0Ljg0MyAxNTguNDU0NCwxMDU4LjkxMyIgZmlsbD0ibm9uZSIgaWQ9IlAtdG8tVUMyNiIgc3R5bGU9InN0cm9rZTojMTgxODE4O3N0cm9rZS13aWR0aDoxOyIvPjxwb2x5Z29uIGZpbGw9IiMxODE4MTgiIHBvaW50cz0iMTY0LjA3LDEwNTYuOCwxNTQuMjM3OSwxMDU2LjIyNTcsMTU5LjM5MDMsMTA1OC41NjA4LDE1Ny4wNTUyLDEwNjMuNzEzMiwxNjQuMDcsMTA1Ni44IiBzdHlsZT0ic3Ryb2tlOiMxODE4MTg7c3Ryb2tlLXdpZHRoOjE7Ii8+PC9nPjwhLS1saW5rIFAgdG8gVUMyNy0tPjxnIGNsYXNzPSJsaW5rIiBkYXRhLWVudGl0eS0xPSJQIiBkYXRhLWVudGl0eS0yPSJVQzI3IiBkYXRhLXNvdXJjZS1saW5lPSI5NCIgZGF0YS11aWQ9ImxuazcxIiBpZD0ibGlua19QX1VDMjciPjxwYXRoIGQ9Ik00Ny43NCwxMzkxLjc2IEM1My42NCwxMjkxLjU2IDcwLjA5LDEwMTEuMDkgODMsNzc3LjYgQzk2Ljg5LDUyNi41MiA5My41NCw0NjMuMzEgMTEzLDIxMi42IEMxMTYuMDQsMTczLjQgOTIuODIsMTUwLjk1IDEyMiwxMjQuNiBDMjUzLjM1LDYgNDgyLjg0NDQsMTgwLjE1NjQgNTQ3Ljc3NDQsMjM0LjA4NjQiIGZpbGw9Im5vbmUiIGlkPSJQLXRvLVVDMjciIHN0eWxlPSJzdHJva2U6IzE4MTgxODtzdHJva2Utd2lkdGg6MTsiLz48cG9seWdvbiBmaWxsPSIjMTgxODE4IiBwb2ludHM9IjU1Mi4zOSwyMzcuOTIsNTQ4LjAyMjQsMjI5LjA5MjUsNTQ4LjU0MzcsMjM0LjcyNTMsNTQyLjkxMDksMjM1LjI0NjYsNTUyLjM5LDIzNy45MiIgc3R5bGU9InN0cm9rZTojMTgxODE4O3N0cm9rZS13aWR0aDoxOyIvPjwvZz48IS0tbGluayBQIHRvIFVDMjgtLT48ZyBjbGFzcz0ibGluayIgZGF0YS1lbnRpdHktMT0iUCIgZGF0YS1lbnRpdHktMj0iVUMyOCIgZGF0YS1zb3VyY2UtbGluZT0iOTUiIGRhdGEtdWlkPSJsbms3MiIgaWQ9ImxpbmtfUF9VQzI4Ij48cGF0aCBkPSJNNzYuMjMsMTQxNC43MSBDOTAuMTQsMTQwOC4wOSAxMDYuODIsMTQwMC4yOSAxMjIsMTM5My42IEMxNDguOTUsMTM4MS43MyAxNzMuOTA2LDEzNzEuNDA1MyAxOTguMjE2LDEzNjEuNTk1MyIgZmlsbD0ibm9uZSIgaWQ9IlAtdG8tVUMyOCIgc3R5bGU9InN0cm9rZTojMTgxODE4O3N0cm9rZS13aWR0aDoxOyIvPjxwb2x5Z29uIGZpbGw9IiMxODE4MTgiIHBvaW50cz0iMjAzLjc4LDEzNTkuMzUsMTkzLjkzNzEsMTM1OS4wMDg2LDE5OS4xNDMzLDEzNjEuMjIxMSwxOTYuOTMwOCwxMzY2LjQyNzMsMjAzLjc4LDEzNTkuMzUiIHN0eWxlPSJzdHJva2U6IzE4MTgxODtzdHJva2Utd2lkdGg6MTsiLz48L2c+PCEtLWxpbmsgUCB0byBVQzI5LS0+PGcgY2xhc3M9ImxpbmsiIGRhdGEtZW50aXR5LTE9IlAiIGRhdGEtZW50aXR5LTI9IlVDMjkiIGRhdGEtc291cmNlLWxpbmU9Ijk2IiBkYXRhLXVpZD0ibG5rNzMiIGlkPSJsaW5rX1BfVUMyOSI+PHBhdGggZD0iTTQ1LjA0LDEzOTIuMDYgQzQ2LjQyLDEzMzMuMzkgNTcuOSwxMjIwLjAyIDEyMiwxMTU1LjYgQzEzNi43NCwxMTQwLjc5IDE1MS4yOTMsMTEzMy40Nzk2IDE3MS4zNzMsMTEyOC4yNTk2IiBmaWxsPSJub25lIiBpZD0iUC10by1VQzI5IiBzdHlsZT0ic3Ryb2tlOiMxODE4MTg7c3Ryb2tlLXdpZHRoOjE7Ii8+PHBvbHlnb24gZmlsbD0iIzE4MTgxOCIgcG9pbnRzPSIxNzcuMTgsMTEyNi43NSwxNjcuNDYzMSwxMTI1LjE0MzEsMTcyLjM0MDgsMTEyOC4wMDgsMTY5LjQ3NTksMTEzMi44ODU3LDE3Ny4xOCwxMTI2Ljc1IiBzdHlsZT0ic3Ryb2tlOiMxODE4MTg7c3Ryb2tlLXdpZHRoOjE7Ii8+PC9nPjwhLS1saW5rIFAgdG8gVUMzMC0tPjxnIGNsYXNzPSJsaW5rIiBkYXRhLWVudGl0eS0xPSJQIiBkYXRhLWVudGl0eS0yPSJVQzMwIiBkYXRhLXNvdXJjZS1saW5lPSI5NyIgZGF0YS11aWQ9Imxuazc0IiBpZD0ibGlua19QX1VDMzAiPjxwYXRoIGQ9Ik00NS4yOSwxNDY3LjM5IEM0NC43NSwxNjQxLjcyIDQ3LjA1LDIzNjIuNCAxMjIsMjQyNC42IEMzMTEuNTQsMjU4MS45MSA0NjguMjcsMjQ3My43NSA2NjgsMjMyOS42IEM3NjYuODEsMjI1OC4yOSA4MzAuNDQzNCwyMTI1LjI1NDkgODUwLjYwMzQsMjA3OC43NTQ5IiBmaWxsPSJub25lIiBpZD0iUC10by1VQzMwIiBzdHlsZT0ic3Ryb2tlOiMxODE4MTg7c3Ryb2tlLXdpZHRoOjE7Ii8+PHBvbHlnb24gZmlsbD0iIzE4MTgxOCIgcG9pbnRzPSI4NTIuOTksMjA3My4yNSw4NDUuNzQwMSwyMDc5LjkxNjMsODUxLjAwMTEsMjA3Ny44Mzc0LDg1My4wOCwyMDgzLjA5ODQsODUyLjk5LDIwNzMuMjUiIHN0eWxlPSJzdHJva2U6IzE4MTgxODtzdHJva2Utd2lkdGg6MTsiLz48L2c+PCEtLWxpbmsgUCB0byBVQzMxLS0+PGcgY2xhc3M9ImxpbmsiIGRhdGEtZW50aXR5LTE9IlAiIGRhdGEtZW50aXR5LTI9IlVDMzEiIGRhdGEtc291cmNlLWxpbmU9Ijk4IiBkYXRhLXVpZD0ibG5rNzUiIGlkPSJsaW5rX1BfVUMzMSI+PHBhdGggZD0iTTQ5LjgxLDEzOTEuOTYgQzU2Ljk0LDEzNDcuMDIgNzUuNDEsMTI3Mi41NyAxMjIsMTIyOS42IEMxMzYuNjMsMTIxNi4xIDE1MC4xNjE5LDEyMDkuMTYxOSAxNjkuMjYxOSwxMjAzLjY5MTkiIGZpbGw9Im5vbmUiIGlkPSJQLXRvLVVDMzEiIHN0eWxlPSJzdHJva2U6IzE4MTgxODtzdHJva2Utd2lkdGg6MTsiLz48cG9seWdvbiBmaWxsPSIjMTgxODE4IiBwb2ludHM9IjE3NS4wMywxMjAyLjA0LDE2NS4yNzY1LDEyMDAuNjcyNSwxNzAuMjIzMiwxMjAzLjQxNjYsMTY3LjQ3OTEsMTIwOC4zNjMzLDE3NS4wMywxMjAyLjA0IiBzdHlsZT0ic3Ryb2tlOiMxODE4MTg7c3Ryb2tlLXdpZHRoOjE7Ii8+PC9nPjwhLS1saW5rIFAgdG8gVUMzMi0tPjxnIGNsYXNzPSJsaW5rIiBkYXRhLWVudGl0eS0xPSJQIiBkYXRhLWVudGl0eS0yPSJVQzMyIiBkYXRhLXNvdXJjZS1saW5lPSI5OSIgZGF0YS11aWQ9Imxuazc2IiBpZD0ibGlua19QX1VDMzIiPjxwYXRoIGQ9Ik00Ni4xMiwxNDY3LjEzIEM0OS4wNCwxNjIwLjE5IDYzLjc5LDIxOTEuNjQgMTIyLDIyNDQuNiBDMjI4LjM1LDIzNDEuMzUgMzU3Ljk3LDIzMjAuNTMgNDQzLDIyMDQuNiBDNDc3LjkyLDIxNTYuOTkgNDU3LjA5LDE5OTcuNDYgNDczLDE5NDAuNiBDNDkzLjQ2LDE4NjcuNDggNTMzLjcwODIsMTc5Mi45NjUxIDU1NC42NDgyLDE3NTYuNzI1MSIgZmlsbD0ibm9uZSIgaWQ9IlAtdG8tVUMzMiIgc3R5bGU9InN0cm9rZTojMTgxODE4O3N0cm9rZS13aWR0aDoxOyIvPjxwb2x5Z29uIGZpbGw9IiMxODE4MTgiIHBvaW50cz0iNTU3LjY1LDE3NTEuNTMsNTQ5LjY4MzksMTc1Ny4zMjE1LDU1NS4xNDg1LDE3NTUuODU5Myw1NTYuNjEwNywxNzYxLjMyMzksNTU3LjY1LDE3NTEuNTMiIHN0eWxlPSJzdHJva2U6IzE4MTgxODtzdHJva2Utd2lkdGg6MTsiLz48L2c+PCEtLWxpbmsgUCB0byBVQzMzLS0+PGcgY2xhc3M9ImxpbmsiIGRhdGEtZW50aXR5LTE9IlAiIGRhdGEtZW50aXR5LTI9IlVDMzMiIGRhdGEtc291cmNlLWxpbmU9IjEwMCIgZGF0YS11aWQ9Imxuazc3IiBpZD0ibGlua19QX1VDMzMiPjxwYXRoIGQ9Ik01OS41OCwxMzkxLjgyIEM3MS45NCwxMzYzLjYyIDkyLjU3LDEzMjYuMiAxMjIsMTMwMy42IEMxMzguMzMsMTI5MS4wNiAxNTMuMDM5NSwxMjg0LjM2OCAxNzIuNzM5NSwxMjc4Ljg4OCIgZmlsbD0ibm9uZSIgaWQ9IlAtdG8tVUMzMyIgc3R5bGU9InN0cm9rZTojMTgxODE4O3N0cm9rZS13aWR0aDoxOyIvPjxwb2x5Z29uIGZpbGw9IiMxODE4MTgiIHBvaW50cz0iMTc4LjUyLDEyNzcuMjgsMTY4Ljc3NzIsMTI3NS44MzgzLDE3My43MDI5LDEyNzguNjIsMTcwLjkyMTIsMTI4My41NDU3LDE3OC41MiwxMjc3LjI4IiBzdHlsZT0ic3Ryb2tlOiMxODE4MTg7c3Ryb2tlLXdpZHRoOjE7Ii8+PC9nPjwhLS1saW5rIEEgdG8gVUMzNC0tPjxnIGNsYXNzPSJsaW5rIiBkYXRhLWVudGl0eS0xPSJBIiBkYXRhLWVudGl0eS0yPSJVQzM0IiBkYXRhLXNvdXJjZS1saW5lPSIxMDIiIGRhdGEtdWlkPSJsbms3OCIgaWQ9ImxpbmtfQV9VQzM0Ij48cGF0aCBkPSJNNjIuMTEsMTM2LjkxIEM5OC4zOCwxNTkuNDIgMTc5LjU5MjcsMjA5LjgyNDkgMjIwLjc3MjcsMjM1LjM5NDkiIGZpbGw9Im5vbmUiIGlkPSJBLXRvLVVDMzQiIHN0eWxlPSJzdHJva2U6IzE4MTgxODtzdHJva2Utd2lkdGg6MTsiLz48cG9seWdvbiBmaWxsPSIjMTgxODE4IiBwb2ludHM9IjIyNS44NywyMzguNTYsMjIwLjMzNDEsMjMwLjQxNDIsMjIxLjYyMjMsMjM1LjkyMjQsMjE2LjExNCwyMzcuMjEwNiwyMjUuODcsMjM4LjU2IiBzdHlsZT0ic3Ryb2tlOiMxODE4MTg7c3Ryb2tlLXdpZHRoOjE7Ii8+PC9nPjwhLS1saW5rIEEgdG8gVUMzNS0tPjxnIGNsYXNzPSJsaW5rIiBkYXRhLWVudGl0eS0xPSJBIiBkYXRhLWVudGl0eS0yPSJVQzM1IiBkYXRhLXNvdXJjZS1saW5lPSIxMDMiIGRhdGEtdWlkPSJsbms3OSIgaWQ9ImxpbmtfQV9VQzM1Ij48cGF0aCBkPSJNNTQsMTY0LjIyIEM2NC4xMSwyMDAuMzUgODQuNTUsMjUzLjg1IDEyMiwyODQuNiBDMTQwLjc3LDMwMC4wMSAxNjAuMDU4OCwzMDcuMTcyOCAxODMuMDA4OCwzMTEuNjAyOCIgZmlsbD0ibm9uZSIgaWQ9IkEtdG8tVUMzNSIgc3R5bGU9InN0cm9rZTojMTgxODE4O3N0cm9rZS13aWR0aDoxOyIvPjxwb2x5Z29uIGZpbGw9IiMxODE4MTgiIHBvaW50cz0iMTg4LjksMzEyLjc0LDE4MC44MjEyLDMwNy4xMDY3LDE4My45OTA2LDMxMS43OTI0LDE3OS4zMDUsMzE0Ljk2MTcsMTg4LjksMzEyLjc0IiBzdHlsZT0ic3Ryb2tlOiMxODE4MTg7c3Ryb2tlLXdpZHRoOjE7Ii8+PC9nPjwhLS1saW5rIE8gdG8gVUMzNi0tPjxnIGNsYXNzPSJsaW5rIiBkYXRhLWVudGl0eS0xPSJPIiBkYXRhLWVudGl0eS0yPSJVQzM2IiBkYXRhLXNvdXJjZS1saW5lPSIxMDUiIGRhdGEtdWlkPSJsbms4MCIgaWQ9ImxpbmtfT19VQzM2Ij48cGF0aCBkPSJNNzIuODgsMzg4LjYgQzk0Ljk2LDM4OC42IDEyMS4zMiwzODguNiAxNTIuMjcsMzg4LjYiIGZpbGw9Im5vbmUiIGlkPSJPLXRvLVVDMzYiIHN0eWxlPSJzdHJva2U6IzE4MTgxODtzdHJva2Utd2lkdGg6MTsiLz48cG9seWdvbiBmaWxsPSIjMTgxODE4IiBwb2ludHM9IjE1OC4yNywzODguNiwxNDkuMjcsMzg0LjYsMTUzLjI3LDM4OC42LDE0OS4yNywzOTIuNiwxNTguMjcsMzg4LjYiIHN0eWxlPSJzdHJva2U6IzE4MTgxODtzdHJva2Utd2lkdGg6MTsiLz48L2c+PCEtLWxpbmsgQiB0byBVQzgtLT48ZyBjbGFzcz0ibGluayIgZGF0YS1lbnRpdHktMT0iQiIgZGF0YS1lbnRpdHktMj0iVUM4IiBkYXRhLXNvdXJjZS1saW5lPSIxMDgiIGRhdGEtdWlkPSJsbms4MSIgaWQ9ImxpbmtfQl9VQzgiPjxwYXRoIGQ9Ik00OS4xNiwyNDI3LjEyIEM1NS4yNSwyNDY5LjQ4IDcxLjI3LDI1MzcuOCAxMTMsMjU3OC42IEMxNTguMzcsMjYyMi45NyAxODUuMDQsMjYyMy42IDI0OC41LDI2MjMuNiBDMjQ4LjUsMjYyMy42IDI0OC41LDI2MjMuNiA4NjEuNSwyNjIzLjYgQzkzNi4wMSwyNjIzLjYgOTcyLjg3LDI2MzMuNzMgMTAyMywyNTc4LjYgQzEwOTMuMTksMjUwMS40MiAxMTExLjgxMDQsMjE1Ni43NDQ0IDExMTUuMTUwNCwyMDc5LjYyNDQiIGZpbGw9Im5vbmUiIGlkPSJCLXRvLVVDOCIgc3R5bGU9InN0cm9rZTojMTgxODE4O3N0cm9rZS13aWR0aDoxOyIvPjxwb2x5Z29uIGZpbGw9IiMxODE4MTgiIHBvaW50cz0iMTExNS40MSwyMDczLjYzLDExMTEuMDI0MywyMDgyLjQ0ODUsMTExNS4xOTM3LDIwNzguNjI1MywxMTE5LjAxNjgsMjA4Mi43OTQ2LDExMTUuNDEsMjA3My42MyIgc3R5bGU9InN0cm9rZTojMTgxODE4O3N0cm9rZS13aWR0aDoxOyIvPjwvZz48IS0tbGluayBCIHRvIFVDNi0tPjxnIGNsYXNzPSJsaW5rIiBkYXRhLWVudGl0eS0xPSJCIiBkYXRhLWVudGl0eS0yPSJVQzYiIGRhdGEtc291cmNlLWxpbmU9IjEwOSIgZGF0YS11aWQ9ImxuazgyIiBpZD0ibGlua19CX1VDNiI+PHBhdGggZD0iTTY4LjU5LDIzNTEuODQgQzExMi45NiwyMjc5LjI3IDIwNS4zMzAxLDIxMjguMjA5IDIzNS44MTAxLDIwNzguMzU5IiBmaWxsPSJub25lIiBpZD0iQi10by1VQzYiIHN0eWxlPSJzdHJva2U6IzE4MTgxODtzdHJva2Utd2lkdGg6MTsiLz48cG9seWdvbiBmaWxsPSIjMTgxODE4IiBwb2ludHM9IjIzOC45NCwyMDczLjI0LDIzMC44MzI1LDIwNzguODMxOCwyMzYuMzMxNywyMDc3LjUwNTgsMjM3LjY1NzgsMjA4My4wMDUsMjM4Ljk0LDIwNzMuMjQiIHN0eWxlPSJzdHJva2U6IzE4MTgxODtzdHJva2Utd2lkdGg6MTsiLz48L2c+PCEtLWxpbmsgTSB0byBVQzExLS0+PGcgY2xhc3M9ImxpbmsiIGRhdGEtZW50aXR5LTE9Ik0iIGRhdGEtZW50aXR5LTI9IlVDMTEiIGRhdGEtc291cmNlLWxpbmU9IjExMCIgZGF0YS11aWQ9ImxuazgzIiBpZD0ibGlua19NX1VDMTEiPjxwYXRoIGQ9Ik03Ni4wNCw1NDMuMDUgQzg5LjUsNTUzLjMxIDEwNS44OSw1NjQuNTkgMTIyLDU3Mi42IEMxNDIuMDcsNTgyLjU3IDE1OS40NDA3LDU4OC45Mjc2IDE4MC4zOTA3LDU5NS4wNDc2IiBmaWxsPSJub25lIiBpZD0iTS10by1VQzExIiBzdHlsZT0ic3Ryb2tlOiMxODE4MTg7c3Ryb2tlLXdpZHRoOjE7Ii8+PHBvbHlnb24gZmlsbD0iIzE4MTgxOCIgcG9pbnRzPSIxODYuMTUsNTk2LjczLDE3OC42MzI3LDU5MC4zNjY4LDE4MS4zNTA2LDU5NS4zMjgsMTc2LjM4OTQsNTk4LjA0NTksMTg2LjE1LDU5Ni43MyIgc3R5bGU9InN0cm9rZTojMTgxODE4O3N0cm9rZS13aWR0aDoxOyIvPjwvZz48IS0tbGluayBNIHRvIFVDMjItLT48ZyBjbGFzcz0ibGluayIgZGF0YS1lbnRpdHktMT0iTSIgZGF0YS1lbnRpdHktMj0iVUMyMiIgZGF0YS1zb3VyY2UtbGluZT0iMTExIiBkYXRhLXVpZD0ibG5rODQiIGlkPSJsaW5rX01fVUMyMiI+PHBhdGggZD0iTTc2LjA1LDUwOC45IEM4Ny42Miw1MDUuNjMgMTAwLjkxLDUwMS45MSAxMTMsNDk4LjYgQzE0MC43LDQ5MS4wMiAxNjUuODU4NSw0ODQuMzEwNiAxOTEuMTc4NSw0NzcuNjMwNiIgZmlsbD0ibm9uZSIgaWQ9Ik0tdG8tVUMyMiIgc3R5bGU9InN0cm9rZTojMTgxODE4O3N0cm9rZS13aWR0aDoxOyIvPjxwb2x5Z29uIGZpbGw9IiMxODE4MTgiIHBvaW50cz0iMTk2Ljk4LDQ3Ni4xLDE4Ny4yNTc0LDQ3NC41MjgyLDE5Mi4xNDU0LDQ3Ny4zNzU1LDE4OS4yOTgxLDQ4Mi4yNjM1LDE5Ni45OCw0NzYuMSIgc3R5bGU9InN0cm9rZTojMTgxODE4O3N0cm9rZS13aWR0aDoxOyIvPjwvZz48IS0tbGluayBNIHRvIFVDMjUtLT48ZyBjbGFzcz0ibGluayIgZGF0YS1lbnRpdHktMT0iTSIgZGF0YS1lbnRpdHktMj0iVUMyNSIgZGF0YS1zb3VyY2UtbGluZT0iMTEyIiBkYXRhLXVpZD0ibG5rODUiIGlkPSJsaW5rX01fVUMyNSI+PHBhdGggZD0iTTc2LjMzLDUyMC4zNCBDMTAwLjYyLDUyMi40OSAxMjkuNjUzNSw1MjUuMDU5NyAxNjEuNzczNSw1MjcuOTA5NyIgZmlsbD0ibm9uZSIgaWQ9Ik0tdG8tVUMyNSIgc3R5bGU9InN0cm9rZTojMTgxODE4O3N0cm9rZS13aWR0aDoxOyIvPjxwb2x5Z29uIGZpbGw9IiMxODE4MTgiIHBvaW50cz0iMTY3Ljc1LDUyOC40NCwxNTkuMTM4OCw1MjMuNjYwMiwxNjIuNzY5Niw1MjcuOTk4MSwxNTguNDMxNyw1MzEuNjI4OSwxNjcuNzUsNTI4LjQ0IiBzdHlsZT0ic3Ryb2tlOiMxODE4MTg7c3Ryb2tlLXdpZHRoOjE7Ii8+PC9nPjwhLS1saW5rIE90cCB0byBVQzItLT48ZyBjbGFzcz0ibGluayIgZGF0YS1lbnRpdHktMT0iT3RwIiBkYXRhLWVudGl0eS0yPSJVQzIiIGRhdGEtc291cmNlLWxpbmU9IjExMyIgZGF0YS11aWQ9Imxuazg2IiBpZD0ibGlua19PdHBfVUMyIj48cGF0aCBkPSJNODMuMjMsNzEyLjU5IEM5Mi45LDcxMC4xNyAxMDMuMzEsNzA3LjY4IDExMyw3MDUuNiBDMTQxLjg1LDY5OS40MiAxNjguNDgyNSw2OTQuNjExNiAxOTQuNDQyNSw2OTAuMjYxNiIgZmlsbD0ibm9uZSIgaWQ9Ik90cC10by1VQzIiIHN0eWxlPSJzdHJva2U6IzE4MTgxODtzdHJva2Utd2lkdGg6MTsiLz48cG9seWdvbiBmaWxsPSIjMTgxODE4IiBwb2ludHM9IjIwMC4zNiw2ODkuMjcsMTkwLjgyMjcsNjg2LjgxMjQsMTk1LjQyODgsNjkwLjA5NjMsMTkyLjE0NDgsNjk0LjcwMjQsMjAwLjM2LDY4OS4yNyIgc3R5bGU9InN0cm9rZTojMTgxODE4O3N0cm9rZS13aWR0aDoxOyIvPjwvZz48IS0tbGluayBPdHAgdG8gVUM0LS0+PGcgY2xhc3M9ImxpbmsiIGRhdGEtZW50aXR5LTE9Ik90cCIgZGF0YS1lbnRpdHktMj0iVUM0IiBkYXRhLXNvdXJjZS1saW5lPSIxMTQiIGRhdGEtdWlkPSJsbms4NyIgaWQ9ImxpbmtfT3RwX1VDNCI+PHBhdGggZD0iTTgzLjIxLDcyNy40MyBDMTExLjE4LDczMS4wMSAxNDQuMDg4Nyw3MzUuMjI3MiAxNzcuMDg4Nyw3MzkuNDU3MiIgZmlsbD0ibm9uZSIgaWQ9Ik90cC10by1VQzQiIHN0eWxlPSJzdHJva2U6IzE4MTgxODtzdHJva2Utd2lkdGg6MTsiLz48cG9seWdvbiBmaWxsPSIjMTgxODE4IiBwb2ludHM9IjE4My4wNCw3NDAuMjIsMTc0LjYyMTYsNzM1LjEwODIsMTc4LjA4MDYsNzM5LjU4NDMsMTczLjYwNDUsNzQzLjA0MzMsMTgzLjA0LDc0MC4yMiIgc3R5bGU9InN0cm9rZTojMTgxODE4O3N0cm9rZS13aWR0aDoxOyIvPjwvZz48IS0tbGluayBVQzEyIHRvIFVDOC0tPjxnIGNsYXNzPSJsaW5rIiBkYXRhLWVudGl0eS0xPSJVQzEyIiBkYXRhLWVudGl0eS0yPSJVQzgiIGRhdGEtc291cmNlLWxpbmU9IjExNyIgZGF0YS11aWQ9Imxuazg4IiBpZD0ibGlua19VQzEyX1VDOCI+PHBhdGggZD0iTTkwMy41MywxOTg5LjMxIEM5NTIuMzcsMjAwNS4yNCAxMDI2LjUyNTksMjAyOS40MTkgMTA3My4xNzU5LDIwNDQuNjM5IiBmaWxsPSJub25lIiBpZD0iVUMxMi10by1VQzgiIHN0eWxlPSJzdHJva2U6IzE4MTgxODtzdHJva2Utd2lkdGg6MTsiLz48cG9seWdvbiBmaWxsPSIjMTgxODE4IiBwb2ludHM9IjEwNzguODgsMjA0Ni41LDEwNzEuNTY0NSwyMDM5LjkwNTgsMTA3NC4xMjY2LDIwNDQuOTQ5MiwxMDY5LjA4MzIsMjA0Ny41MTEyLDEwNzguODgsMjA0Ni41IiBzdHlsZT0ic3Ryb2tlOiMxODE4MTg7c3Ryb2tlLXdpZHRoOjE7Ii8+PHRleHQgZmlsbD0iIzAwMDAwMCIgZm9udC1mYW1pbHk9InNhbnMtc2VyaWYiIGZvbnQtc2l6ZT0iMTMiIGxlbmd0aEFkanVzdD0ic3BhY2luZyIgdGV4dExlbmd0aD0iNTguNSIgeD0iOTY0IiB5PSIyMDA4Ljg4OTEiPiYjMTcxO2luY2x1ZGUmIzE4Nzs8L3RleHQ+PC9nPjwhLS1saW5rIFVDMTQgdG8gVUMxMi0tPjxnIGNsYXNzPSJsaW5rIiBkYXRhLWVudGl0eS0xPSJVQzE0IiBkYXRhLWVudGl0eS0yPSJVQzEyIiBkYXRhLXNvdXJjZS1saW5lPSIxMTgiIGRhdGEtdWlkPSJsbms4OSIgaWQ9ImxpbmtfVUMxNF9VQzEyIj48cGF0aCBkPSJNNjQ2LjA0LDE5NzUuNiBDNjg5LjcxLDE5NzUuNiA3MzguNTgsMTk3NS42IDc4MS43NiwxOTc1LjYiIGZpbGw9Im5vbmUiIGlkPSJVQzE0LXRvLVVDMTIiIHN0eWxlPSJzdHJva2U6IzE4MTgxODtzdHJva2Utd2lkdGg6MTsiLz48cG9seWdvbiBmaWxsPSIjMTgxODE4IiBwb2ludHM9Ijc4Ny43NiwxOTc1LjYsNzc4Ljc2LDE5NzEuNiw3ODIuNzYsMTk3NS42LDc3OC43NiwxOTc5LjYsNzg3Ljc2LDE5NzUuNiIgc3R5bGU9InN0cm9rZTojMTgxODE4O3N0cm9rZS13aWR0aDoxOyIvPjx0ZXh0IGZpbGw9IiMwMDAwMDAiIGZvbnQtZmFtaWx5PSJzYW5zLXNlcmlmIiBmb250LXNpemU9IjEzIiBsZW5ndGhBZGp1c3Q9InNwYWNpbmciIHRleHRMZW5ndGg9IjU4LjUiIHg9IjY5OSIgeT0iMTk3My44ODkxIj4mIzE3MTtpbmNsdWRlJiMxODc7PC90ZXh0PjwvZz48IS0tbGluayBVQzE1IHRvIFVDMTQtLT48ZyBjbGFzcz0ibGluayIgZGF0YS1lbnRpdHktMT0iVUMxNSIgZGF0YS1lbnRpdHktMj0iVUMxNCIgZGF0YS1zb3VyY2UtbGluZT0iMTE5IiBkYXRhLXVpZD0ibG5rOTAiIGlkPSJsaW5rX1VDMTVfVUMxNCI+PHBhdGggZD0iTTI5MC4yOCwxODU3LjI5IEMzMDkuNDEsMTg2My4yIDMzMi41OCwxODcwLjc3IDM1MywxODc4LjYgQzQxOS43MiwxOTA0LjIgNDkwLjA0NiwxOTM3LjA0MjkgNTMxLjkxNiwxOTU3LjI0MjkiIGZpbGw9Im5vbmUiIGlkPSJVQzE1LXRvLVVDMTQiIHN0eWxlPSJzdHJva2U6IzE4MTgxODtzdHJva2Utd2lkdGg6MTsiLz48cG9seWdvbiBmaWxsPSIjMTgxODE4IiBwb2ludHM9IjUzNy4zMiwxOTU5Ljg1LDUzMC45NTIxLDE5NTIuMzM2Nyw1MzIuODE2NywxOTU3LjY3NzQsNTI3LjQ3NiwxOTU5LjU0Miw1MzcuMzIsMTk1OS44NSIgc3R5bGU9InN0cm9rZTojMTgxODE4O3N0cm9rZS13aWR0aDoxOyIvPjx0ZXh0IGZpbGw9IiMwMDAwMDAiIGZvbnQtZmFtaWx5PSJzYW5zLXNlcmlmIiBmb250LXNpemU9IjEzIiBsZW5ndGhBZGp1c3Q9InNwYWNpbmciIHRleHRMZW5ndGg9IjU4LjUiIHg9IjM4NCIgeT0iMTg5MS44ODkxIj4mIzE3MTtpbmNsdWRlJiMxODc7PC90ZXh0PjwvZz48IS0tbGluayBVQzEzIHRvIFVDMTItLT48ZyBjbGFzcz0ibGluayIgZGF0YS1lbnRpdHktMT0iVUMxMyIgZGF0YS1lbnRpdHktMj0iVUMxMiIgZGF0YS1zb3VyY2UtbGluZT0iMTIwIiBkYXRhLXVpZD0ibG5rOTEiIGlkPSJsaW5rX1VDMTNfVUMxMiI+PHBhdGggZD0iTTYyNS4xNywzMjQuMTYgQzY0MS4yMiwzMjguNzcgNjU3LjM1LDMzNi41NCA2NjgsMzQ5LjYgQzc3NS42NCw0ODEuNjUgODQ5LjMwNjcsMTc4Ni40OTg3IDg1OC4yNTY3LDE5NTIuMzc4NyIgZmlsbD0ibm9uZSIgaWQ9IlVDMTMtdG8tVUMxMiIgc3R5bGU9InN0cm9rZTojMTgxODE4O3N0cm9rZS13aWR0aDoxOyIvPjxwb2x5Z29uIGZpbGw9IiMxODE4MTgiIHBvaW50cz0iODU4LjU4LDE5NTguMzcsODYyLjA4OTMsMTk0OS4xNjc2LDg1OC4zMTA2LDE5NTMuMzc3Myw4NTQuMTAwOSwxOTQ5LjU5ODYsODU4LjU4LDE5NTguMzciIHN0eWxlPSJzdHJva2U6IzE4MTgxODtzdHJva2Utd2lkdGg6MTsiLz48dGV4dCBmaWxsPSIjMDAwMDAwIiBmb250LWZhbWlseT0ic2Fucy1zZXJpZiIgZm9udC1zaXplPSIxMyIgbGVuZ3RoQWRqdXN0PSJzcGFjaW5nIiB0ZXh0TGVuZ3RoPSI1OC41IiB4PSI2OTkiIHk9IjQyNy44ODkxIj4mIzE3MTtpbmNsdWRlJiMxODc7PC90ZXh0PjwvZz48IS0tbGluayBVQzExIHRvIFVDMTAtLT48ZyBjbGFzcz0ibGluayIgZGF0YS1lbnRpdHktMT0iVUMxMSIgZGF0YS1lbnRpdHktMj0iVUMxMCIgZGF0YS1zb3VyY2UtbGluZT0iMTIxIiBkYXRhLXVpZD0ibG5rOTIiIGlkPSJsaW5rX1VDMTFfVUMxMCI+PHBhdGggZD0iTTMyMS40OSw2MjQuMjkgQzM2MC4wMSw2MjcuNSA0MDYuOTgsNjI1LjE2IDQ0Myw2MDMuNiBDNTE1Ljc3LDU2MC4wNiA1NDkuNzU1Myw0NjMuMDYxNCA1NjIuMzY1Myw0MTcuNjMxNCIgZmlsbD0ibm9uZSIgaWQ9IlVDMTEtdG8tVUMxMCIgc3R5bGU9InN0cm9rZTojMTgxODE4O3N0cm9rZS13aWR0aDoxOyIvPjxwb2x5Z29uIGZpbGw9IiMxODE4MTgiIHBvaW50cz0iNTYzLjk3LDQxMS44NSw1NTcuNzA4Niw0MTkuNDUyMyw1NjIuNjMyNyw0MTYuNjY3OCw1NjUuNDE3Miw0MjEuNTkyLDU2My45Nyw0MTEuODUiIHN0eWxlPSJzdHJva2U6IzE4MTgxODtzdHJva2Utd2lkdGg6MTsiLz48dGV4dCBmaWxsPSIjMDAwMDAwIiBmb250LWZhbWlseT0ic2Fucy1zZXJpZiIgZm9udC1zaXplPSIxMyIgbGVuZ3RoQWRqdXN0PSJzcGFjaW5nIiB0ZXh0TGVuZ3RoPSI1OC41IiB4PSIzODQiIHk9IjYwMS44ODkxIj4mIzE3MTtpbmNsdWRlJiMxODc7PC90ZXh0PjwvZz48IS0tbGluayBVQzI1IHRvIFVDMjQtLT48ZyBjbGFzcz0ibGluayIgZGF0YS1lbnRpdHktMT0iVUMyNSIgZGF0YS1lbnRpdHktMj0iVUMyNCIgZGF0YS1zb3VyY2UtbGluZT0iMTIyIiBkYXRhLXVpZD0ibG5rOTMiIGlkPSJsaW5rX1VDMjVfVUMyNCI+PHBhdGggZD0iTTMzNS4zOCw1MzkuOTcgQzM3Mi4yNSw1NDUuODggNDEzLjY0LDU1OC40NiA0NDMsNTg0LjYgQzU0MC44Niw2NzEuNzQgNTYyLjkyNTksODM3LjA0MjkgNTY3Ljc1NTksODkyLjEyMjkiIGZpbGw9Im5vbmUiIGlkPSJVQzI1LXRvLVVDMjQiIHN0eWxlPSJzdHJva2U6IzE4MTgxODtzdHJva2Utd2lkdGg6MTsiLz48cG9seWdvbiBmaWxsPSIjMTgxODE4IiBwb2ludHM9IjU2OC4yOCw4OTguMSw1NzEuNDc4NSw4ODguNzg1LDU2Ny44NDMyLDg5My4xMTkxLDU2My41MDkxLDg4OS40ODM4LDU2OC4yOCw4OTguMSIgc3R5bGU9InN0cm9rZTojMTgxODE4O3N0cm9rZS13aWR0aDoxOyIvPjx0ZXh0IGZpbGw9IiMwMDAwMDAiIGZvbnQtZmFtaWx5PSJzYW5zLXNlcmlmIiBmb250LXNpemU9IjEzIiBsZW5ndGhBZGp1c3Q9InNwYWNpbmciIHRleHRMZW5ndGg9IjUyIiB4PSIzODciIHk9IjU1MS44ODkxIj4mIzE3MTtleHRlbmQmIzE4Nzs8L3RleHQ+PC9nPjwhLS1saW5rIFVDMjAgdG8gVUMxNy0tPjxnIGNsYXNzPSJsaW5rIiBkYXRhLWVudGl0eS0xPSJVQzIwIiBkYXRhLWVudGl0eS0yPSJVQzE3IiBkYXRhLXNvdXJjZS1saW5lPSIxMjMiIGRhdGEtdWlkPSJsbms5NCIgaWQ9ImxpbmtfVUMyMF9VQzE3Ij48cGF0aCBkPSJNMzAwLjA4LDkwMS43NCBDMzE4LjMyLDkwNi4zOCAzMzguMTMsOTE0LjAyIDM1Myw5MjYuNiBDNDkzLjg4LDEwNDUuNzYgNTUxLjkzMjMsMTI3My41MDIgNTY1LjIxMjMsMTMzMy40NTIiIGZpbGw9Im5vbmUiIGlkPSJVQzIwLXRvLVVDMTciIHN0eWxlPSJzdHJva2U6IzE4MTgxODtzdHJva2Utd2lkdGg6MTsiLz48cG9seWdvbiBmaWxsPSIjMTgxODE4IiBwb2ludHM9IjU2Ni41MSwxMzM5LjMxLDU2OC40Njg5LDEzMjkuNjU3OSw1NjUuNDI4NiwxMzM0LjQyODMsNTYwLjY1ODIsMTMzMS4zODgxLDU2Ni41MSwxMzM5LjMxIiBzdHlsZT0ic3Ryb2tlOiMxODE4MTg7c3Ryb2tlLXdpZHRoOjE7Ii8+PHRleHQgZmlsbD0iIzAwMDAwMCIgZm9udC1mYW1pbHk9InNhbnMtc2VyaWYiIGZvbnQtc2l6ZT0iMTMiIGxlbmd0aEFkanVzdD0ic3BhY2luZyIgdGV4dExlbmd0aD0iNTguNSIgeD0iMzg0IiB5PSI5NjAuODg5MSI+JiMxNzE7aW5jbHVkZSYjMTg3OzwvdGV4dD48L2c+PCEtLWxpbmsgVUMzMyB0byBVQzMyLS0+PGcgY2xhc3M9ImxpbmsiIGRhdGEtZW50aXR5LTE9IlVDMzMiIGRhdGEtZW50aXR5LTI9IlVDMzIiIGRhdGEtc291cmNlLWxpbmU9IjEyNCIgZGF0YS11aWQ9Imxuazk1IiBpZD0ibGlua19VQzMzX1VDMzIiPjxwYXRoIGQ9Ik0zMTEuMDIsMTI4MCBDMzI1Ljk3LDEyODUuNDcgMzQxLjEsMTI5My4wNyAzNTMsMTMwMy42IEM0ODcuMDcsMTQyMi4yNSA1NDcuMjQ4NywxNjM3LjY1NTkgNTYzLjUzODcsMTcwNS40NzU5IiBmaWxsPSJub25lIiBpZD0iVUMzMy10by1VQzMyIiBzdHlsZT0ic3Ryb2tlOiMxODE4MTg7c3Ryb2tlLXdpZHRoOjE7Ii8+PHBvbHlnb24gZmlsbD0iIzE4MTgxOCIgcG9pbnRzPSI1NjQuOTQsMTcxMS4zMSw1NjYuNzI3NCwxNzAxLjYyNDcsNTYzLjc3MjIsMTcwNi40NDgzLDU1OC45NDg3LDE3MDMuNDkzMSw1NjQuOTQsMTcxMS4zMSIgc3R5bGU9InN0cm9rZTojMTgxODE4O3N0cm9rZS13aWR0aDoxOyIvPjx0ZXh0IGZpbGw9IiMwMDAwMDAiIGZvbnQtZmFtaWx5PSJzYW5zLXNlcmlmIiBmb250LXNpemU9IjEzIiBsZW5ndGhBZGp1c3Q9InNwYWNpbmciIHRleHRMZW5ndGg9IjU4LjUiIHg9IjM4NCIgeT0iMTMzOC44ODkxIj4mIzE3MTtpbmNsdWRlJiMxODc7PC90ZXh0PjwvZz48IS0tbGluayBVQzI3IHRvIFVDMTAtLT48ZyBjbGFzcz0ibGluayIgZGF0YS1lbnRpdHktMT0iVUMyNyIgZGF0YS1lbnRpdHktMj0iVUMxMCIgZGF0YS1zb3VyY2UtbGluZT0iMTI2IiBkYXRhLXVpZD0ibG5rOTYiIGlkPSJsaW5rX1VDMjdfVUMxMCI+PHBhdGggZD0iTTUyNC43NiwyNDIuMDkgQzQ4OC41NywyMzYuNzcgNDM5LjY2LDIzNi43OSA0MTIsMjY3LjEgQzM3Mi41LDMxMC4zOCA0NDguMDIxNCwzNDcuNzA5MSA1MDguMTIxNCwzNjkuNTY5MSIgZmlsbD0ibm9uZSIgaWQ9IlVDMjctdG8tVUMxMCIgc3R5bGU9InN0cm9rZTojMTgxODE4O3N0cm9rZS13aWR0aDoxO3N0cm9rZS1kYXNoYXJyYXk6Ny4wLDcuMDsiLz48cG9seWdvbiBmaWxsPSIjMTgxODE4IiBwb2ludHM9IjUxMy43NiwzNzEuNjIsNTA2LjY2OTQsMzY0Ljc4NDYsNTA5LjA2MTIsMzY5LjkxMDksNTAzLjkzNDgsMzcyLjMwMjcsNTEzLjc2LDM3MS42MiIgc3R5bGU9InN0cm9rZTojMTgxODE4O3N0cm9rZS13aWR0aDoxOyIvPjx0ZXh0IGZpbGw9IiMwMDAwMDAiIGZvbnQtZmFtaWx5PSJzYW5zLXNlcmlmIiBmb250LXNpemU9IjEzIiBsZW5ndGhBZGp1c3Q9InNwYWNpbmciIHRleHRMZW5ndGg9IjUyIiB4PSIzODciIHk9IjI4MC4zODkxIj4mIzE3MTtleHRlbmQmIzE4Nzs8L3RleHQ+PC9nPjwhLS1saW5rIFVDMjggdG8gVUMyMy0tPjxnIGNsYXNzPSJsaW5rIiBkYXRhLWVudGl0eS0xPSJVQzI4IiBkYXRhLWVudGl0eS0yPSJVQzIzIiBkYXRhLXNvdXJjZS1saW5lPSIxMjciIGRhdGEtdWlkPSJsbms5NyIgaWQ9ImxpbmtfVUMyOF9VQzIzIj48cGF0aCBkPSJNMjQ5LjUsMTM2Mi4yOCBDMjQ5LjUsMTM3Ny4xNyAyNDkuNSwxMzkxLjA3IDI0OS41LDE0MDUuMzciIGZpbGw9Im5vbmUiIGlkPSJVQzI4LXRvLVVDMjMiIHN0eWxlPSJzdHJva2U6IzE4MTgxODtzdHJva2Utd2lkdGg6MTtzdHJva2UtZGFzaGFycmF5OjcuMCw3LjA7Ii8+PHBvbHlnb24gZmlsbD0iIzE4MTgxOCIgcG9pbnRzPSIyNDkuNSwxNDExLjM3LDI1My41LDE0MDIuMzcsMjQ5LjUsMTQwNi4zNywyNDUuNSwxNDAyLjM3LDI0OS41LDE0MTEuMzciIHN0eWxlPSJzdHJva2U6IzE4MTgxODtzdHJva2Utd2lkdGg6MTsiLz48dGV4dCBmaWxsPSIjMDAwMDAwIiBmb250LWZhbWlseT0ic2Fucy1zZXJpZiIgZm9udC1zaXplPSIxMyIgbGVuZ3RoQWRqdXN0PSJzcGFjaW5nIiB0ZXh0TGVuZ3RoPSI1MiIgeD0iMjEzIiB5PSIxMzkyLjYzOTEiPiYjMTcxO2V4dGVuZCYjMTg3OzwvdGV4dD48L2c+PCEtLWxpbmsgVUMzMCB0byBVQzEyLS0+PGcgY2xhc3M9ImxpbmsiIGRhdGEtZW50aXR5LTE9IlVDMzAiIGRhdGEtZW50aXR5LTI9IlVDMTIiIGRhdGEtc291cmNlLWxpbmU9IjEyOCIgZGF0YS11aWQ9Imxuazk4IiBpZD0ibGlua19VQzMwX1VDMTIiPjxwYXRoIGQ9Ik04NjAuNSwyMDQxLjc5IEM4NjAuNSwyMDI3Ljc0IDg2MC41LDIwMTMuMjMgODYwLjUsMTk5OC43OCIgZmlsbD0ibm9uZSIgaWQ9IlVDMzAtdG8tVUMxMiIgc3R5bGU9InN0cm9rZTojMTgxODE4O3N0cm9rZS13aWR0aDoxO3N0cm9rZS1kYXNoYXJyYXk6Ny4wLDcuMDsiLz48cG9seWdvbiBmaWxsPSIjMTgxODE4IiBwb2ludHM9Ijg2MC41LDE5OTIuNzgsODU2LjUsMjAwMS43OCw4NjAuNSwxOTk3Ljc4LDg2NC41LDIwMDEuNzgsODYwLjUsMTk5Mi43OCIgc3R5bGU9InN0cm9rZTojMTgxODE4O3N0cm9rZS13aWR0aDoxOyIvPjx0ZXh0IGZpbGw9IiMwMDAwMDAiIGZvbnQtZmFtaWx5PSJzYW5zLXNlcmlmIiBmb250LXNpemU9IjEzIiBsZW5ndGhBZGp1c3Q9InNwYWNpbmciIHRleHRMZW5ndGg9IjUyIiB4PSI4MjQiIHk9IjIwMjMuMTM5MSI+JiMxNzE7ZXh0ZW5kJiMxODc7PC90ZXh0PjwvZz48IS0tU1JDPVtWTFBEUi1DczRCdHhMbW5vczZ1RndMZ0tkT3pZNEszRVJqODV1YVFEdWxSQ0k2RTdpNEdBNUVNaktWSV9idkg0VE1XUFV3RnU3Y1NVdm10N0JkNWhtMlpHT2xUa2UxMFFTb0VLZDNMeDhNa2tVR0tycF9UeVh2YXZiV1dFdmQ5TnVjcDZTd0NxTkFJeVFMM2tLNXkwUm8zcnNxYkgyVGJqOU54aGtLUkR4UWhSVlZReEFveHRhMXFSV3JLN2gzb21IZ0NMOUVjdFJkaXpIZGJEOEtEejQzZHNXS216Y3Vzb19CNXhMVExTc2VqMEtqU055Q3ppMWwwSlIxaEthRUl2UWdNMURQVnNNWExBT3g2c21QbXR6bFl6SGN4R2F4ZUNjX2s4Q2x2NEJSUDdpM2U2YjU3cUlVczZVc19rT21neU9BdUVEaHNocnRVYll1NnBlOW5ETlJaYWdMUFJLVUIwTUZSUV8tOWJZR1F1QjZvOHV3ZGlMckxWUmtnMUQxb3kyYkdCX0V2Wmg3WjlQVXhaTnJGUWNrX0hubl9tY3FjTzBPVlZINkNqRUd3eXNyeGRneVp0QmVUSWplRHN6Nm82ZlJLOU5iSGh4eFlyTmxQS04tRnY5Q3kzcnpYVC0waVFCaWg2Q21DeHFiUmR4c3VMSFdqQ29WWlg1OHp4ak4teXM1T2ZhOThWS1JlLUhPX3Y0dWs5bFhGMkNZM21LWEgzNTZ4V3FJdXp4d2ZGdFRTWGpMUjhhcUF2bEh4c0h3dWRrVmxKcHhMeGg2RFhSaTlvU3JpUFU1OHZUb0d1MjB3RlFVUXZqdkMycU9uaVZndnZkQUZtblJmRXNlVDVtdE1HYnZVbGVhQmVreFlYMEh4R0UyZDJQaWFDRHdyTnBEV2FKS1NRR2RYTTdGZlpSNEVLXzBYOVlUZ0NmQ0tmQUlhRFFrYXl3NnVzNFdFVmlsUWpvUkx1R3BTNGR1SVN2MXhTaVdDMWNxUXlZTEFPT28xUXNLYTRZU0tRdHJtaWkybEJEUTlxeklkaXl5X1FrYlB3UDhRRVlRZ3M4LW50VlgyeHBaRkYyaG5Bc2E4ZURvRWdVaG55RkV6TEZsMjNxaUFneHZ4RHkzdWRIZGpNdTdXU0pRbU90bDM5RXV6UEVEUlVCMGtzTGl1ZlJ0WFl0SV8xOXBfeW1zN1o5ZDB0YlNVQko1X1AyeGcyWk9KYmNPN1AtbWlWa2VhbkNscXhpeHRJbFA5dEtKVm1DVE1ZdWplc1pfaXZRTndzYjFHa0ItIC02QVVfTlpBblppYndHelBBaWh5WndjZ25sb0ZnTXZmaEozdmV2ZWdhWmNaa1lvSUVRRlFCZjh2ZV9lVzhZZ2UxSDFJb3VFck4wZzA5NjVKMmdXNTQ1WjJmV0wwNloyY0FnOEFPQXVnM3lOSHliX2NqMUZ4aFZuY1ZfVFR4bXBGeG1vWUFxVjROaU1INEJyeklIRFF0N2NqeFFfa1NXVlZCX3J3OE55NHRjUExsV2Z3el82dkk1dE5Bay1lcG1BdHAtQjdoNnRMcUZCYVJscHc3QnFWenBRRnAzaXo3T1JzVEdqWG56eEwzaXo3Zm1GbFJKY1FEbkY1ZnJXbFE3aC00TmFaT0NWRERaQjl2WXlObXVucUJpdF95MF0tLT48L2c+PC9zdmc+;" vertex="1" parent="1">
            <mxGeometry x="-451" y="-1155" width="1203" height="2640" as="geometry" />
          </mxCell>
        </UserObject>
        <UserObject label="" plantUmlData="{&#xa;  &quot;data&quot;: &quot;@startuml\nskinparam classAttributeIconSize 0\n\nclass User {\n  - userID: String\n  - name: String\n  - email: String\n  - phone: String\n  - password: String\n  - userType: String\n  + createAccount()\n  + login()\n  + updateProfile()\n}\n\nclass Wallet {\n  - walletID: String\n  - balance: double\n  + topUp(amount: double)\n  + getBalance()\n  + viewTransactions()\n}\n\nclass Payment {\n  - paymentID: String\n  - amount: double\n  - method: String\n  - status: String\n  - timestamp: DateTime\n  + processPayment()\n  + confirmPayment()\n}\n\nclass Ticket {\n  - ticketID: String\n  - sourceStation: String\n  - destinationStation: String\n  - fare: double\n  - journeyDate: DateTime\n  - status: String\n  + purchaseTicket()\n  + viewTicket()\n}\n\nclass QRCode {\n  - qrID: String\n  - ticketID: String\n  - validUntil: DateTime\n  + generateCode()\n  + scanCode()\n}\n\nclass Route {\n  - routeID: String\n  - source: String\n  - destination: String\n  - totalFare: double\n  - estimatedTime: String\n  + suggestRoute()\n  + getWalkingDistance()\n}\n\nclass RealTimeUpdate {\n  - updateID: String\n  - lineName: String\n  - delayStatus: String\n  - message: String\n  - timestamp: DateTime\n  + fetchStatus()\n  + subscribeToUpdates()\n}\n\nclass Favorite {\n  - favoriteID: String\n  - userID: String\n  - routeID: String\n  + saveRoute()\n  + viewFavorites()\n}\n\nclass History {\n  - historyID: String\n  - userID: String\n  - ticketID: String\n  + viewHistory()\n  + rebookTicket()\n}\n\nUser \&quot;1\&quot; --&gt; \&quot;1\&quot; Wallet\nUser \&quot;1\&quot; --&gt; \&quot;*\&quot; Ticket\nUser \&quot;1\&quot; --&gt; \&quot;*\&quot; Payment\nUser \&quot;1\&quot; --&gt; \&quot;*\&quot; Favorite\nUser \&quot;1\&quot; --&gt; \&quot;*\&quot; History\n\nTicket \&quot;1\&quot; --&gt; \&quot;1\&quot; QRCode\nTicket \&quot;1\&quot; --&gt; \&quot;1\&quot; Route\nTicket \&quot;1\&quot; --&gt; \&quot;1\&quot; Payment\n\nRoute \&quot;1\&quot; --&gt; \&quot;*\&quot; RealTimeUpdate\n\n@enduml\n&quot;,&#xa;  &quot;format&quot;: &quot;svg&quot;&#xa;}" id="eHgLMdEdHHg-rtYAkAGY-2">
          <mxCell style="shape=image;noLabel=1;verticalAlign=top;aspect=fixed;imageAspect=0;image=data:image/svg+xml,PHN2ZyB4bWxucz0iaHR0cDovL3d3dy53My5vcmcvMjAwMC9zdmciIHhtbG5zOnhsaW5rPSJodHRwOi8vd3d3LnczLm9yZy8xOTk5L3hsaW5rIiBjb250ZW50U3R5bGVUeXBlPSJ0ZXh0L2NzcyIgZGF0YS1kaWFncmFtLXR5cGU9IkNMQVNTIiBoZWlnaHQ9Ijg1MHB4IiBwcmVzZXJ2ZUFzcGVjdFJhdGlvPSJub25lIiBzdHlsZT0id2lkdGg6ODQxcHg7aGVpZ2h0Ojg1MHB4O2JhY2tncm91bmQ6I0ZGRkZGRjsiIHZlcnNpb249IjEuMSIgdmlld0JveD0iMCAwIDg0MSA4NTAiIHdpZHRoPSI4NDFweCIgem9vbUFuZFBhbj0ibWFnbmlmeSI+PGRlZnMvPjxnPjwhLS1jbGFzcyBVc2VyLS0+PGcgY2xhc3M9ImVudGl0eSIgZGF0YS1lbnRpdHk9IlVzZXIiIGRhdGEtc291cmNlLWxpbmU9IjMiIGRhdGEtdWlkPSJlbnQwMDAyIiBpZD0iZW50aXR5X1VzZXIiPjxyZWN0IGZpbGw9IiNGMUYxRjEiIGhlaWdodD0iMTgyLjg1OTQiIHJ4PSIyLjUiIHJ5PSIyLjUiIHN0eWxlPSJzdHJva2U6IzE4MTgxODtzdHJva2Utd2lkdGg6MC41OyIgd2lkdGg9IjEzMSIgeD0iMzE0LjUiIHk9IjciLz48ZWxsaXBzZSBjeD0iMzYxLjc1IiBjeT0iMjMiIGZpbGw9IiNBREQxQjIiIHJ4PSIxMSIgcnk9IjExIiBzdHlsZT0ic3Ryb2tlOiMxODE4MTg7c3Ryb2tlLXdpZHRoOjE7Ii8+PHBhdGggZD0iTTM1OS4zNzUsMjcuMjUgTDM1OS4zNzUsMjkgTDM2NC4zMTI1LDI5IEwzNjQuMzEyNSwyNy4yNSBMMzU5LjM3NSwyNy4yNSBaIE0zNjAuMDYyNSwyNy45Mzc1IFEzNjAuMDYyNSwyNy45Mzc1IDM2MC4wNjI1LDE4Ljc1IEwzNTguMzEyNSwxOC43NSBRMzU4LjMxMjUsMTguNzUgMzU4LjMxMjUsMjcuOTM3NSBMMzYwLjA2MjUsMjcuOTM3NSBaIE0zNjMuNjI1LDI3LjkzNzUgTDM2NS4zNzUsMjcuOTM3NSBRMzY1LjM3NSwyNy45Mzc1IDM2NS4zNzUsMjUuMTI1IEwzNjMuNjI1LDI1LjEyNSBRMzYzLjYyNSwyNS4xMjUgMzYzLjYyNSwyNy45Mzc1IFogTTM2My42MjUsMTguNzUgUTM2My42MjUsMTguNzUgMzYzLjYyNSwyMS41NjI1IEwzNjUuMzc1LDIxLjU2MjUgUTM2NS4zNzUsMjEuNTYyNSAzNjUuMzc1LDE4Ljc1IEwzNjMuNjI1LDE4Ljc1IFogTTM1OS4zNzUsMTkuNDM3NSBMMzY0LjMxMjUsMTkuNDM3NSBMMzY0LjMxMjUsMTcuNjg3NSBMMzU5LjM3NSwxNy42ODc1IEwzNTkuMzc1LDE5LjQzNzUgWiAiIGZpbGw9IiMwMDAwMDAiLz48dGV4dCBmaWxsPSIjMDAwMDAwIiBmb250LWZhbWlseT0ic2Fucy1zZXJpZiIgZm9udC1zaXplPSIxNCIgbGVuZ3RoQWRqdXN0PSJzcGFjaW5nIiB0ZXh0TGVuZ3RoPSIyOCIgeD0iMzgyLjI1IiB5PSIyOC43NDIyIj5Vc2VyPC90ZXh0PjxsaW5lIHN0eWxlPSJzdHJva2U6IzE4MTgxODtzdHJva2Utd2lkdGg6MC41OyIgeDE9IjMxNS41IiB4Mj0iNDQ0LjUiIHkxPSIzOSIgeTI9IjM5Ii8+PHRleHQgZmlsbD0iIzAwMDAwMCIgZm9udC1mYW1pbHk9InNhbnMtc2VyaWYiIGZvbnQtc2l6ZT0iMTQiIGxlbmd0aEFkanVzdD0ic3BhY2luZyIgdGV4dExlbmd0aD0iMTA1IiB4PSIzMjAuNSIgeT0iNTYuMjM0NCI+LXVzZXJJRDogU3RyaW5nPC90ZXh0Pjx0ZXh0IGZpbGw9IiMwMDAwMDAiIGZvbnQtZmFtaWx5PSJzYW5zLXNlcmlmIiBmb250LXNpemU9IjE0IiBsZW5ndGhBZGp1c3Q9InNwYWNpbmciIHRleHRMZW5ndGg9IjkxIiB4PSIzMjAuNSIgeT0iNzEuMjE4OCI+LW5hbWU6IFN0cmluZzwvdGV4dD48dGV4dCBmaWxsPSIjMDAwMDAwIiBmb250LWZhbWlseT0ic2Fucy1zZXJpZiIgZm9udC1zaXplPSIxNCIgbGVuZ3RoQWRqdXN0PSJzcGFjaW5nIiB0ZXh0TGVuZ3RoPSI5OCIgeD0iMzIwLjUiIHk9Ijg2LjIwMzEiPi1lbWFpbDogU3RyaW5nPC90ZXh0Pjx0ZXh0IGZpbGw9IiMwMDAwMDAiIGZvbnQtZmFtaWx5PSJzYW5zLXNlcmlmIiBmb250LXNpemU9IjE0IiBsZW5ndGhBZGp1c3Q9InNwYWNpbmciIHRleHRMZW5ndGg9Ijk4IiB4PSIzMjAuNSIgeT0iMTAxLjE4NzUiPi1waG9uZTogU3RyaW5nPC90ZXh0Pjx0ZXh0IGZpbGw9IiMwMDAwMDAiIGZvbnQtZmFtaWx5PSJzYW5zLXNlcmlmIiBmb250LXNpemU9IjE0IiBsZW5ndGhBZGp1c3Q9InNwYWNpbmciIHRleHRMZW5ndGg9IjExOSIgeD0iMzIwLjUiIHk9IjExNi4xNzE5Ij4tcGFzc3dvcmQ6IFN0cmluZzwvdGV4dD48dGV4dCBmaWxsPSIjMDAwMDAwIiBmb250LWZhbWlseT0ic2Fucy1zZXJpZiIgZm9udC1zaXplPSIxNCIgbGVuZ3RoQWRqdXN0PSJzcGFjaW5nIiB0ZXh0TGVuZ3RoPSIxMTkiIHg9IjMyMC41IiB5PSIxMzEuMTU2MyI+LXVzZXJUeXBlOiBTdHJpbmc8L3RleHQ+PGxpbmUgc3R5bGU9InN0cm9rZTojMTgxODE4O3N0cm9rZS13aWR0aDowLjU7IiB4MT0iMzE1LjUiIHgyPSI0NDQuNSIgeTE9IjEzNi45MDYzIiB5Mj0iMTM2LjkwNjMiLz48dGV4dCBmaWxsPSIjMDAwMDAwIiBmb250LWZhbWlseT0ic2Fucy1zZXJpZiIgZm9udC1zaXplPSIxNCIgbGVuZ3RoQWRqdXN0PSJzcGFjaW5nIiB0ZXh0TGVuZ3RoPSIxMTIiIHg9IjMyMC41IiB5PSIxNTQuMTQwNiI+K2NyZWF0ZUFjY291bnQoKTwvdGV4dD48dGV4dCBmaWxsPSIjMDAwMDAwIiBmb250LWZhbWlseT0ic2Fucy1zZXJpZiIgZm9udC1zaXplPSIxNCIgbGVuZ3RoQWRqdXN0PSJzcGFjaW5nIiB0ZXh0TGVuZ3RoPSI1NiIgeD0iMzIwLjUiIHk9IjE2OS4xMjUiPitsb2dpbigpPC90ZXh0Pjx0ZXh0IGZpbGw9IiMwMDAwMDAiIGZvbnQtZmFtaWx5PSJzYW5zLXNlcmlmIiBmb250LXNpemU9IjE0IiBsZW5ndGhBZGp1c3Q9InNwYWNpbmciIHRleHRMZW5ndGg9IjExMiIgeD0iMzIwLjUiIHk9IjE4NC4xMDk0Ij4rdXBkYXRlUHJvZmlsZSgpPC90ZXh0PjwvZz48IS0tY2xhc3MgV2FsbGV0LS0+PGcgY2xhc3M9ImVudGl0eSIgZGF0YS1lbnRpdHk9IldhbGxldCIgZGF0YS1zb3VyY2UtbGluZT0iMTUiIGRhdGEtdWlkPSJlbnQwMDAzIiBpZD0iZW50aXR5X1dhbGxldCI+PHJlY3QgZmlsbD0iI0YxRjFGMSIgaGVpZ2h0PSIxMjIuOTIxOSIgcng9IjIuNSIgcnk9IjIuNSIgc3R5bGU9InN0cm9rZTojMTgxODE4O3N0cm9rZS13aWR0aDowLjU7IiB3aWR0aD0iMTY2IiB4PSI3IiB5PSIyNzIuNSIvPjxlbGxpcHNlIGN4PSI2NC43NSIgY3k9IjI4OC41IiBmaWxsPSIjQUREMUIyIiByeD0iMTEiIHJ5PSIxMSIgc3R5bGU9InN0cm9rZTojMTgxODE4O3N0cm9rZS13aWR0aDoxOyIvPjxwYXRoIGQ9Ik02Mi4zNzUsMjkyLjc1IEw2Mi4zNzUsMjk0LjUgTDY3LjMxMjUsMjk0LjUgTDY3LjMxMjUsMjkyLjc1IEw2Mi4zNzUsMjkyLjc1IFogTTYzLjA2MjUsMjkzLjQzNzUgUTYzLjA2MjUsMjkzLjQzNzUgNjMuMDYyNSwyODQuMjUgTDYxLjMxMjUsMjg0LjI1IFE2MS4zMTI1LDI4NC4yNSA2MS4zMTI1LDI5My40Mzc1IEw2My4wNjI1LDI5My40Mzc1IFogTTY2LjYyNSwyOTMuNDM3NSBMNjguMzc1LDI5My40Mzc1IFE2OC4zNzUsMjkzLjQzNzUgNjguMzc1LDI5MC42MjUgTDY2LjYyNSwyOTAuNjI1IFE2Ni42MjUsMjkwLjYyNSA2Ni42MjUsMjkzLjQzNzUgWiBNNjYuNjI1LDI4NC4yNSBRNjYuNjI1LDI4NC4yNSA2Ni42MjUsMjg3LjA2MjUgTDY4LjM3NSwyODcuMDYyNSBRNjguMzc1LDI4Ny4wNjI1IDY4LjM3NSwyODQuMjUgTDY2LjYyNSwyODQuMjUgWiBNNjIuMzc1LDI4NC45Mzc1IEw2Ny4zMTI1LDI4NC45Mzc1IEw2Ny4zMTI1LDI4My4xODc1IEw2Mi4zNzUsMjgzLjE4NzUgTDYyLjM3NSwyODQuOTM3NSBaICIgZmlsbD0iIzAwMDAwMCIvPjx0ZXh0IGZpbGw9IiMwMDAwMDAiIGZvbnQtZmFtaWx5PSJzYW5zLXNlcmlmIiBmb250LXNpemU9IjE0IiBsZW5ndGhBZGp1c3Q9InNwYWNpbmciIHRleHRMZW5ndGg9IjQyIiB4PSI4NS4yNSIgeT0iMjk0LjI0MjIiPldhbGxldDwvdGV4dD48bGluZSBzdHlsZT0ic3Ryb2tlOiMxODE4MTg7c3Ryb2tlLXdpZHRoOjAuNTsiIHgxPSI4IiB4Mj0iMTcyIiB5MT0iMzA0LjUiIHkyPSIzMDQuNSIvPjx0ZXh0IGZpbGw9IiMwMDAwMDAiIGZvbnQtZmFtaWx5PSJzYW5zLXNlcmlmIiBmb250LXNpemU9IjE0IiBsZW5ndGhBZGp1c3Q9InNwYWNpbmciIHRleHRMZW5ndGg9IjExOSIgeD0iMTMiIHk9IjMyMS43MzQ0Ij4td2FsbGV0SUQ6IFN0cmluZzwvdGV4dD48dGV4dCBmaWxsPSIjMDAwMDAwIiBmb250LWZhbWlseT0ic2Fucy1zZXJpZiIgZm9udC1zaXplPSIxNCIgbGVuZ3RoQWRqdXN0PSJzcGFjaW5nIiB0ZXh0TGVuZ3RoPSIxMTIiIHg9IjEzIiB5PSIzMzYuNzE4OCI+LWJhbGFuY2U6IGRvdWJsZTwvdGV4dD48bGluZSBzdHlsZT0ic3Ryb2tlOiMxODE4MTg7c3Ryb2tlLXdpZHRoOjAuNTsiIHgxPSI4IiB4Mj0iMTcyIiB5MT0iMzQyLjQ2ODgiIHkyPSIzNDIuNDY4OCIvPjx0ZXh0IGZpbGw9IiMwMDAwMDAiIGZvbnQtZmFtaWx5PSJzYW5zLXNlcmlmIiBmb250LXNpemU9IjE0IiBsZW5ndGhBZGp1c3Q9InNwYWNpbmciIHRleHRMZW5ndGg9IjE1NCIgeD0iMTMiIHk9IjM1OS43MDMxIj4rdG9wVXAoYW1vdW50OiBkb3VibGUpPC90ZXh0Pjx0ZXh0IGZpbGw9IiMwMDAwMDAiIGZvbnQtZmFtaWx5PSJzYW5zLXNlcmlmIiBmb250LXNpemU9IjE0IiBsZW5ndGhBZGp1c3Q9InNwYWNpbmciIHRleHRMZW5ndGg9IjkxIiB4PSIxMyIgeT0iMzc0LjY4NzUiPitnZXRCYWxhbmNlKCk8L3RleHQ+PHRleHQgZmlsbD0iIzAwMDAwMCIgZm9udC1mYW1pbHk9InNhbnMtc2VyaWYiIGZvbnQtc2l6ZT0iMTQiIGxlbmd0aEFkanVzdD0ic3BhY2luZyIgdGV4dExlbmd0aD0iMTMzIiB4PSIxMyIgeT0iMzg5LjY3MTkiPit2aWV3VHJhbnNhY3Rpb25zKCk8L3RleHQ+PC9nPjwhLS1jbGFzcyBQYXltZW50LS0+PGcgY2xhc3M9ImVudGl0eSIgZGF0YS1lbnRpdHk9IlBheW1lbnQiIGRhdGEtc291cmNlLWxpbmU9IjIzIiBkYXRhLXVpZD0iZW50MDAwNCIgaWQ9ImVudGl0eV9QYXltZW50Ij48cmVjdCBmaWxsPSIjRjFGMUYxIiBoZWlnaHQ9IjE1Mi44OTA2IiByeD0iMi41IiByeT0iMi41IiBzdHlsZT0ic3Ryb2tlOiMxODE4MTg7c3Ryb2tlLXdpZHRoOjAuNTsiIHdpZHRoPSIxNTIiIHg9IjEzMiIgeT0iNDc4Ii8+PGVsbGlwc2UgY3g9IjE3OS4yNSIgY3k9IjQ5NCIgZmlsbD0iI0FERDFCMiIgcng9IjExIiByeT0iMTEiIHN0eWxlPSJzdHJva2U6IzE4MTgxODtzdHJva2Utd2lkdGg6MTsiLz48cGF0aCBkPSJNMTc2Ljg3NSw0OTguMjUgTDE3Ni44NzUsNTAwIEwxODEuODEyNSw1MDAgTDE4MS44MTI1LDQ5OC4yNSBMMTc2Ljg3NSw0OTguMjUgWiBNMTc3LjU2MjUsNDk4LjkzNzUgUTE3Ny41NjI1LDQ5OC45Mzc1IDE3Ny41NjI1LDQ4OS43NSBMMTc1LjgxMjUsNDg5Ljc1IFExNzUuODEyNSw0ODkuNzUgMTc1LjgxMjUsNDk4LjkzNzUgTDE3Ny41NjI1LDQ5OC45Mzc1IFogTTE4MS4xMjUsNDk4LjkzNzUgTDE4Mi44NzUsNDk4LjkzNzUgUTE4Mi44NzUsNDk4LjkzNzUgMTgyLjg3NSw0OTYuMTI1IEwxODEuMTI1LDQ5Ni4xMjUgUTE4MS4xMjUsNDk2LjEyNSAxODEuMTI1LDQ5OC45Mzc1IFogTTE4MS4xMjUsNDg5Ljc1IFExODEuMTI1LDQ4OS43NSAxODEuMTI1LDQ5Mi41NjI1IEwxODIuODc1LDQ5Mi41NjI1IFExODIuODc1LDQ5Mi41NjI1IDE4Mi44NzUsNDg5Ljc1IEwxODEuMTI1LDQ4OS43NSBaIE0xNzYuODc1LDQ5MC40Mzc1IEwxODEuODEyNSw0OTAuNDM3NSBMMTgxLjgxMjUsNDg4LjY4NzUgTDE3Ni44NzUsNDg4LjY4NzUgTDE3Ni44NzUsNDkwLjQzNzUgWiAiIGZpbGw9IiMwMDAwMDAiLz48dGV4dCBmaWxsPSIjMDAwMDAwIiBmb250LWZhbWlseT0ic2Fucy1zZXJpZiIgZm9udC1zaXplPSIxNCIgbGVuZ3RoQWRqdXN0PSJzcGFjaW5nIiB0ZXh0TGVuZ3RoPSI0OSIgeD0iMTk5Ljc1IiB5PSI0OTkuNzQyMiI+UGF5bWVudDwvdGV4dD48bGluZSBzdHlsZT0ic3Ryb2tlOiMxODE4MTg7c3Ryb2tlLXdpZHRoOjAuNTsiIHgxPSIxMzMiIHgyPSIyODMiIHkxPSI1MTAiIHkyPSI1MTAiLz48dGV4dCBmaWxsPSIjMDAwMDAwIiBmb250LWZhbWlseT0ic2Fucy1zZXJpZiIgZm9udC1zaXplPSIxNCIgbGVuZ3RoQWRqdXN0PSJzcGFjaW5nIiB0ZXh0TGVuZ3RoPSIxMjYiIHg9IjEzOCIgeT0iNTI3LjIzNDQiPi1wYXltZW50SUQ6IFN0cmluZzwvdGV4dD48dGV4dCBmaWxsPSIjMDAwMDAwIiBmb250LWZhbWlseT0ic2Fucy1zZXJpZiIgZm9udC1zaXplPSIxNCIgbGVuZ3RoQWRqdXN0PSJzcGFjaW5nIiB0ZXh0TGVuZ3RoPSIxMDUiIHg9IjEzOCIgeT0iNTQyLjIxODgiPi1hbW91bnQ6IGRvdWJsZTwvdGV4dD48dGV4dCBmaWxsPSIjMDAwMDAwIiBmb250LWZhbWlseT0ic2Fucy1zZXJpZiIgZm9udC1zaXplPSIxNCIgbGVuZ3RoQWRqdXN0PSJzcGFjaW5nIiB0ZXh0TGVuZ3RoPSIxMDUiIHg9IjEzOCIgeT0iNTU3LjIwMzEiPi1tZXRob2Q6IFN0cmluZzwvdGV4dD48dGV4dCBmaWxsPSIjMDAwMDAwIiBmb250LWZhbWlseT0ic2Fucy1zZXJpZiIgZm9udC1zaXplPSIxNCIgbGVuZ3RoQWRqdXN0PSJzcGFjaW5nIiB0ZXh0TGVuZ3RoPSIxMDUiIHg9IjEzOCIgeT0iNTcyLjE4NzUiPi1zdGF0dXM6IFN0cmluZzwvdGV4dD48dGV4dCBmaWxsPSIjMDAwMDAwIiBmb250LWZhbWlseT0ic2Fucy1zZXJpZiIgZm9udC1zaXplPSIxNCIgbGVuZ3RoQWRqdXN0PSJzcGFjaW5nIiB0ZXh0TGVuZ3RoPSIxNDAiIHg9IjEzOCIgeT0iNTg3LjE3MTkiPi10aW1lc3RhbXA6IERhdGVUaW1lPC90ZXh0PjxsaW5lIHN0eWxlPSJzdHJva2U6IzE4MTgxODtzdHJva2Utd2lkdGg6MC41OyIgeDE9IjEzMyIgeDI9IjI4MyIgeTE9IjU5Mi45MjE5IiB5Mj0iNTkyLjkyMTkiLz48dGV4dCBmaWxsPSIjMDAwMDAwIiBmb250LWZhbWlseT0ic2Fucy1zZXJpZiIgZm9udC1zaXplPSIxNCIgbGVuZ3RoQWRqdXN0PSJzcGFjaW5nIiB0ZXh0TGVuZ3RoPSIxMTkiIHg9IjEzOCIgeT0iNjEwLjE1NjMiPitwcm9jZXNzUGF5bWVudCgpPC90ZXh0Pjx0ZXh0IGZpbGw9IiMwMDAwMDAiIGZvbnQtZmFtaWx5PSJzYW5zLXNlcmlmIiBmb250LXNpemU9IjE0IiBsZW5ndGhBZGp1c3Q9InNwYWNpbmciIHRleHRMZW5ndGg9IjExOSIgeD0iMTM4IiB5PSI2MjUuMTQwNiI+K2NvbmZpcm1QYXltZW50KCk8L3RleHQ+PC9nPjwhLS1jbGFzcyBUaWNrZXQtLT48ZyBjbGFzcz0iZW50aXR5IiBkYXRhLWVudGl0eT0iVGlja2V0IiBkYXRhLXNvdXJjZS1saW5lPSIzMyIgZGF0YS11aWQ9ImVudDAwMDUiIGlkPSJlbnRpdHlfVGlja2V0Ij48cmVjdCBmaWxsPSIjRjFGMUYxIiBoZWlnaHQ9IjE2Ny44NzUiIHJ4PSIyLjUiIHJ5PSIyLjUiIHN0eWxlPSJzdHJva2U6IzE4MTgxODtzdHJva2Utd2lkdGg6MC41OyIgd2lkdGg9IjIwMSIgeD0iMjc5LjUiIHk9IjI1MCIvPjxlbGxpcHNlIGN4PSIzNTQuNzUiIGN5PSIyNjYiIGZpbGw9IiNBREQxQjIiIHJ4PSIxMSIgcnk9IjExIiBzdHlsZT0ic3Ryb2tlOiMxODE4MTg7c3Ryb2tlLXdpZHRoOjE7Ii8+PHBhdGggZD0iTTM1Mi4zNzUsMjcwLjI1IEwzNTIuMzc1LDI3MiBMMzU3LjMxMjUsMjcyIEwzNTcuMzEyNSwyNzAuMjUgTDM1Mi4zNzUsMjcwLjI1IFogTTM1My4wNjI1LDI3MC45Mzc1IFEzNTMuMDYyNSwyNzAuOTM3NSAzNTMuMDYyNSwyNjEuNzUgTDM1MS4zMTI1LDI2MS43NSBRMzUxLjMxMjUsMjYxLjc1IDM1MS4zMTI1LDI3MC45Mzc1IEwzNTMuMDYyNSwyNzAuOTM3NSBaIE0zNTYuNjI1LDI3MC45Mzc1IEwzNTguMzc1LDI3MC45Mzc1IFEzNTguMzc1LDI3MC45Mzc1IDM1OC4zNzUsMjY4LjEyNSBMMzU2LjYyNSwyNjguMTI1IFEzNTYuNjI1LDI2OC4xMjUgMzU2LjYyNSwyNzAuOTM3NSBaIE0zNTYuNjI1LDI2MS43NSBRMzU2LjYyNSwyNjEuNzUgMzU2LjYyNSwyNjQuNTYyNSBMMzU4LjM3NSwyNjQuNTYyNSBRMzU4LjM3NSwyNjQuNTYyNSAzNTguMzc1LDI2MS43NSBMMzU2LjYyNSwyNjEuNzUgWiBNMzUyLjM3NSwyNjIuNDM3NSBMMzU3LjMxMjUsMjYyLjQzNzUgTDM1Ny4zMTI1LDI2MC42ODc1IEwzNTIuMzc1LDI2MC42ODc1IEwzNTIuMzc1LDI2Mi40Mzc1IFogIiBmaWxsPSIjMDAwMDAwIi8+PHRleHQgZmlsbD0iIzAwMDAwMCIgZm9udC1mYW1pbHk9InNhbnMtc2VyaWYiIGZvbnQtc2l6ZT0iMTQiIGxlbmd0aEFkanVzdD0ic3BhY2luZyIgdGV4dExlbmd0aD0iNDIiIHg9IjM3NS4yNSIgeT0iMjcxLjc0MjIiPlRpY2tldDwvdGV4dD48bGluZSBzdHlsZT0ic3Ryb2tlOiMxODE4MTg7c3Ryb2tlLXdpZHRoOjAuNTsiIHgxPSIyODAuNSIgeDI9IjQ3OS41IiB5MT0iMjgyIiB5Mj0iMjgyIi8+PHRleHQgZmlsbD0iIzAwMDAwMCIgZm9udC1mYW1pbHk9InNhbnMtc2VyaWYiIGZvbnQtc2l6ZT0iMTQiIGxlbmd0aEFkanVzdD0ic3BhY2luZyIgdGV4dExlbmd0aD0iMTE5IiB4PSIyODUuNSIgeT0iMjk5LjIzNDQiPi10aWNrZXRJRDogU3RyaW5nPC90ZXh0Pjx0ZXh0IGZpbGw9IiMwMDAwMDAiIGZvbnQtZmFtaWx5PSJzYW5zLXNlcmlmIiBmb250LXNpemU9IjE0IiBsZW5ndGhBZGp1c3Q9InNwYWNpbmciIHRleHRMZW5ndGg9IjE1NCIgeD0iMjg1LjUiIHk9IjMxNC4yMTg4Ij4tc291cmNlU3RhdGlvbjogU3RyaW5nPC90ZXh0Pjx0ZXh0IGZpbGw9IiMwMDAwMDAiIGZvbnQtZmFtaWx5PSJzYW5zLXNlcmlmIiBmb250LXNpemU9IjE0IiBsZW5ndGhBZGp1c3Q9InNwYWNpbmciIHRleHRMZW5ndGg9IjE4OSIgeD0iMjg1LjUiIHk9IjMyOS4yMDMxIj4tZGVzdGluYXRpb25TdGF0aW9uOiBTdHJpbmc8L3RleHQ+PHRleHQgZmlsbD0iIzAwMDAwMCIgZm9udC1mYW1pbHk9InNhbnMtc2VyaWYiIGZvbnQtc2l6ZT0iMTQiIGxlbmd0aEFkanVzdD0ic3BhY2luZyIgdGV4dExlbmd0aD0iOTEiIHg9IjI4NS41IiB5PSIzNDQuMTg3NSI+LWZhcmU6IGRvdWJsZTwvdGV4dD48dGV4dCBmaWxsPSIjMDAwMDAwIiBmb250LWZhbWlseT0ic2Fucy1zZXJpZiIgZm9udC1zaXplPSIxNCIgbGVuZ3RoQWRqdXN0PSJzcGFjaW5nIiB0ZXh0TGVuZ3RoPSIxNTQiIHg9IjI4NS41IiB5PSIzNTkuMTcxOSI+LWpvdXJuZXlEYXRlOiBEYXRlVGltZTwvdGV4dD48dGV4dCBmaWxsPSIjMDAwMDAwIiBmb250LWZhbWlseT0ic2Fucy1zZXJpZiIgZm9udC1zaXplPSIxNCIgbGVuZ3RoQWRqdXN0PSJzcGFjaW5nIiB0ZXh0TGVuZ3RoPSIxMDUiIHg9IjI4NS41IiB5PSIzNzQuMTU2MyI+LXN0YXR1czogU3RyaW5nPC90ZXh0PjxsaW5lIHN0eWxlPSJzdHJva2U6IzE4MTgxODtzdHJva2Utd2lkdGg6MC41OyIgeDE9IjI4MC41IiB4Mj0iNDc5LjUiIHkxPSIzNzkuOTA2MyIgeTI9IjM3OS45MDYzIi8+PHRleHQgZmlsbD0iIzAwMDAwMCIgZm9udC1mYW1pbHk9InNhbnMtc2VyaWYiIGZvbnQtc2l6ZT0iMTQiIGxlbmd0aEFkanVzdD0ic3BhY2luZyIgdGV4dExlbmd0aD0iMTE5IiB4PSIyODUuNSIgeT0iMzk3LjE0MDYiPitwdXJjaGFzZVRpY2tldCgpPC90ZXh0Pjx0ZXh0IGZpbGw9IiMwMDAwMDAiIGZvbnQtZmFtaWx5PSJzYW5zLXNlcmlmIiBmb250LXNpemU9IjE0IiBsZW5ndGhBZGp1c3Q9InNwYWNpbmciIHRleHRMZW5ndGg9IjkxIiB4PSIyODUuNSIgeT0iNDEyLjEyNSI+K3ZpZXdUaWNrZXQoKTwvdGV4dD48L2c+PCEtLWNsYXNzIFFSQ29kZS0tPjxnIGNsYXNzPSJlbnRpdHkiIGRhdGEtZW50aXR5PSJRUkNvZGUiIGRhdGEtc291cmNlLWxpbmU9IjQ0IiBkYXRhLXVpZD0iZW50MDAwNiIgaWQ9ImVudGl0eV9RUkNvZGUiPjxyZWN0IGZpbGw9IiNGMUYxRjEiIGhlaWdodD0iMTIyLjkyMTkiIHJ4PSIyLjUiIHJ5PSIyLjUiIHN0eWxlPSJzdHJva2U6IzE4MTgxODtzdHJva2Utd2lkdGg6MC41OyIgd2lkdGg9IjE1OSIgeD0iMzE5LjUiIHk9IjQ5MyIvPjxlbGxpcHNlIGN4PSIzNzMuNzUiIGN5PSI1MDkiIGZpbGw9IiNBREQxQjIiIHJ4PSIxMSIgcnk9IjExIiBzdHlsZT0ic3Ryb2tlOiMxODE4MTg7c3Ryb2tlLXdpZHRoOjE7Ii8+PHBhdGggZD0iTTM3MS4zNzUsNTEzLjI1IEwzNzEuMzc1LDUxNSBMMzc2LjMxMjUsNTE1IEwzNzYuMzEyNSw1MTMuMjUgTDM3MS4zNzUsNTEzLjI1IFogTTM3Mi4wNjI1LDUxMy45Mzc1IFEzNzIuMDYyNSw1MTMuOTM3NSAzNzIuMDYyNSw1MDQuNzUgTDM3MC4zMTI1LDUwNC43NSBRMzcwLjMxMjUsNTA0Ljc1IDM3MC4zMTI1LDUxMy45Mzc1IEwzNzIuMDYyNSw1MTMuOTM3NSBaIE0zNzUuNjI1LDUxMy45Mzc1IEwzNzcuMzc1LDUxMy45Mzc1IFEzNzcuMzc1LDUxMy45Mzc1IDM3Ny4zNzUsNTExLjEyNSBMMzc1LjYyNSw1MTEuMTI1IFEzNzUuNjI1LDUxMS4xMjUgMzc1LjYyNSw1MTMuOTM3NSBaIE0zNzUuNjI1LDUwNC43NSBRMzc1LjYyNSw1MDQuNzUgMzc1LjYyNSw1MDcuNTYyNSBMMzc3LjM3NSw1MDcuNTYyNSBRMzc3LjM3NSw1MDcuNTYyNSAzNzcuMzc1LDUwNC43NSBMMzc1LjYyNSw1MDQuNzUgWiBNMzcxLjM3NSw1MDUuNDM3NSBMMzc2LjMxMjUsNTA1LjQzNzUgTDM3Ni4zMTI1LDUwMy42ODc1IEwzNzEuMzc1LDUwMy42ODc1IEwzNzEuMzc1LDUwNS40Mzc1IFogIiBmaWxsPSIjMDAwMDAwIi8+PHRleHQgZmlsbD0iIzAwMDAwMCIgZm9udC1mYW1pbHk9InNhbnMtc2VyaWYiIGZvbnQtc2l6ZT0iMTQiIGxlbmd0aEFkanVzdD0ic3BhY2luZyIgdGV4dExlbmd0aD0iNDIiIHg9IjM5NC4yNSIgeT0iNTE0Ljc0MjIiPlFSQ29kZTwvdGV4dD48bGluZSBzdHlsZT0ic3Ryb2tlOiMxODE4MTg7c3Ryb2tlLXdpZHRoOjAuNTsiIHgxPSIzMjAuNSIgeDI9IjQ3Ny41IiB5MT0iNTI1IiB5Mj0iNTI1Ii8+PHRleHQgZmlsbD0iIzAwMDAwMCIgZm9udC1mYW1pbHk9InNhbnMtc2VyaWYiIGZvbnQtc2l6ZT0iMTQiIGxlbmd0aEFkanVzdD0ic3BhY2luZyIgdGV4dExlbmd0aD0iOTEiIHg9IjMyNS41IiB5PSI1NDIuMjM0NCI+LXFySUQ6IFN0cmluZzwvdGV4dD48dGV4dCBmaWxsPSIjMDAwMDAwIiBmb250LWZhbWlseT0ic2Fucy1zZXJpZiIgZm9udC1zaXplPSIxNCIgbGVuZ3RoQWRqdXN0PSJzcGFjaW5nIiB0ZXh0TGVuZ3RoPSIxMTkiIHg9IjMyNS41IiB5PSI1NTcuMjE4OCI+LXRpY2tldElEOiBTdHJpbmc8L3RleHQ+PHRleHQgZmlsbD0iIzAwMDAwMCIgZm9udC1mYW1pbHk9InNhbnMtc2VyaWYiIGZvbnQtc2l6ZT0iMTQiIGxlbmd0aEFkanVzdD0ic3BhY2luZyIgdGV4dExlbmd0aD0iMTQ3IiB4PSIzMjUuNSIgeT0iNTcyLjIwMzEiPi12YWxpZFVudGlsOiBEYXRlVGltZTwvdGV4dD48bGluZSBzdHlsZT0ic3Ryb2tlOiMxODE4MTg7c3Ryb2tlLXdpZHRoOjAuNTsiIHgxPSIzMjAuNSIgeDI9IjQ3Ny41IiB5MT0iNTc3Ljk1MzEiIHkyPSI1NzcuOTUzMSIvPjx0ZXh0IGZpbGw9IiMwMDAwMDAiIGZvbnQtZmFtaWx5PSJzYW5zLXNlcmlmIiBmb250LXNpemU9IjE0IiBsZW5ndGhBZGp1c3Q9InNwYWNpbmciIHRleHRMZW5ndGg9IjEwNSIgeD0iMzI1LjUiIHk9IjU5NS4xODc1Ij4rZ2VuZXJhdGVDb2RlKCk8L3RleHQ+PHRleHQgZmlsbD0iIzAwMDAwMCIgZm9udC1mYW1pbHk9InNhbnMtc2VyaWYiIGZvbnQtc2l6ZT0iMTQiIGxlbmd0aEFkanVzdD0ic3BhY2luZyIgdGV4dExlbmd0aD0iNzciIHg9IjMyNS41IiB5PSI2MTAuMTcxOSI+K3NjYW5Db2RlKCk8L3RleHQ+PC9nPjwhLS1jbGFzcyBSb3V0ZS0tPjxnIGNsYXNzPSJlbnRpdHkiIGRhdGEtZW50aXR5PSJSb3V0ZSIgZGF0YS1zb3VyY2UtbGluZT0iNTIiIGRhdGEtdWlkPSJlbnQwMDA3IiBpZD0iZW50aXR5X1JvdXRlIj48cmVjdCBmaWxsPSIjRjFGMUYxIiBoZWlnaHQ9IjE1Mi44OTA2IiByeD0iMi41IiByeT0iMi41IiBzdHlsZT0ic3Ryb2tlOiMxODE4MTg7c3Ryb2tlLXdpZHRoOjAuNTsiIHdpZHRoPSIxNjYiIHg9IjUxNCIgeT0iNDc4Ii8+PGVsbGlwc2UgY3g9IjU3NS4yNSIgY3k9IjQ5NCIgZmlsbD0iI0FERDFCMiIgcng9IjExIiByeT0iMTEiIHN0eWxlPSJzdHJva2U6IzE4MTgxODtzdHJva2Utd2lkdGg6MTsiLz48cGF0aCBkPSJNNTcyLjg3NSw0OTguMjUgTDU3Mi44NzUsNTAwIEw1NzcuODEyNSw1MDAgTDU3Ny44MTI1LDQ5OC4yNSBMNTcyLjg3NSw0OTguMjUgWiBNNTczLjU2MjUsNDk4LjkzNzUgUTU3My41NjI1LDQ5OC45Mzc1IDU3My41NjI1LDQ4OS43NSBMNTcxLjgxMjUsNDg5Ljc1IFE1NzEuODEyNSw0ODkuNzUgNTcxLjgxMjUsNDk4LjkzNzUgTDU3My41NjI1LDQ5OC45Mzc1IFogTTU3Ny4xMjUsNDk4LjkzNzUgTDU3OC44NzUsNDk4LjkzNzUgUTU3OC44NzUsNDk4LjkzNzUgNTc4Ljg3NSw0OTYuMTI1IEw1NzcuMTI1LDQ5Ni4xMjUgUTU3Ny4xMjUsNDk2LjEyNSA1NzcuMTI1LDQ5OC45Mzc1IFogTTU3Ny4xMjUsNDg5Ljc1IFE1NzcuMTI1LDQ4OS43NSA1NzcuMTI1LDQ5Mi41NjI1IEw1NzguODc1LDQ5Mi41NjI1IFE1NzguODc1LDQ5Mi41NjI1IDU3OC44NzUsNDg5Ljc1IEw1NzcuMTI1LDQ4OS43NSBaIE01NzIuODc1LDQ5MC40Mzc1IEw1NzcuODEyNSw0OTAuNDM3NSBMNTc3LjgxMjUsNDg4LjY4NzUgTDU3Mi44NzUsNDg4LjY4NzUgTDU3Mi44NzUsNDkwLjQzNzUgWiAiIGZpbGw9IiMwMDAwMDAiLz48dGV4dCBmaWxsPSIjMDAwMDAwIiBmb250LWZhbWlseT0ic2Fucy1zZXJpZiIgZm9udC1zaXplPSIxNCIgbGVuZ3RoQWRqdXN0PSJzcGFjaW5nIiB0ZXh0TGVuZ3RoPSIzNSIgeD0iNTk1Ljc1IiB5PSI0OTkuNzQyMiI+Um91dGU8L3RleHQ+PGxpbmUgc3R5bGU9InN0cm9rZTojMTgxODE4O3N0cm9rZS13aWR0aDowLjU7IiB4MT0iNTE1IiB4Mj0iNjc5IiB5MT0iNTEwIiB5Mj0iNTEwIi8+PHRleHQgZmlsbD0iIzAwMDAwMCIgZm9udC1mYW1pbHk9InNhbnMtc2VyaWYiIGZvbnQtc2l6ZT0iMTQiIGxlbmd0aEFkanVzdD0ic3BhY2luZyIgdGV4dExlbmd0aD0iMTEyIiB4PSI1MjAiIHk9IjUyNy4yMzQ0Ij4tcm91dGVJRDogU3RyaW5nPC90ZXh0Pjx0ZXh0IGZpbGw9IiMwMDAwMDAiIGZvbnQtZmFtaWx5PSJzYW5zLXNlcmlmIiBmb250LXNpemU9IjE0IiBsZW5ndGhBZGp1c3Q9InNwYWNpbmciIHRleHRMZW5ndGg9IjEwNSIgeD0iNTIwIiB5PSI1NDIuMjE4OCI+LXNvdXJjZTogU3RyaW5nPC90ZXh0Pjx0ZXh0IGZpbGw9IiMwMDAwMDAiIGZvbnQtZmFtaWx5PSJzYW5zLXNlcmlmIiBmb250LXNpemU9IjE0IiBsZW5ndGhBZGp1c3Q9InNwYWNpbmciIHRleHRMZW5ndGg9IjE0MCIgeD0iNTIwIiB5PSI1NTcuMjAzMSI+LWRlc3RpbmF0aW9uOiBTdHJpbmc8L3RleHQ+PHRleHQgZmlsbD0iIzAwMDAwMCIgZm9udC1mYW1pbHk9InNhbnMtc2VyaWYiIGZvbnQtc2l6ZT0iMTQiIGxlbmd0aEFkanVzdD0ic3BhY2luZyIgdGV4dExlbmd0aD0iMTI2IiB4PSI1MjAiIHk9IjU3Mi4xODc1Ij4tdG90YWxGYXJlOiBkb3VibGU8L3RleHQ+PHRleHQgZmlsbD0iIzAwMDAwMCIgZm9udC1mYW1pbHk9InNhbnMtc2VyaWYiIGZvbnQtc2l6ZT0iMTQiIGxlbmd0aEFkanVzdD0ic3BhY2luZyIgdGV4dExlbmd0aD0iMTU0IiB4PSI1MjAiIHk9IjU4Ny4xNzE5Ij4tZXN0aW1hdGVkVGltZTogU3RyaW5nPC90ZXh0PjxsaW5lIHN0eWxlPSJzdHJva2U6IzE4MTgxODtzdHJva2Utd2lkdGg6MC41OyIgeDE9IjUxNSIgeDI9IjY3OSIgeTE9IjU5Mi45MjE5IiB5Mj0iNTkyLjkyMTkiLz48dGV4dCBmaWxsPSIjMDAwMDAwIiBmb250LWZhbWlseT0ic2Fucy1zZXJpZiIgZm9udC1zaXplPSIxNCIgbGVuZ3RoQWRqdXN0PSJzcGFjaW5nIiB0ZXh0TGVuZ3RoPSIxMDUiIHg9IjUyMCIgeT0iNjEwLjE1NjMiPitzdWdnZXN0Um91dGUoKTwvdGV4dD48dGV4dCBmaWxsPSIjMDAwMDAwIiBmb250LWZhbWlseT0ic2Fucy1zZXJpZiIgZm9udC1zaXplPSIxNCIgbGVuZ3RoQWRqdXN0PSJzcGFjaW5nIiB0ZXh0TGVuZ3RoPSIxNDciIHg9IjUyMCIgeT0iNjI1LjE0MDYiPitnZXRXYWxraW5nRGlzdGFuY2UoKTwvdGV4dD48L2c+PCEtLWNsYXNzIFJlYWxUaW1lVXBkYXRlLS0+PGcgY2xhc3M9ImVudGl0eSIgZGF0YS1lbnRpdHk9IlJlYWxUaW1lVXBkYXRlIiBkYXRhLXNvdXJjZS1saW5lPSI2MiIgZGF0YS11aWQ9ImVudDAwMDgiIGlkPSJlbnRpdHlfUmVhbFRpbWVVcGRhdGUiPjxyZWN0IGZpbGw9IiNGMUYxRjEiIGhlaWdodD0iMTUyLjg5MDYiIHJ4PSIyLjUiIHJ5PSIyLjUiIHN0eWxlPSJzdHJva2U6IzE4MTgxODtzdHJva2Utd2lkdGg6MC41OyIgd2lkdGg9IjE1OSIgeD0iNTE3LjUiIHk9IjY5MSIvPjxlbGxpcHNlIGN4PSI1NDUuNTUiIGN5PSI3MDciIGZpbGw9IiNBREQxQjIiIHJ4PSIxMSIgcnk9IjExIiBzdHlsZT0ic3Ryb2tlOiMxODE4MTg7c3Ryb2tlLXdpZHRoOjE7Ii8+PHBhdGggZD0iTTU0My4xNzUsNzExLjI1IEw1NDMuMTc1LDcxMyBMNTQ4LjExMjUsNzEzIEw1NDguMTEyNSw3MTEuMjUgTDU0My4xNzUsNzExLjI1IFogTTU0My44NjI1LDcxMS45Mzc1IFE1NDMuODYyNSw3MTEuOTM3NSA1NDMuODYyNSw3MDIuNzUgTDU0Mi4xMTI1LDcwMi43NSBRNTQyLjExMjUsNzAyLjc1IDU0Mi4xMTI1LDcxMS45Mzc1IEw1NDMuODYyNSw3MTEuOTM3NSBaIE01NDcuNDI1LDcxMS45Mzc1IEw1NDkuMTc1LDcxMS45Mzc1IFE1NDkuMTc1LDcxMS45Mzc1IDU0OS4xNzUsNzA5LjEyNSBMNTQ3LjQyNSw3MDkuMTI1IFE1NDcuNDI1LDcwOS4xMjUgNTQ3LjQyNSw3MTEuOTM3NSBaIE01NDcuNDI1LDcwMi43NSBRNTQ3LjQyNSw3MDIuNzUgNTQ3LjQyNSw3MDUuNTYyNSBMNTQ5LjE3NSw3MDUuNTYyNSBRNTQ5LjE3NSw3MDUuNTYyNSA1NDkuMTc1LDcwMi43NSBMNTQ3LjQyNSw3MDIuNzUgWiBNNTQzLjE3NSw3MDMuNDM3NSBMNTQ4LjExMjUsNzAzLjQzNzUgTDU0OC4xMTI1LDcwMS42ODc1IEw1NDMuMTc1LDcwMS42ODc1IEw1NDMuMTc1LDcwMy40Mzc1IFogIiBmaWxsPSIjMDAwMDAwIi8+PHRleHQgZmlsbD0iIzAwMDAwMCIgZm9udC1mYW1pbHk9InNhbnMtc2VyaWYiIGZvbnQtc2l6ZT0iMTQiIGxlbmd0aEFkanVzdD0ic3BhY2luZyIgdGV4dExlbmd0aD0iOTgiIHg9IjU2Mi40NSIgeT0iNzEyLjc0MjIiPlJlYWxUaW1lVXBkYXRlPC90ZXh0PjxsaW5lIHN0eWxlPSJzdHJva2U6IzE4MTgxODtzdHJva2Utd2lkdGg6MC41OyIgeDE9IjUxOC41IiB4Mj0iNjc1LjUiIHkxPSI3MjMiIHkyPSI3MjMiLz48dGV4dCBmaWxsPSIjMDAwMDAwIiBmb250LWZhbWlseT0ic2Fucy1zZXJpZiIgZm9udC1zaXplPSIxNCIgbGVuZ3RoQWRqdXN0PSJzcGFjaW5nIiB0ZXh0TGVuZ3RoPSIxMTkiIHg9IjUyMy41IiB5PSI3NDAuMjM0NCI+LXVwZGF0ZUlEOiBTdHJpbmc8L3RleHQ+PHRleHQgZmlsbD0iIzAwMDAwMCIgZm9udC1mYW1pbHk9InNhbnMtc2VyaWYiIGZvbnQtc2l6ZT0iMTQiIGxlbmd0aEFkanVzdD0ic3BhY2luZyIgdGV4dExlbmd0aD0iMTE5IiB4PSI1MjMuNSIgeT0iNzU1LjIxODgiPi1saW5lTmFtZTogU3RyaW5nPC90ZXh0Pjx0ZXh0IGZpbGw9IiMwMDAwMDAiIGZvbnQtZmFtaWx5PSJzYW5zLXNlcmlmIiBmb250LXNpemU9IjE0IiBsZW5ndGhBZGp1c3Q9InNwYWNpbmciIHRleHRMZW5ndGg9IjE0MCIgeD0iNTIzLjUiIHk9Ijc3MC4yMDMxIj4tZGVsYXlTdGF0dXM6IFN0cmluZzwvdGV4dD48dGV4dCBmaWxsPSIjMDAwMDAwIiBmb250LWZhbWlseT0ic2Fucy1zZXJpZiIgZm9udC1zaXplPSIxNCIgbGVuZ3RoQWRqdXN0PSJzcGFjaW5nIiB0ZXh0TGVuZ3RoPSIxMTIiIHg9IjUyMy41IiB5PSI3ODUuMTg3NSI+LW1lc3NhZ2U6IFN0cmluZzwvdGV4dD48dGV4dCBmaWxsPSIjMDAwMDAwIiBmb250LWZhbWlseT0ic2Fucy1zZXJpZiIgZm9udC1zaXplPSIxNCIgbGVuZ3RoQWRqdXN0PSJzcGFjaW5nIiB0ZXh0TGVuZ3RoPSIxNDAiIHg9IjUyMy41IiB5PSI4MDAuMTcxOSI+LXRpbWVzdGFtcDogRGF0ZVRpbWU8L3RleHQ+PGxpbmUgc3R5bGU9InN0cm9rZTojMTgxODE4O3N0cm9rZS13aWR0aDowLjU7IiB4MT0iNTE4LjUiIHgyPSI2NzUuNSIgeTE9IjgwNS45MjE5IiB5Mj0iODA1LjkyMTkiLz48dGV4dCBmaWxsPSIjMDAwMDAwIiBmb250LWZhbWlseT0ic2Fucy1zZXJpZiIgZm9udC1zaXplPSIxNCIgbGVuZ3RoQWRqdXN0PSJzcGFjaW5nIiB0ZXh0TGVuZ3RoPSI5OCIgeD0iNTIzLjUiIHk9IjgyMy4xNTYzIj4rZmV0Y2hTdGF0dXMoKTwvdGV4dD48dGV4dCBmaWxsPSIjMDAwMDAwIiBmb250LWZhbWlseT0ic2Fucy1zZXJpZiIgZm9udC1zaXplPSIxNCIgbGVuZ3RoQWRqdXN0PSJzcGFjaW5nIiB0ZXh0TGVuZ3RoPSIxNDciIHg9IjUyMy41IiB5PSI4MzguMTQwNiI+K3N1YnNjcmliZVRvVXBkYXRlcygpPC90ZXh0PjwvZz48IS0tY2xhc3MgRmF2b3JpdGUtLT48ZyBjbGFzcz0iZW50aXR5IiBkYXRhLWVudGl0eT0iRmF2b3JpdGUiIGRhdGEtc291cmNlLWxpbmU9IjcyIiBkYXRhLXVpZD0iZW50MDAwOSIgaWQ9ImVudGl0eV9GYXZvcml0ZSI+PHJlY3QgZmlsbD0iI0YxRjFGMSIgaGVpZ2h0PSIxMjIuOTIxOSIgcng9IjIuNSIgcnk9IjIuNSIgc3R5bGU9InN0cm9rZTojMTgxODE4O3N0cm9rZS13aWR0aDowLjU7IiB3aWR0aD0iMTQ1IiB4PSI1MTUuNSIgeT0iMjcyLjUiLz48ZWxsaXBzZSBjeD0iNTU2LjE1IiBjeT0iMjg4LjUiIGZpbGw9IiNBREQxQjIiIHJ4PSIxMSIgcnk9IjExIiBzdHlsZT0ic3Ryb2tlOiMxODE4MTg7c3Ryb2tlLXdpZHRoOjE7Ii8+PHBhdGggZD0iTTU1My43NzUsMjkyLjc1IEw1NTMuNzc1LDI5NC41IEw1NTguNzEyNSwyOTQuNSBMNTU4LjcxMjUsMjkyLjc1IEw1NTMuNzc1LDI5Mi43NSBaIE01NTQuNDYyNSwyOTMuNDM3NSBRNTU0LjQ2MjUsMjkzLjQzNzUgNTU0LjQ2MjUsMjg0LjI1IEw1NTIuNzEyNSwyODQuMjUgUTU1Mi43MTI1LDI4NC4yNSA1NTIuNzEyNSwyOTMuNDM3NSBMNTU0LjQ2MjUsMjkzLjQzNzUgWiBNNTU4LjAyNSwyOTMuNDM3NSBMNTU5Ljc3NSwyOTMuNDM3NSBRNTU5Ljc3NSwyOTMuNDM3NSA1NTkuNzc1LDI5MC42MjUgTDU1OC4wMjUsMjkwLjYyNSBRNTU4LjAyNSwyOTAuNjI1IDU1OC4wMjUsMjkzLjQzNzUgWiBNNTU4LjAyNSwyODQuMjUgUTU1OC4wMjUsMjg0LjI1IDU1OC4wMjUsMjg3LjA2MjUgTDU1OS43NzUsMjg3LjA2MjUgUTU1OS43NzUsMjg3LjA2MjUgNTU5Ljc3NSwyODQuMjUgTDU1OC4wMjUsMjg0LjI1IFogTTU1My43NzUsMjg0LjkzNzUgTDU1OC43MTI1LDI4NC45Mzc1IEw1NTguNzEyNSwyODMuMTg3NSBMNTUzLjc3NSwyODMuMTg3NSBMNTUzLjc3NSwyODQuOTM3NSBaICIgZmlsbD0iIzAwMDAwMCIvPjx0ZXh0IGZpbGw9IiMwMDAwMDAiIGZvbnQtZmFtaWx5PSJzYW5zLXNlcmlmIiBmb250LXNpemU9IjE0IiBsZW5ndGhBZGp1c3Q9InNwYWNpbmciIHRleHRMZW5ndGg9IjU2IiB4PSI1NzUuODUiIHk9IjI5NC4yNDIyIj5GYXZvcml0ZTwvdGV4dD48bGluZSBzdHlsZT0ic3Ryb2tlOiMxODE4MTg7c3Ryb2tlLXdpZHRoOjAuNTsiIHgxPSI1MTYuNSIgeDI9IjY1OS41IiB5MT0iMzA0LjUiIHkyPSIzMDQuNSIvPjx0ZXh0IGZpbGw9IiMwMDAwMDAiIGZvbnQtZmFtaWx5PSJzYW5zLXNlcmlmIiBmb250LXNpemU9IjE0IiBsZW5ndGhBZGp1c3Q9InNwYWNpbmciIHRleHRMZW5ndGg9IjEzMyIgeD0iNTIxLjUiIHk9IjMyMS43MzQ0Ij4tZmF2b3JpdGVJRDogU3RyaW5nPC90ZXh0Pjx0ZXh0IGZpbGw9IiMwMDAwMDAiIGZvbnQtZmFtaWx5PSJzYW5zLXNlcmlmIiBmb250LXNpemU9IjE0IiBsZW5ndGhBZGp1c3Q9InNwYWNpbmciIHRleHRMZW5ndGg9IjEwNSIgeD0iNTIxLjUiIHk9IjMzNi43MTg4Ij4tdXNlcklEOiBTdHJpbmc8L3RleHQ+PHRleHQgZmlsbD0iIzAwMDAwMCIgZm9udC1mYW1pbHk9InNhbnMtc2VyaWYiIGZvbnQtc2l6ZT0iMTQiIGxlbmd0aEFkanVzdD0ic3BhY2luZyIgdGV4dExlbmd0aD0iMTEyIiB4PSI1MjEuNSIgeT0iMzUxLjcwMzEiPi1yb3V0ZUlEOiBTdHJpbmc8L3RleHQ+PGxpbmUgc3R5bGU9InN0cm9rZTojMTgxODE4O3N0cm9rZS13aWR0aDowLjU7IiB4MT0iNTE2LjUiIHgyPSI2NTkuNSIgeTE9IjM1Ny40NTMxIiB5Mj0iMzU3LjQ1MzEiLz48dGV4dCBmaWxsPSIjMDAwMDAwIiBmb250LWZhbWlseT0ic2Fucy1zZXJpZiIgZm9udC1zaXplPSIxNCIgbGVuZ3RoQWRqdXN0PSJzcGFjaW5nIiB0ZXh0TGVuZ3RoPSI4NCIgeD0iNTIxLjUiIHk9IjM3NC42ODc1Ij4rc2F2ZVJvdXRlKCk8L3RleHQ+PHRleHQgZmlsbD0iIzAwMDAwMCIgZm9udC1mYW1pbHk9InNhbnMtc2VyaWYiIGZvbnQtc2l6ZT0iMTQiIGxlbmd0aEFkanVzdD0ic3BhY2luZyIgdGV4dExlbmd0aD0iMTEyIiB4PSI1MjEuNSIgeT0iMzg5LjY3MTkiPit2aWV3RmF2b3JpdGVzKCk8L3RleHQ+PC9nPjwhLS1jbGFzcyBIaXN0b3J5LS0+PGcgY2xhc3M9ImVudGl0eSIgZGF0YS1lbnRpdHk9Ikhpc3RvcnkiIGRhdGEtc291cmNlLWxpbmU9IjgwIiBkYXRhLXVpZD0iZW50MDAxMCIgaWQ9ImVudGl0eV9IaXN0b3J5Ij48cmVjdCBmaWxsPSIjRjFGMUYxIiBoZWlnaHQ9IjEyMi45MjE5IiByeD0iMi41IiByeT0iMi41IiBzdHlsZT0ic3Ryb2tlOiMxODE4MTg7c3Ryb2tlLXdpZHRoOjAuNTsiIHdpZHRoPSIxMzgiIHg9IjY5NiIgeT0iMjcyLjUiLz48ZWxsaXBzZSBjeD0iNzM2LjY1IiBjeT0iMjg4LjUiIGZpbGw9IiNBREQxQjIiIHJ4PSIxMSIgcnk9IjExIiBzdHlsZT0ic3Ryb2tlOiMxODE4MTg7c3Ryb2tlLXdpZHRoOjE7Ii8+PHBhdGggZD0iTTczNC4yNzUsMjkyLjc1IEw3MzQuMjc1LDI5NC41IEw3MzkuMjEyNSwyOTQuNSBMNzM5LjIxMjUsMjkyLjc1IEw3MzQuMjc1LDI5Mi43NSBaIE03MzQuOTYyNSwyOTMuNDM3NSBRNzM0Ljk2MjUsMjkzLjQzNzUgNzM0Ljk2MjUsMjg0LjI1IEw3MzMuMjEyNSwyODQuMjUgUTczMy4yMTI1LDI4NC4yNSA3MzMuMjEyNSwyOTMuNDM3NSBMNzM0Ljk2MjUsMjkzLjQzNzUgWiBNNzM4LjUyNSwyOTMuNDM3NSBMNzQwLjI3NSwyOTMuNDM3NSBRNzQwLjI3NSwyOTMuNDM3NSA3NDAuMjc1LDI5MC42MjUgTDczOC41MjUsMjkwLjYyNSBRNzM4LjUyNSwyOTAuNjI1IDczOC41MjUsMjkzLjQzNzUgWiBNNzM4LjUyNSwyODQuMjUgUTczOC41MjUsMjg0LjI1IDczOC41MjUsMjg3LjA2MjUgTDc0MC4yNzUsMjg3LjA2MjUgUTc0MC4yNzUsMjg3LjA2MjUgNzQwLjI3NSwyODQuMjUgTDczOC41MjUsMjg0LjI1IFogTTczNC4yNzUsMjg0LjkzNzUgTDczOS4yMTI1LDI4NC45Mzc1IEw3MzkuMjEyNSwyODMuMTg3NSBMNzM0LjI3NSwyODMuMTg3NSBMNzM0LjI3NSwyODQuOTM3NSBaICIgZmlsbD0iIzAwMDAwMCIvPjx0ZXh0IGZpbGw9IiMwMDAwMDAiIGZvbnQtZmFtaWx5PSJzYW5zLXNlcmlmIiBmb250LXNpemU9IjE0IiBsZW5ndGhBZGp1c3Q9InNwYWNpbmciIHRleHRMZW5ndGg9IjQ5IiB4PSI3NTYuMzUiIHk9IjI5NC4yNDIyIj5IaXN0b3J5PC90ZXh0PjxsaW5lIHN0eWxlPSJzdHJva2U6IzE4MTgxODtzdHJva2Utd2lkdGg6MC41OyIgeDE9IjY5NyIgeDI9IjgzMyIgeTE9IjMwNC41IiB5Mj0iMzA0LjUiLz48dGV4dCBmaWxsPSIjMDAwMDAwIiBmb250LWZhbWlseT0ic2Fucy1zZXJpZiIgZm9udC1zaXplPSIxNCIgbGVuZ3RoQWRqdXN0PSJzcGFjaW5nIiB0ZXh0TGVuZ3RoPSIxMjYiIHg9IjcwMiIgeT0iMzIxLjczNDQiPi1oaXN0b3J5SUQ6IFN0cmluZzwvdGV4dD48dGV4dCBmaWxsPSIjMDAwMDAwIiBmb250LWZhbWlseT0ic2Fucy1zZXJpZiIgZm9udC1zaXplPSIxNCIgbGVuZ3RoQWRqdXN0PSJzcGFjaW5nIiB0ZXh0TGVuZ3RoPSIxMDUiIHg9IjcwMiIgeT0iMzM2LjcxODgiPi11c2VySUQ6IFN0cmluZzwvdGV4dD48dGV4dCBmaWxsPSIjMDAwMDAwIiBmb250LWZhbWlseT0ic2Fucy1zZXJpZiIgZm9udC1zaXplPSIxNCIgbGVuZ3RoQWRqdXN0PSJzcGFjaW5nIiB0ZXh0TGVuZ3RoPSIxMTkiIHg9IjcwMiIgeT0iMzUxLjcwMzEiPi10aWNrZXRJRDogU3RyaW5nPC90ZXh0PjxsaW5lIHN0eWxlPSJzdHJva2U6IzE4MTgxODtzdHJva2Utd2lkdGg6MC41OyIgeDE9IjY5NyIgeDI9IjgzMyIgeTE9IjM1Ny40NTMxIiB5Mj0iMzU3LjQ1MzEiLz48dGV4dCBmaWxsPSIjMDAwMDAwIiBmb250LWZhbWlseT0ic2Fucy1zZXJpZiIgZm9udC1zaXplPSIxNCIgbGVuZ3RoQWRqdXN0PSJzcGFjaW5nIiB0ZXh0TGVuZ3RoPSI5OCIgeD0iNzAyIiB5PSIzNzQuNjg3NSI+K3ZpZXdIaXN0b3J5KCk8L3RleHQ+PHRleHQgZmlsbD0iIzAwMDAwMCIgZm9udC1mYW1pbHk9InNhbnMtc2VyaWYiIGZvbnQtc2l6ZT0iMTQiIGxlbmd0aEFkanVzdD0ic3BhY2luZyIgdGV4dExlbmd0aD0iMTA1IiB4PSI3MDIiIHk9IjM4OS42NzE5Ij4rcmVib29rVGlja2V0KCk8L3RleHQ+PC9nPjwhLS1saW5rIFVzZXIgdG8gV2FsbGV0LS0+PGcgY2xhc3M9ImxpbmsiIGRhdGEtZW50aXR5LTE9IlVzZXIiIGRhdGEtZW50aXR5LTI9IldhbGxldCIgZGF0YS1zb3VyY2UtbGluZT0iODgiIGRhdGEtdWlkPSJsbmsxMSIgaWQ9ImxpbmtfVXNlcl9XYWxsZXQiPjxwYXRoIGNvZGVMaW5lPSI4OCIgZD0iTTMxNC4xOSwxNTIuNDggQzI2OS45MSwxODguMTQgMjE2LjA4MzQsMjMxLjQ4NzEgMTY5Ljk0MzQsMjY4LjYzNzEiIGZpbGw9Im5vbmUiIGlkPSJVc2VyLXRvLVdhbGxldCIgc3R5bGU9InN0cm9rZTojMTgxODE4O3N0cm9rZS13aWR0aDoxOyIvPjxwb2x5Z29uIGZpbGw9IiMxODE4MTgiIHBvaW50cz0iMTY1LjI3LDI3Mi40LDE3NC43ODg3LDI2OS44NzEzLDE2OS4xNjQ1LDI2OS4yNjQzLDE2OS43NzE2LDI2My42NDAxLDE2NS4yNywyNzIuNCIgc3R5bGU9InN0cm9rZTojMTgxODE4O3N0cm9rZS13aWR0aDoxOyIvPjx0ZXh0IGZpbGw9IiMwMDAwMDAiIGZvbnQtZmFtaWx5PSJzYW5zLXNlcmlmIiBmb250LXNpemU9IjEzIiBsZW5ndGhBZGp1c3Q9InNwYWNpbmciIHRleHRMZW5ndGg9IjYuNSIgeD0iMjk5LjgzNDMiIHk9IjE1Ny42MiI+MTwvdGV4dD48dGV4dCBmaWxsPSIjMDAwMDAwIiBmb250LWZhbWlseT0ic2Fucy1zZXJpZiIgZm9udC1zaXplPSIxMyIgbGVuZ3RoQWRqdXN0PSJzcGFjaW5nIiB0ZXh0TGVuZ3RoPSI2LjUiIHg9IjE2OC41NjE2IiB5PSIyNjMuMDI3MyI+MTwvdGV4dD48L2c+PCEtLWxpbmsgVXNlciB0byBUaWNrZXQtLT48ZyBjbGFzcz0ibGluayIgZGF0YS1lbnRpdHktMT0iVXNlciIgZGF0YS1lbnRpdHktMj0iVGlja2V0IiBkYXRhLXNvdXJjZS1saW5lPSI4OSIgZGF0YS11aWQ9ImxuazEyIiBpZD0ibGlua19Vc2VyX1RpY2tldCI+PHBhdGggY29kZUxpbmU9Ijg5IiBkPSJNMzgwLDE5MC4xMSBDMzgwLDIwOS43MyAzODAsMjI0LjM4IDM4MCwyNDMuNjkiIGZpbGw9Im5vbmUiIGlkPSJVc2VyLXRvLVRpY2tldCIgc3R5bGU9InN0cm9rZTojMTgxODE4O3N0cm9rZS13aWR0aDoxOyIvPjxwb2x5Z29uIGZpbGw9IiMxODE4MTgiIHBvaW50cz0iMzgwLDI0OS42OSwzODQsMjQwLjY5LDM4MCwyNDQuNjksMzc2LDI0MC42OSwzODAsMjQ5LjY5IiBzdHlsZT0ic3Ryb2tlOiMxODE4MTg7c3Ryb2tlLXdpZHRoOjE7Ii8+PHRleHQgZmlsbD0iIzAwMDAwMCIgZm9udC1mYW1pbHk9InNhbnMtc2VyaWYiIGZvbnQtc2l6ZT0iMTMiIGxlbmd0aEFkanVzdD0ic3BhY2luZyIgdGV4dExlbmd0aD0iNi41IiB4PSIzNzMuNzgwOSIgeT0iMjEwLjI1OTIiPjE8L3RleHQ+PHRleHQgZmlsbD0iIzAwMDAwMCIgZm9udC1mYW1pbHk9InNhbnMtc2VyaWYiIGZvbnQtc2l6ZT0iMTMiIGxlbmd0aEFkanVzdD0ic3BhY2luZyIgdGV4dExlbmd0aD0iNi41IiB4PSIzNzMuNzM3OSIgeT0iMjQwLjM3MzMiPio8L3RleHQ+PC9nPjwhLS1saW5rIFVzZXIgdG8gUGF5bWVudC0tPjxnIGNsYXNzPSJsaW5rIiBkYXRhLWVudGl0eS0xPSJVc2VyIiBkYXRhLWVudGl0eS0yPSJQYXltZW50IiBkYXRhLXNvdXJjZS1saW5lPSI5MCIgZGF0YS11aWQ9ImxuazEzIiBpZD0ibGlua19Vc2VyX1BheW1lbnQiPjxwYXRoIGNvZGVMaW5lPSI5MCIgZD0iTTMxNC4yOCwxNjguNjYgQzI5NC42NSwxOTIuNzYgMjc0Ljk0LDIyMS4wNSAyNjIsMjUwIEMyMjkuMjgsMzIzLjE2IDIxNi44NDAxLDQwOC41OTkyIDIxMS43NjAxLDQ3MS44NzkyIiBmaWxsPSJub25lIiBpZD0iVXNlci10by1QYXltZW50IiBzdHlsZT0ic3Ryb2tlOiMxODE4MTg7c3Ryb2tlLXdpZHRoOjE7Ii8+PHBvbHlnb24gZmlsbD0iIzE4MTgxOCIgcG9pbnRzPSIyMTEuMjgsNDc3Ljg2LDIxNS45ODc0LDQ2OS4yMDg5LDIxMS42ODAxLDQ3Mi44NzYsMjA4LjAxMyw0NjguNTY4OCwyMTEuMjgsNDc3Ljg2IiBzdHlsZT0ic3Ryb2tlOiMxODE4MTg7c3Ryb2tlLXdpZHRoOjE7Ii8+PHRleHQgZmlsbD0iIzAwMDAwMCIgZm9udC1mYW1pbHk9InNhbnMtc2VyaWYiIGZvbnQtc2l6ZT0iMTMiIGxlbmd0aEFkanVzdD0ic3BhY2luZyIgdGV4dExlbmd0aD0iNi41IiB4PSIyOTkuOTM1MiIgeT0iMTc1Ljc3MTkiPjE8L3RleHQ+PHRleHQgZmlsbD0iIzAwMDAwMCIgZm9udC1mYW1pbHk9InNhbnMtc2VyaWYiIGZvbnQtc2l6ZT0iMTMiIGxlbmd0aEFkanVzdD0ic3BhY2luZyIgdGV4dExlbmd0aD0iNi41IiB4PSIyMDUuMzM0NyIgeT0iNDY4LjYyOCI+KjwvdGV4dD48L2c+PCEtLWxpbmsgVXNlciB0byBGYXZvcml0ZS0tPjxnIGNsYXNzPSJsaW5rIiBkYXRhLWVudGl0eS0xPSJVc2VyIiBkYXRhLWVudGl0eS0yPSJGYXZvcml0ZSIgZGF0YS1zb3VyY2UtbGluZT0iOTEiIGRhdGEtdWlkPSJsbmsxNCIgaWQ9ImxpbmtfVXNlcl9GYXZvcml0ZSI+PHBhdGggY29kZUxpbmU9IjkxIiBkPSJNNDQ1LjUzLDE3My4wNiBDNDczLjk5LDIwNS4wMSA1MDIuOTI5NSwyMzcuNDk5NCA1MjkuOTU5NSwyNjcuODQ5NCIgZmlsbD0ibm9uZSIgaWQ9IlVzZXItdG8tRmF2b3JpdGUiIHN0eWxlPSJzdHJva2U6IzE4MTgxODtzdHJva2Utd2lkdGg6MTsiLz48cG9seWdvbiBmaWxsPSIjMTgxODE4IiBwb2ludHM9IjUzMy45NSwyNzIuMzMsNTMwLjk1MTQsMjYyLjk0ODcsNTMwLjYyNDYsMjY4LjU5NjEsNTI0Ljk3NzIsMjY4LjI2OTQsNTMzLjk1LDI3Mi4zMyIgc3R5bGU9InN0cm9rZTojMTgxODE4O3N0cm9rZS13aWR0aDoxOyIvPjx0ZXh0IGZpbGw9IiMwMDAwMDAiIGZvbnQtZmFtaWx5PSJzYW5zLXNlcmlmIiBmb250LXNpemU9IjEzIiBsZW5ndGhBZGp1c3Q9InNwYWNpbmciIHRleHRMZW5ndGg9IjYuNSIgeD0iNDUzLjQ4MjciIHk9IjE4MC4yNzk1Ij4xPC90ZXh0Pjx0ZXh0IGZpbGw9IiMwMDAwMDAiIGZvbnQtZmFtaWx5PSJzYW5zLXNlcmlmIiBmb250LXNpemU9IjEzIiBsZW5ndGhBZGp1c3Q9InNwYWNpbmciIHRleHRMZW5ndGg9IjYuNSIgeD0iNTIwLjY3MjUiIHk9IjI2Mi45NDgzIj4qPC90ZXh0PjwvZz48IS0tbGluayBVc2VyIHRvIEhpc3RvcnktLT48ZyBjbGFzcz0ibGluayIgZGF0YS1lbnRpdHktMT0iVXNlciIgZGF0YS1lbnRpdHktMj0iSGlzdG9yeSIgZGF0YS1zb3VyY2UtbGluZT0iOTIiIGRhdGEtdWlkPSJsbmsxNSIgaWQ9ImxpbmtfVXNlcl9IaXN0b3J5Ij48cGF0aCBjb2RlTGluZT0iOTIiIGQ9Ik00NDUuNTgsMTI1Ljk0IEM1MDguMTIsMTUyLjY2IDYwMy41NSwxOTcuNDMgNjc4LDI1MCBDNjg3LjM4LDI1Ni42MiA2OTIuMjM2MSwyNjAuMjY1OCA3MDEuMTY2MSwyNjguMTI1OCIgZmlsbD0ibm9uZSIgaWQ9IlVzZXItdG8tSGlzdG9yeSIgc3R5bGU9InN0cm9rZTojMTgxODE4O3N0cm9rZS13aWR0aDoxOyIvPjxwb2x5Z29uIGZpbGw9IiMxODE4MTgiIHBvaW50cz0iNzA1LjY3LDI3Mi4wOSw3MDEuNTU3LDI2My4xNDExLDcwMS45MTY4LDI2OC43ODY1LDY5Ni4yNzE0LDI2OS4xNDYzLDcwNS42NywyNzIuMDkiIHN0eWxlPSJzdHJva2U6IzE4MTgxODtzdHJva2Utd2lkdGg6MTsiLz48dGV4dCBmaWxsPSIjMDAwMDAwIiBmb250LWZhbWlseT0ic2Fucy1zZXJpZiIgZm9udC1zaXplPSIxMyIgbGVuZ3RoQWRqdXN0PSJzcGFjaW5nIiB0ZXh0TGVuZ3RoPSI2LjUiIHg9IjQ1My41Mzg1IiB5PSIxMjcuNzExMiI+MTwvdGV4dD48dGV4dCBmaWxsPSIjMDAwMDAwIiBmb250LWZhbWlseT0ic2Fucy1zZXJpZiIgZm9udC1zaXplPSIxMyIgbGVuZ3RoQWRqdXN0PSJzcGFjaW5nIiB0ZXh0TGVuZ3RoPSI2LjUiIHg9IjY5MS43MTYiIHk9IjI2Mi42Nzc2Ij4qPC90ZXh0PjwvZz48IS0tbGluayBUaWNrZXQgdG8gUVJDb2RlLS0+PGcgY2xhc3M9ImxpbmsiIGRhdGEtZW50aXR5LTE9IlRpY2tldCIgZGF0YS1lbnRpdHktMj0iUVJDb2RlIiBkYXRhLXNvdXJjZS1saW5lPSI5NCIgZGF0YS11aWQ9ImxuazE2IiBpZD0ibGlua19UaWNrZXRfUVJDb2RlIj48cGF0aCBjb2RlTGluZT0iOTQiIGQ9Ik0zODcuMjQsNDE4LjIzIEMzODkuNCw0NDMuMDcgMzkxLjE5OTksNDYzLjg0MjYgMzkzLjIwOTksNDg2Ljk0MjYiIGZpbGw9Im5vbmUiIGlkPSJUaWNrZXQtdG8tUVJDb2RlIiBzdHlsZT0ic3Ryb2tlOiMxODE4MTg7c3Ryb2tlLXdpZHRoOjE7Ii8+PHBvbHlnb24gZmlsbD0iIzE4MTgxOCIgcG9pbnRzPSIzOTMuNzMsNDkyLjkyLDM5Ni45MzQ4LDQ4My42MDcxLDM5My4yOTY2LDQ4Ny45Mzg4LDM4OC45NjQ5LDQ4NC4zMDA2LDM5My43Myw0OTIuOTIiIHN0eWxlPSJzdHJva2U6IzE4MTgxODtzdHJva2Utd2lkdGg6MTsiLz48dGV4dCBmaWxsPSIjMDAwMDAwIiBmb250LWZhbWlseT0ic2Fucy1zZXJpZiIgZm9udC1zaXplPSIxMyIgbGVuZ3RoQWRqdXN0PSJzcGFjaW5nIiB0ZXh0TGVuZ3RoPSI2LjUiIHg9IjM4MS42MTE4IiB5PSI0MzguMDc1NyI+MTwvdGV4dD48dGV4dCBmaWxsPSIjMDAwMDAwIiBmb250LWZhbWlseT0ic2Fucy1zZXJpZiIgZm9udC1zaXplPSIxMyIgbGVuZ3RoQWRqdXN0PSJzcGFjaW5nIiB0ZXh0TGVuZ3RoPSI2LjUiIHg9IjM4Ni43MDI0IiB5PSI0ODMuNTQ5OSI+MTwvdGV4dD48L2c+PCEtLWxpbmsgVGlja2V0IHRvIFJvdXRlLS0+PGcgY2xhc3M9ImxpbmsiIGRhdGEtZW50aXR5LTE9IlRpY2tldCIgZGF0YS1lbnRpdHktMj0iUm91dGUiIGRhdGEtc291cmNlLWxpbmU9Ijk1IiBkYXRhLXVpZD0ibG5rMTciIGlkPSJsaW5rX1RpY2tldF9Sb3V0ZSI+PHBhdGggY29kZUxpbmU9Ijk1IiBkPSJNNDYyLjY2LDQxOC4yMyBDNDgyLjA2LDQzNy43NyA0OTguNDAxOCw0NTQuMjIzIDUxNy40NzE4LDQ3My40MjMiIGZpbGw9Im5vbmUiIGlkPSJUaWNrZXQtdG8tUm91dGUiIHN0eWxlPSJzdHJva2U6IzE4MTgxODtzdHJva2Utd2lkdGg6MTsiLz48cG9seWdvbiBmaWxsPSIjMTgxODE4IiBwb2ludHM9IjUyMS43LDQ3Ny42OCw1MTguMTk1Nyw0NjguNDc1Nyw1MTguMTc2NSw0NzQuMTMyNSw1MTIuNTE5Nyw0NzQuMTEzMyw1MjEuNyw0NzcuNjgiIHN0eWxlPSJzdHJva2U6IzE4MTgxODtzdHJva2Utd2lkdGg6MTsiLz48dGV4dCBmaWxsPSIjMDAwMDAwIiBmb250LWZhbWlseT0ic2Fucy1zZXJpZiIgZm9udC1zaXplPSIxMyIgbGVuZ3RoQWRqdXN0PSJzcGFjaW5nIiB0ZXh0TGVuZ3RoPSI2LjUiIHg9IjQ2My4yNzc1IiB5PSI0MzguMDc1NyI+MTwvdGV4dD48dGV4dCBmaWxsPSIjMDAwMDAwIiBmb250LWZhbWlseT0ic2Fucy1zZXJpZiIgZm9udC1zaXplPSIxMyIgbGVuZ3RoQWRqdXN0PSJzcGFjaW5nIiB0ZXh0TGVuZ3RoPSI2LjUiIHg9IjUwNy42NTExIiB5PSI0NjguNDI5NSI+MTwvdGV4dD48L2c+PCEtLWxpbmsgVGlja2V0IHRvIFBheW1lbnQtLT48ZyBjbGFzcz0ibGluayIgZGF0YS1lbnRpdHktMT0iVGlja2V0IiBkYXRhLWVudGl0eS0yPSJQYXltZW50IiBkYXRhLXNvdXJjZS1saW5lPSI5NiIgZGF0YS11aWQ9ImxuazE4IiBpZD0ibGlua19UaWNrZXRfUGF5bWVudCI+PHBhdGggY29kZUxpbmU9Ijk2IiBkPSJNMzE0LjQ4LDQxOC4yMyBDMjk5LjEsNDM3Ljc3IDI4Ni41MTA2LDQ1My43NjUgMjcxLjQwMDYsNDcyLjk2NSIgZmlsbD0ibm9uZSIgaWQ9IlRpY2tldC10by1QYXltZW50IiBzdHlsZT0ic3Ryb2tlOiMxODE4MTg7c3Ryb2tlLXdpZHRoOjE7Ii8+PHBvbHlnb24gZmlsbD0iIzE4MTgxOCIgcG9pbnRzPSIyNjcuNjksNDc3LjY4LDI3Ni4zOTkzLDQ3My4wODEyLDI3MC43ODIyLDQ3My43NTA4LDI3MC4xMTI2LDQ2OC4xMzM3LDI2Ny42OSw0NzcuNjgiIHN0eWxlPSJzdHJva2U6IzE4MTgxODtzdHJva2Utd2lkdGg6MTsiLz48dGV4dCBmaWxsPSIjMDAwMDAwIiBmb250LWZhbWlseT0ic2Fucy1zZXJpZiIgZm9udC1zaXplPSIxMyIgbGVuZ3RoQWRqdXN0PSJzcGFjaW5nIiB0ZXh0TGVuZ3RoPSI2LjUiIHg9IjMwMi44MjY0IiB5PSI0MzguMDc1NyI+MTwvdGV4dD48dGV4dCBmaWxsPSIjMDAwMDAwIiBmb250LWZhbWlseT0ic2Fucy1zZXJpZiIgZm9udC1zaXplPSIxMyIgbGVuZ3RoQWRqdXN0PSJzcGFjaW5nIiB0ZXh0TGVuZ3RoPSI2LjUiIHg9IjI2Ny41NjE5IiB5PSI0NjguNDI5NSI+MTwvdGV4dD48L2c+PCEtLWxpbmsgUm91dGUgdG8gUmVhbFRpbWVVcGRhdGUtLT48ZyBjbGFzcz0ibGluayIgZGF0YS1lbnRpdHktMT0iUm91dGUiIGRhdGEtZW50aXR5LTI9IlJlYWxUaW1lVXBkYXRlIiBkYXRhLXNvdXJjZS1saW5lPSI5OCIgZGF0YS11aWQ9ImxuazE5IiBpZD0ibGlua19Sb3V0ZV9SZWFsVGltZVVwZGF0ZSI+PHBhdGggY29kZUxpbmU9Ijk4IiBkPSJNNTk3LDYzMS4wOCBDNTk3LDY1MC40NyA1OTcsNjY1LjM0IDU5Nyw2ODQuNzQiIGZpbGw9Im5vbmUiIGlkPSJSb3V0ZS10by1SZWFsVGltZVVwZGF0ZSIgc3R5bGU9InN0cm9rZTojMTgxODE4O3N0cm9rZS13aWR0aDoxOyIvPjxwb2x5Z29uIGZpbGw9IiMxODE4MTgiIHBvaW50cz0iNTk3LDY5MC43NCw2MDEsNjgxLjc0LDU5Nyw2ODUuNzQsNTkzLDY4MS43NCw1OTcsNjkwLjc0IiBzdHlsZT0ic3Ryb2tlOiMxODE4MTg7c3Ryb2tlLXdpZHRoOjE7Ii8+PHRleHQgZmlsbD0iIzAwMDAwMCIgZm9udC1mYW1pbHk9InNhbnMtc2VyaWYiIGZvbnQtc2l6ZT0iMTMiIGxlbmd0aEFkanVzdD0ic3BhY2luZyIgdGV4dExlbmd0aD0iNi41IiB4PSI1OTAuNzQ2NSIgeT0iNjUxLjA3NTIiPjE8L3RleHQ+PHRleHQgZmlsbD0iIzAwMDAwMCIgZm9udC1mYW1pbHk9InNhbnMtc2VyaWYiIGZvbnQtc2l6ZT0iMTMiIGxlbmd0aEFkanVzdD0ic3BhY2luZyIgdGV4dExlbmd0aD0iNi41IiB4PSI1OTAuNzE2NCIgeT0iNjgxLjQ5NTYiPio8L3RleHQ+PC9nPjwhLS1TUkM9W1pMSjFaakNtNEJ0ZEF3b1UyZ1dJTkZVMGo1MmpzMGpRamdhdUp2bjlRa2hPbU5QUTFTSV9DeDZUUjluYzFRVHd0aFpwdGhwQ3M5dzVRaTUwbXhXNFEtIC1UQ3dCZTczdm9oR3hZNXhCdE1VT3B4NlpIaUR5UE9wbE1xVjVuVnlTRVQ1ZEw3YkJHTzA5VzBxOGNJN2xJQWh0Sktqc2hEY0syM2lOcGxmdFZWQ1V1R04xdXB4ZGtiRGsteVBaS2pMM250QktidlAtQ2hlSDRtbHdDZ2gtM2JFWVl4Z2lGNWllQmFBMHVxUE13QW9Kd1Nhd3RudE9CcFMwczlXOUhaVXZKLTREYWxXWXl2V1FLMVV3NExkUEVfV0h6V3NmYVJxRXFlNHo5RkRJV0UtZEs1RWwwVEpRMWQ2WUd1QVF6T3RsZ0ZRVkcyc2dEdmNYanY4dWd3TWpNbVpHbHVBR241X215NlVIeWk1MWVUTVN1N2FXMXpQVGFJWDhXYkNWTnFYS09KMWh4R1BLS3plRlNIRkhBVnpHN2lQeDBPWDB1VHRpNGZYdy1GTl9NOVNPVVZZdjdTeE1mMnFYSDdmS1JQWkluaHFRNVhlMlhPWUlyNzVHQzl5ZmRKS2lJNlNybU5aTmpEUlRJVlRnMVY1WHdETG5rSTRTdkE0a0NpTHJUS3pPaHM0dkpJT0RFZ3JwbDFMYVBmbEQ1QXU4U2dYcHphZW14eDhFNVFZYUtWYnJrU2VhSS1pRmowREJ1TVFabmx1UW9HaVRGZVNQZVFiVE9KY3lEdlpoZUlaUmQwSXhRWTRiaTVTRTV0OUx0d0ZQUjQxTFNTRXhNQzRHWkdTQndYU3BKZmUtYWZuM3pjdERibTA5OWgxVGYzSFBRZC1WSnd2X0twT1NEcy1xLSAtal9tTVl0bWp2a3VmQlR1dEVWUm5EWlVSSVBnb2hBdS03RndpNFRoNk1fVk1jOUthOE01YzNFYk9fU05dLS0+PC9nPjwvc3ZnPg==;" vertex="1" parent="1">
            <mxGeometry x="-1600" y="-476" width="841" height="850" as="geometry" />
          </mxCell>
        </UserObject>
        <UserObject label="" plantUmlData="{&#xa;  &quot;data&quot;: &quot;@startuml\nskinparam state {\n  BackgroundColor&lt;&lt;completed&gt;&gt; LightGreen\n  BackgroundColor&lt;&lt;error&gt;&gt; LightCoral\n}\n\n[*] --&gt; App_Opened\n\nstate App_Opened {\n  [*] --&gt; Login_Screen\n  Login_Screen --&gt; Account_Creation : Sign Up\n  Login_Screen --&gt; Dashboard : Login Success\n  Login_Screen --&gt; Login_Screen : Invalid Credentials &lt;&lt;error&gt;&gt;\n  Account_Creation --&gt; OTP_Verification : Submit Info\n  OTP_Verification --&gt; Dashboard : OTP Verified\n  OTP_Verification --&gt; Account_Creation : OTP Failed &lt;&lt;error&gt;&gt;\n}\n\nstate Dashboard {\n  [*] --&gt; Dashboard\n  Dashboard --&gt; Wallet_Topup : Tap &#39;Top-up Wallet&#39;\n  Dashboard --&gt; Ticket_Booking : Tap &#39;Book Ticket&#39;\n  Dashboard --&gt; Route_Planner : Tap &#39;Plan Route&#39;\n  Dashboard --&gt; Live_Updates : Tap &#39;View Updates&#39;\n  Dashboard --&gt; Favorites : Tap &#39;Favorites&#39;\n  Dashboard --&gt; History : Tap &#39;History&#39;\n}\n\nstate Ticket_Booking {\n  [*] --&gt; Select_Stations\n  Select_Stations --&gt; View_Fare\n  View_Fare --&gt; Payment_Processing\n  Payment_Processing --&gt; Ticket_Confirmed : Payment Success\n  Payment_Processing --&gt; View_Fare : Payment Failed &lt;&lt;error&gt;&gt;\n  Ticket_Confirmed --&gt; QR_Generated : Generate QR\n  QR_Generated --&gt; Dashboard : QR Ready\n}\n\nstate Route_Planner {\n  [*] --&gt; Enter_Location\n  Enter_Location --&gt; View_Suggestions\n  View_Suggestions --&gt; Route_Selected\n  Route_Selected --&gt; Dashboard : Save or Start Navigation\n}\n\nstate Live_Updates {\n  [*] --&gt; Fetch_Status\n  Fetch_Status --&gt; Display_Updates\n  Display_Updates --&gt; Dashboard : Back\n}\n\nstate Wallet_Topup {\n  [*] --&gt; Select_Method\n  Select_Method --&gt; Enter_Amount\n  Enter_Amount --&gt; Payment_Processing_Topup\n  Payment_Processing_Topup --&gt; Wallet_Updated : Top-Up Success\n  Payment_Processing_Topup --&gt; Enter_Amount : Top-Up Failed &lt;&lt;error&gt;&gt;\n  Wallet_Updated --&gt; Dashboard\n}\n\nDashboard --&gt; [*]\n\n@enduml\n&quot;,&#xa;  &quot;format&quot;: &quot;svg&quot;&#xa;}" id="eHgLMdEdHHg-rtYAkAGY-3">
          <mxCell style="shape=image;noLabel=1;verticalAlign=top;aspect=fixed;imageAspect=0;image=data:image/svg+xml,PHN2ZyB4bWxucz0iaHR0cDovL3d3dy53My5vcmcvMjAwMC9zdmciIHhtbG5zOnhsaW5rPSJodHRwOi8vd3d3LnczLm9yZy8xOTk5L3hsaW5rIiBjb250ZW50U3R5bGVUeXBlPSJ0ZXh0L2NzcyIgZGF0YS1kaWFncmFtLXR5cGU9IlNUQVRFIiBoZWlnaHQ9Ijk5MnB4IiBwcmVzZXJ2ZUFzcGVjdFJhdGlvPSJub25lIiBzdHlsZT0id2lkdGg6MTk3OHB4O2hlaWdodDo5OTJweDtiYWNrZ3JvdW5kOiNGRkZGRkY7IiB2ZXJzaW9uPSIxLjEiIHZpZXdCb3g9IjAgMCAxOTc4IDk5MiIgd2lkdGg9IjE5NzhweCIgem9vbUFuZFBhbj0ibWFnbmlmeSI+PGRlZnMvPjxnPjwhLS1jbHVzdGVyIEFwcF9PcGVuZWQtLT48ZyBjbGFzcz0iY2x1c3RlciIgZGF0YS1lbnRpdHk9IkFwcF9PcGVuZWQiIGRhdGEtc291cmNlLWxpbmU9IjgiIGRhdGEtdWlkPSJlbnQwMDAyIiBpZD0iY2x1c3Rlcl9BcHBfT3BlbmVkIj48cGF0aCBkPSJNMjQuNSwyNTQgTDM2NC41LDI1NCBBMTIuNSwxMi41IDAgMCAxIDM3NywyNjYuNSBMMzc3LDI3My45ODQ0IEwxMiwyNzMuOTg0NCBMMTIsMjY2LjUgQTEyLjUsMTIuNSAwIDAgMSAyNC41LDI1NCIgZmlsbD0iI0YxRjFGMSIgc3R5bGU9InN0cm9rZTojRjFGMUYxO3N0cm9rZS13aWR0aDoxOyIvPjxyZWN0IGZpbGw9Im5vbmUiIGhlaWdodD0iNDk1IiByeD0iMTIuNSIgcnk9IjEyLjUiIHN0eWxlPSJzdHJva2U6IzE4MTgxODtzdHJva2Utd2lkdGg6MC41OyIgd2lkdGg9IjM2NSIgeD0iMTIiIHk9IjI1NCIvPjxsaW5lIHN0eWxlPSJzdHJva2U6IzE4MTgxODtzdHJva2Utd2lkdGg6MC41OyIgeDE9IjEyIiB4Mj0iMzc3IiB5MT0iMjczLjk4NDQiIHkyPSIyNzMuOTg0NCIvPjx0ZXh0IGZpbGw9IiMwMDAwMDAiIGZvbnQtZmFtaWx5PSJzYW5zLXNlcmlmIiBmb250LXNpemU9IjE0IiBsZW5ndGhBZGp1c3Q9InNwYWNpbmciIHRleHRMZW5ndGg9IjcwIiB4PSIxNTkuNSIgeT0iMjcxLjIzNDQiPkFwcF9PcGVuZWQ8L3RleHQ+PC9nPjwhLS1jbHVzdGVyIERhc2hib2FyZC0tPjxnIGNsYXNzPSJjbHVzdGVyIiBkYXRhLWVudGl0eT0iRGFzaGJvYXJkIiBkYXRhLXNvdXJjZS1saW5lPSIxOCIgZGF0YS11aWQ9ImVudDAwMDMiIGlkPSJjbHVzdGVyX0Rhc2hib2FyZCI+PHBhdGggZD0iTTc4Mi41LDgxMiBMMTA0OC41LDgxMiBBMTIuNSwxMi41IDAgMCAxIDEwNjEsODI0LjUgTDEwNjEsODMxLjk4NDQgTDc3MCw4MzEuOTg0NCBMNzcwLDgyNC41IEExMi41LDEyLjUgMCAwIDEgNzgyLjUsODEyIiBmaWxsPSIjRjFGMUYxIiBzdHlsZT0ic3Ryb2tlOiNGMUYxRjE7c3Ryb2tlLXdpZHRoOjE7Ii8+PHJlY3QgZmlsbD0ibm9uZSIgaGVpZ2h0PSIxNzQuNzIiIHJ4PSIxMi41IiByeT0iMTIuNSIgc3R5bGU9InN0cm9rZTojMTgxODE4O3N0cm9rZS13aWR0aDowLjU7IiB3aWR0aD0iMjkxIiB4PSI3NzAiIHk9IjgxMiIvPjxsaW5lIHN0eWxlPSJzdHJva2U6IzE4MTgxODtzdHJva2Utd2lkdGg6MC41OyIgeDE9Ijc3MCIgeDI9IjEwNjEiIHkxPSI4MzEuOTg0NCIgeTI9IjgzMS45ODQ0Ii8+PHRleHQgZmlsbD0iIzAwMDAwMCIgZm9udC1mYW1pbHk9InNhbnMtc2VyaWYiIGZvbnQtc2l6ZT0iMTQiIGxlbmd0aEFkanVzdD0ic3BhY2luZyIgdGV4dExlbmd0aD0iNjMiIHg9Ijg4NCIgeT0iODI5LjIzNDQiPkRhc2hib2FyZDwvdGV4dD48L2c+PCEtLWNsdXN0ZXIgVGlja2V0X0Jvb2tpbmctLT48ZyBjbGFzcz0iY2x1c3RlciIgZGF0YS1lbnRpdHk9IlRpY2tldF9Cb29raW5nIiBkYXRhLXNvdXJjZS1saW5lPSIyOCIgZGF0YS11aWQ9ImVudDAwMDQiIGlkPSJjbHVzdGVyX1RpY2tldF9Cb29raW5nIj48cGF0aCBkPSJNNDczLjUsNyBMNjkxLjUsNyBBMTIuNSwxMi41IDAgMCAxIDcwNCwxOS41IEw3MDQsMjYuOTg0NCBMNDYxLDI2Ljk4NDQgTDQ2MSwxOS41IEExMi41LDEyLjUgMCAwIDEgNDczLjUsNyIgZmlsbD0iI0YxRjFGMSIgc3R5bGU9InN0cm9rZTojRjFGMUYxO3N0cm9rZS13aWR0aDoxOyIvPjxyZWN0IGZpbGw9Im5vbmUiIGhlaWdodD0iNzQyIiByeD0iMTIuNSIgcnk9IjEyLjUiIHN0eWxlPSJzdHJva2U6IzE4MTgxODtzdHJva2Utd2lkdGg6MC41OyIgd2lkdGg9IjI0MyIgeD0iNDYxIiB5PSI3Ii8+PGxpbmUgc3R5bGU9InN0cm9rZTojMTgxODE4O3N0cm9rZS13aWR0aDowLjU7IiB4MT0iNDYxIiB4Mj0iNzA0IiB5MT0iMjYuOTg0NCIgeTI9IjI2Ljk4NDQiLz48dGV4dCBmaWxsPSIjMDAwMDAwIiBmb250LWZhbWlseT0ic2Fucy1zZXJpZiIgZm9udC1zaXplPSIxNCIgbGVuZ3RoQWRqdXN0PSJzcGFjaW5nIiB0ZXh0TGVuZ3RoPSI5OCIgeD0iNTMzLjUiIHk9IjI0LjIzNDQiPlRpY2tldF9Cb29raW5nPC90ZXh0PjwvZz48IS0tY2x1c3RlciBSb3V0ZV9QbGFubmVyLS0+PGcgY2xhc3M9ImNsdXN0ZXIiIGRhdGEtZW50aXR5PSJSb3V0ZV9QbGFubmVyIiBkYXRhLXNvdXJjZS1saW5lPSIzOCIgZGF0YS11aWQ9ImVudDAwMDUiIGlkPSJjbHVzdGVyX1JvdXRlX1BsYW5uZXIiPjxwYXRoIGQ9Ik04NzkuNSwyNTQgTDEwNDIuNSwyNTQgQTEyLjUsMTIuNSAwIDAgMSAxMDU1LDI2Ni41IEwxMDU1LDI3My45ODQ0IEw4NjcsMjczLjk4NDQgTDg2NywyNjYuNSBBMTIuNSwxMi41IDAgMCAxIDg3OS41LDI1NCIgZmlsbD0iI0YxRjFGMSIgc3R5bGU9InN0cm9rZTojRjFGMUYxO3N0cm9rZS13aWR0aDoxOyIvPjxyZWN0IGZpbGw9Im5vbmUiIGhlaWdodD0iNDk1IiByeD0iMTIuNSIgcnk9IjEyLjUiIHN0eWxlPSJzdHJva2U6IzE4MTgxODtzdHJva2Utd2lkdGg6MC41OyIgd2lkdGg9IjE4OCIgeD0iODY3IiB5PSIyNTQiLz48bGluZSBzdHlsZT0ic3Ryb2tlOiMxODE4MTg7c3Ryb2tlLXdpZHRoOjAuNTsiIHgxPSI4NjciIHgyPSIxMDU1IiB5MT0iMjczLjk4NDQiIHkyPSIyNzMuOTg0NCIvPjx0ZXh0IGZpbGw9IiMwMDAwMDAiIGZvbnQtZmFtaWx5PSJzYW5zLXNlcmlmIiBmb250LXNpemU9IjE0IiBsZW5ndGhBZGp1c3Q9InNwYWNpbmciIHRleHRMZW5ndGg9IjkxIiB4PSI5MTUuNSIgeT0iMjcxLjIzNDQiPlJvdXRlX1BsYW5uZXI8L3RleHQ+PC9nPjwhLS1jbHVzdGVyIExpdmVfVXBkYXRlcy0tPjxnIGNsYXNzPSJjbHVzdGVyIiBkYXRhLWVudGl0eT0iTGl2ZV9VcGRhdGVzIiBkYXRhLXNvdXJjZS1saW5lPSI0NSIgZGF0YS11aWQ9ImVudDAwMDYiIGlkPSJjbHVzdGVyX0xpdmVfVXBkYXRlcyI+PHBhdGggZD0iTTEyMzUuNSwzOTkgTDEzOTIuNSwzOTkgQTEyLjUsMTIuNSAwIDAgMSAxNDA1LDQxMS41IEwxNDA1LDQxOC45ODQ0IEwxMjIzLDQxOC45ODQ0IEwxMjIzLDQxMS41IEExMi41LDEyLjUgMCAwIDEgMTIzNS41LDM5OSIgZmlsbD0iI0YxRjFGMSIgc3R5bGU9InN0cm9rZTojRjFGMUYxO3N0cm9rZS13aWR0aDoxOyIvPjxyZWN0IGZpbGw9Im5vbmUiIGhlaWdodD0iMzUwIiByeD0iMTIuNSIgcnk9IjEyLjUiIHN0eWxlPSJzdHJva2U6IzE4MTgxODtzdHJva2Utd2lkdGg6MC41OyIgd2lkdGg9IjE4MiIgeD0iMTIyMyIgeT0iMzk5Ii8+PGxpbmUgc3R5bGU9InN0cm9rZTojMTgxODE4O3N0cm9rZS13aWR0aDowLjU7IiB4MT0iMTIyMyIgeDI9IjE0MDUiIHkxPSI0MTguOTg0NCIgeTI9IjQxOC45ODQ0Ii8+PHRleHQgZmlsbD0iIzAwMDAwMCIgZm9udC1mYW1pbHk9InNhbnMtc2VyaWYiIGZvbnQtc2l6ZT0iMTQiIGxlbmd0aEFkanVzdD0ic3BhY2luZyIgdGV4dExlbmd0aD0iODQiIHg9IjEyNzIiIHk9IjQxNi4yMzQ0Ij5MaXZlX1VwZGF0ZXM8L3RleHQ+PC9nPjwhLS1jbHVzdGVyIFdhbGxldF9Ub3B1cC0tPjxnIGNsYXNzPSJjbHVzdGVyIiBkYXRhLWVudGl0eT0iV2FsbGV0X1RvcHVwIiBkYXRhLXNvdXJjZS1saW5lPSI1MSIgZGF0YS11aWQ9ImVudDAwMDciIGlkPSJjbHVzdGVyX1dhbGxldF9Ub3B1cCI+PHBhdGggZD0iTTE1ODcuNSwxMjMgTDE4MDYuNSwxMjMgQTEyLjUsMTIuNSAwIDAgMSAxODE5LDEzNS41IEwxODE5LDE0Mi45ODQ0IEwxNTc1LDE0Mi45ODQ0IEwxNTc1LDEzNS41IEExMi41LDEyLjUgMCAwIDEgMTU4Ny41LDEyMyIgZmlsbD0iI0YxRjFGMSIgc3R5bGU9InN0cm9rZTojRjFGMUYxO3N0cm9rZS13aWR0aDoxOyIvPjxyZWN0IGZpbGw9Im5vbmUiIGhlaWdodD0iNjI2IiByeD0iMTIuNSIgcnk9IjEyLjUiIHN0eWxlPSJzdHJva2U6IzE4MTgxODtzdHJva2Utd2lkdGg6MC41OyIgd2lkdGg9IjI0NCIgeD0iMTU3NSIgeT0iMTIzIi8+PGxpbmUgc3R5bGU9InN0cm9rZTojMTgxODE4O3N0cm9rZS13aWR0aDowLjU7IiB4MT0iMTU3NSIgeDI9IjE4MTkiIHkxPSIxNDIuOTg0NCIgeTI9IjE0Mi45ODQ0Ii8+PHRleHQgZmlsbD0iIzAwMDAwMCIgZm9udC1mYW1pbHk9InNhbnMtc2VyaWYiIGZvbnQtc2l6ZT0iMTQiIGxlbmd0aEFkanVzdD0ic3BhY2luZyIgdGV4dExlbmd0aD0iODQiIHg9IjE2NTUiIHk9IjE0MC4yMzQ0Ij5XYWxsZXRfVG9wdXA8L3RleHQ+PC9nPjxlbGxpcHNlIGN4PSI5NiIgY3k9IjMwNSIgZmlsbD0iIzIyMjIyMiIgcng9IjEwIiByeT0iMTAiIHN0eWxlPSJzdHJva2U6IzIyMjIyMjtzdHJva2Utd2lkdGg6MTsiLz48ZyBpZD0iQXBwX09wZW5lZC5Mb2dpbl9TY3JlZW4iPjxyZWN0IGZpbGw9IiNGMUYxRjEiIGhlaWdodD0iNTAiIHJ4PSIxMi41IiByeT0iMTIuNSIgc3R5bGU9InN0cm9rZTojMTgxODE4O3N0cm9rZS13aWR0aDowLjU7IiB3aWR0aD0iMTA0IiB4PSI0NCIgeT0iNDI1Ii8+PGxpbmUgc3R5bGU9InN0cm9rZTojMTgxODE4O3N0cm9rZS13aWR0aDowLjU7IiB4MT0iNDQiIHgyPSIxNDgiIHkxPSI0NDkuOTg0NCIgeTI9IjQ0OS45ODQ0Ii8+PHRleHQgZmlsbD0iIzAwMDAwMCIgZm9udC1mYW1pbHk9InNhbnMtc2VyaWYiIGZvbnQtc2l6ZT0iMTQiIGxlbmd0aEFkanVzdD0ic3BhY2luZyIgdGV4dExlbmd0aD0iODQiIHg9IjU0IiB5PSI0NDMuMjM0NCI+TG9naW5fU2NyZWVuPC90ZXh0PjwvZz48ZyBpZD0iQXBwX09wZW5lZC5BY2NvdW50X0NyZWF0aW9uIj48cmVjdCBmaWxsPSIjRjFGMUYxIiBoZWlnaHQ9IjUwIiByeD0iMTIuNSIgcnk9IjEyLjUiIHN0eWxlPSJzdHJva2U6IzE4MTgxODtzdHJva2Utd2lkdGg6MC41OyIgd2lkdGg9IjEzMiIgeD0iNDQiIHk9IjU1MCIvPjxsaW5lIHN0eWxlPSJzdHJva2U6IzE4MTgxODtzdHJva2Utd2lkdGg6MC41OyIgeDE9IjQ0IiB4Mj0iMTc2IiB5MT0iNTc0Ljk4NDQiIHkyPSI1NzQuOTg0NCIvPjx0ZXh0IGZpbGw9IiMwMDAwMDAiIGZvbnQtZmFtaWx5PSJzYW5zLXNlcmlmIiBmb250LXNpemU9IjE0IiBsZW5ndGhBZGp1c3Q9InNwYWNpbmciIHRleHRMZW5ndGg9IjExMiIgeD0iNTQiIHk9IjU2OC4yMzQ0Ij5BY2NvdW50X0NyZWF0aW9uPC90ZXh0PjwvZz48ZyBpZD0iQXBwX09wZW5lZC5PVFBfVmVyaWZpY2F0aW9uIj48cmVjdCBmaWxsPSIjRjFGMUYxIiBoZWlnaHQ9IjUwIiByeD0iMTIuNSIgcnk9IjEyLjUiIHN0eWxlPSJzdHJva2U6IzE4MTgxODtzdHJva2Utd2lkdGg6MC41OyIgd2lkdGg9IjEzMiIgeD0iMTI2IiB5PSI2NzUiLz48bGluZSBzdHlsZT0ic3Ryb2tlOiMxODE4MTg7c3Ryb2tlLXdpZHRoOjAuNTsiIHgxPSIxMjYiIHgyPSIyNTgiIHkxPSI2OTkuOTg0NCIgeTI9IjY5OS45ODQ0Ii8+PHRleHQgZmlsbD0iIzAwMDAwMCIgZm9udC1mYW1pbHk9InNhbnMtc2VyaWYiIGZvbnQtc2l6ZT0iMTQiIGxlbmd0aEFkanVzdD0ic3BhY2luZyIgdGV4dExlbmd0aD0iMTEyIiB4PSIxMzYiIHk9IjY5My4yMzQ0Ij5PVFBfVmVyaWZpY2F0aW9uPC90ZXh0PjwvZz48ZWxsaXBzZSBjeD0iMTAyNyIgY3k9IjkzNy43MiIgZmlsbD0iIzIyMjIyMiIgcng9IjEwIiByeT0iMTAiIHN0eWxlPSJzdHJva2U6IzIyMjIyMjtzdHJva2Utd2lkdGg6MTsiLz48ZyBpZD0iRGFzaGJvYXJkLkZhdm9yaXRlcyI+PHJlY3QgZmlsbD0iI0YxRjFGMSIgaGVpZ2h0PSI1MCIgcng9IjEyLjUiIHJ5PSIxMi41IiBzdHlsZT0ic3Ryb2tlOiMxODE4MTg7c3Ryb2tlLXdpZHRoOjAuNTsiIHdpZHRoPSI4MyIgeD0iNzk0LjUiIHk9IjkxMi43MiIvPjxsaW5lIHN0eWxlPSJzdHJva2U6IzE4MTgxODtzdHJva2Utd2lkdGg6MC41OyIgeDE9Ijc5NC41IiB4Mj0iODc3LjUiIHkxPSI5MzcuNzA0NCIgeTI9IjkzNy43MDQ0Ii8+PHRleHQgZmlsbD0iIzAwMDAwMCIgZm9udC1mYW1pbHk9InNhbnMtc2VyaWYiIGZvbnQtc2l6ZT0iMTQiIGxlbmd0aEFkanVzdD0ic3BhY2luZyIgdGV4dExlbmd0aD0iNjMiIHg9IjgwNC41IiB5PSI5MzAuOTU0NCI+RmF2b3JpdGVzPC90ZXh0PjwvZz48ZyBpZD0iRGFzaGJvYXJkLkhpc3RvcnkiPjxyZWN0IGZpbGw9IiNGMUYxRjEiIGhlaWdodD0iNTAiIHJ4PSIxMi41IiByeT0iMTIuNSIgc3R5bGU9InN0cm9rZTojMTgxODE4O3N0cm9rZS13aWR0aDowLjU7IiB3aWR0aD0iNjkiIHg9IjkxMi41IiB5PSI5MTIuNzIiLz48bGluZSBzdHlsZT0ic3Ryb2tlOiMxODE4MTg7c3Ryb2tlLXdpZHRoOjAuNTsiIHgxPSI5MTIuNSIgeDI9Ijk4MS41IiB5MT0iOTM3LjcwNDQiIHkyPSI5MzcuNzA0NCIvPjx0ZXh0IGZpbGw9IiMwMDAwMDAiIGZvbnQtZmFtaWx5PSJzYW5zLXNlcmlmIiBmb250LXNpemU9IjE0IiBsZW5ndGhBZGp1c3Q9InNwYWNpbmciIHRleHRMZW5ndGg9IjQ5IiB4PSI5MjIuNSIgeT0iOTMwLjk1NDQiPkhpc3Rvcnk8L3RleHQ+PC9nPjxlbGxpcHNlIGN4PSI1NDgiIGN5PSI1OCIgZmlsbD0iIzIyMjIyMiIgcng9IjEwIiByeT0iMTAiIHN0eWxlPSJzdHJva2U6IzIyMjIyMjtzdHJva2Utd2lkdGg6MTsiLz48ZyBpZD0iVGlja2V0X0Jvb2tpbmcuU2VsZWN0X1N0YXRpb25zIj48cmVjdCBmaWxsPSIjRjFGMUYxIiBoZWlnaHQ9IjUwIiByeD0iMTIuNSIgcnk9IjEyLjUiIHN0eWxlPSJzdHJva2U6IzE4MTgxODtzdHJva2Utd2lkdGg6MC41OyIgd2lkdGg9IjEyNSIgeD0iNDg1LjUiIHk9IjE0OSIvPjxsaW5lIHN0eWxlPSJzdHJva2U6IzE4MTgxODtzdHJva2Utd2lkdGg6MC41OyIgeDE9IjQ4NS41IiB4Mj0iNjEwLjUiIHkxPSIxNzMuOTg0NCIgeTI9IjE3My45ODQ0Ii8+PHRleHQgZmlsbD0iIzAwMDAwMCIgZm9udC1mYW1pbHk9InNhbnMtc2VyaWYiIGZvbnQtc2l6ZT0iMTQiIGxlbmd0aEFkanVzdD0ic3BhY2luZyIgdGV4dExlbmd0aD0iMTA1IiB4PSI0OTUuNSIgeT0iMTY3LjIzNDQiPlNlbGVjdF9TdGF0aW9uczwvdGV4dD48L2c+PGcgaWQ9IlRpY2tldF9Cb29raW5nLlZpZXdfRmFyZSI+PHJlY3QgZmlsbD0iI0YxRjFGMSIgaGVpZ2h0PSI1MCIgcng9IjEyLjUiIHJ5PSIxMi41IiBzdHlsZT0ic3Ryb2tlOiMxODE4MTg7c3Ryb2tlLXdpZHRoOjAuNTsiIHdpZHRoPSI4MyIgeD0iNDg1LjUiIHk9IjI4MCIvPjxsaW5lIHN0eWxlPSJzdHJva2U6IzE4MTgxODtzdHJva2Utd2lkdGg6MC41OyIgeDE9IjQ4NS41IiB4Mj0iNTY4LjUiIHkxPSIzMDQuOTg0NCIgeTI9IjMwNC45ODQ0Ii8+PHRleHQgZmlsbD0iIzAwMDAwMCIgZm9udC1mYW1pbHk9InNhbnMtc2VyaWYiIGZvbnQtc2l6ZT0iMTQiIGxlbmd0aEFkanVzdD0ic3BhY2luZyIgdGV4dExlbmd0aD0iNjMiIHg9IjQ5NS41IiB5PSIyOTguMjM0NCI+Vmlld19GYXJlPC90ZXh0PjwvZz48ZyBpZD0iVGlja2V0X0Jvb2tpbmcuUGF5bWVudF9Qcm9jZXNzaW5nIj48cmVjdCBmaWxsPSIjRjFGMUYxIiBoZWlnaHQ9IjUwIiByeD0iMTIuNSIgcnk9IjEyLjUiIHN0eWxlPSJzdHJva2U6IzE4MTgxODtzdHJva2Utd2lkdGg6MC41OyIgd2lkdGg9IjE0NiIgeD0iNDg1IiB5PSI0MjUiLz48bGluZSBzdHlsZT0ic3Ryb2tlOiMxODE4MTg7c3Ryb2tlLXdpZHRoOjAuNTsiIHgxPSI0ODUiIHgyPSI2MzEiIHkxPSI0NDkuOTg0NCIgeTI9IjQ0OS45ODQ0Ii8+PHRleHQgZmlsbD0iIzAwMDAwMCIgZm9udC1mYW1pbHk9InNhbnMtc2VyaWYiIGZvbnQtc2l6ZT0iMTQiIGxlbmd0aEFkanVzdD0ic3BhY2luZyIgdGV4dExlbmd0aD0iMTI2IiB4PSI0OTUiIHk9IjQ0My4yMzQ0Ij5QYXltZW50X1Byb2Nlc3Npbmc8L3RleHQ+PC9nPjxnIGlkPSJUaWNrZXRfQm9va2luZy5UaWNrZXRfQ29uZmlybWVkIj48cmVjdCBmaWxsPSIjRjFGMUYxIiBoZWlnaHQ9IjUwIiByeD0iMTIuNSIgcnk9IjEyLjUiIHN0eWxlPSJzdHJva2U6IzE4MTgxODtzdHJva2Utd2lkdGg6MC41OyIgd2lkdGg9IjEzMiIgeD0iNTE3IiB5PSI1NTAiLz48bGluZSBzdHlsZT0ic3Ryb2tlOiMxODE4MTg7c3Ryb2tlLXdpZHRoOjAuNTsiIHgxPSI1MTciIHgyPSI2NDkiIHkxPSI1NzQuOTg0NCIgeTI9IjU3NC45ODQ0Ii8+PHRleHQgZmlsbD0iIzAwMDAwMCIgZm9udC1mYW1pbHk9InNhbnMtc2VyaWYiIGZvbnQtc2l6ZT0iMTQiIGxlbmd0aEFkanVzdD0ic3BhY2luZyIgdGV4dExlbmd0aD0iMTEyIiB4PSI1MjciIHk9IjU2OC4yMzQ0Ij5UaWNrZXRfQ29uZmlybWVkPC90ZXh0PjwvZz48ZyBpZD0iVGlja2V0X0Jvb2tpbmcuUVJfR2VuZXJhdGVkIj48cmVjdCBmaWxsPSIjRjFGMUYxIiBoZWlnaHQ9IjUwIiByeD0iMTIuNSIgcnk9IjEyLjUiIHN0eWxlPSJzdHJva2U6IzE4MTgxODtzdHJva2Utd2lkdGg6MC41OyIgd2lkdGg9IjEwNCIgeD0iNTQ3IiB5PSI2NzUiLz48bGluZSBzdHlsZT0ic3Ryb2tlOiMxODE4MTg7c3Ryb2tlLXdpZHRoOjAuNTsiIHgxPSI1NDciIHgyPSI2NTEiIHkxPSI2OTkuOTg0NCIgeTI9IjY5OS45ODQ0Ii8+PHRleHQgZmlsbD0iIzAwMDAwMCIgZm9udC1mYW1pbHk9InNhbnMtc2VyaWYiIGZvbnQtc2l6ZT0iMTQiIGxlbmd0aEFkanVzdD0ic3BhY2luZyIgdGV4dExlbmd0aD0iODQiIHg9IjU1NyIgeT0iNjkzLjIzNDQiPlFSX0dlbmVyYXRlZDwvdGV4dD48L2c+PGVsbGlwc2UgY3g9Ijk1NyIgY3k9IjMwNSIgZmlsbD0iIzIyMjIyMiIgcng9IjEwIiByeT0iMTAiIHN0eWxlPSJzdHJva2U6IzIyMjIyMjtzdHJva2Utd2lkdGg6MTsiLz48ZyBpZD0iUm91dGVfUGxhbm5lci5FbnRlcl9Mb2NhdGlvbiI+PHJlY3QgZmlsbD0iI0YxRjFGMSIgaGVpZ2h0PSI1MCIgcng9IjEyLjUiIHJ5PSIxMi41IiBzdHlsZT0ic3Ryb2tlOiMxODE4MTg7c3Ryb2tlLXdpZHRoOjAuNTsiIHdpZHRoPSIxMTgiIHg9Ijg5OCIgeT0iNDI1Ii8+PGxpbmUgc3R5bGU9InN0cm9rZTojMTgxODE4O3N0cm9rZS13aWR0aDowLjU7IiB4MT0iODk4IiB4Mj0iMTAxNiIgeTE9IjQ0OS45ODQ0IiB5Mj0iNDQ5Ljk4NDQiLz48dGV4dCBmaWxsPSIjMDAwMDAwIiBmb250LWZhbWlseT0ic2Fucy1zZXJpZiIgZm9udC1zaXplPSIxNCIgbGVuZ3RoQWRqdXN0PSJzcGFjaW5nIiB0ZXh0TGVuZ3RoPSI5OCIgeD0iOTA4IiB5PSI0NDMuMjM0NCI+RW50ZXJfTG9jYXRpb248L3RleHQ+PC9nPjxnIGlkPSJSb3V0ZV9QbGFubmVyLlZpZXdfU3VnZ2VzdGlvbnMiPjxyZWN0IGZpbGw9IiNGMUYxRjEiIGhlaWdodD0iNTAiIHJ4PSIxMi41IiByeT0iMTIuNSIgc3R5bGU9InN0cm9rZTojMTgxODE4O3N0cm9rZS13aWR0aDowLjU7IiB3aWR0aD0iMTMyIiB4PSI4OTEiIHk9IjU1MCIvPjxsaW5lIHN0eWxlPSJzdHJva2U6IzE4MTgxODtzdHJva2Utd2lkdGg6MC41OyIgeDE9Ijg5MSIgeDI9IjEwMjMiIHkxPSI1NzQuOTg0NCIgeTI9IjU3NC45ODQ0Ii8+PHRleHQgZmlsbD0iIzAwMDAwMCIgZm9udC1mYW1pbHk9InNhbnMtc2VyaWYiIGZvbnQtc2l6ZT0iMTQiIGxlbmd0aEFkanVzdD0ic3BhY2luZyIgdGV4dExlbmd0aD0iMTEyIiB4PSI5MDEiIHk9IjU2OC4yMzQ0Ij5WaWV3X1N1Z2dlc3Rpb25zPC90ZXh0PjwvZz48ZyBpZD0iUm91dGVfUGxhbm5lci5Sb3V0ZV9TZWxlY3RlZCI+PHJlY3QgZmlsbD0iI0YxRjFGMSIgaGVpZ2h0PSI1MCIgcng9IjEyLjUiIHJ5PSIxMi41IiBzdHlsZT0ic3Ryb2tlOiMxODE4MTg7c3Ryb2tlLXdpZHRoOjAuNTsiIHdpZHRoPSIxMTgiIHg9Ijg5NCIgeT0iNjc1Ii8+PGxpbmUgc3R5bGU9InN0cm9rZTojMTgxODE4O3N0cm9rZS13aWR0aDowLjU7IiB4MT0iODk0IiB4Mj0iMTAxMiIgeTE9IjY5OS45ODQ0IiB5Mj0iNjk5Ljk4NDQiLz48dGV4dCBmaWxsPSIjMDAwMDAwIiBmb250LWZhbWlseT0ic2Fucy1zZXJpZiIgZm9udC1zaXplPSIxNCIgbGVuZ3RoQWRqdXN0PSJzcGFjaW5nIiB0ZXh0TGVuZ3RoPSI5OCIgeD0iOTA0IiB5PSI2OTMuMjM0NCI+Um91dGVfU2VsZWN0ZWQ8L3RleHQ+PC9nPjxlbGxpcHNlIGN4PSIxMzEwIiBjeT0iNDUwIiBmaWxsPSIjMjIyMjIyIiByeD0iMTAiIHJ5PSIxMCIgc3R5bGU9InN0cm9rZTojMjIyMjIyO3N0cm9rZS13aWR0aDoxOyIvPjxnIGlkPSJMaXZlX1VwZGF0ZXMuRmV0Y2hfU3RhdHVzIj48cmVjdCBmaWxsPSIjRjFGMUYxIiBoZWlnaHQ9IjUwIiByeD0iMTIuNSIgcnk9IjEyLjUiIHN0eWxlPSJzdHJva2U6IzE4MTgxODtzdHJva2Utd2lkdGg6MC41OyIgd2lkdGg9IjEwNCIgeD0iMTI1OCIgeT0iNTUwIi8+PGxpbmUgc3R5bGU9InN0cm9rZTojMTgxODE4O3N0cm9rZS13aWR0aDowLjU7IiB4MT0iMTI1OCIgeDI9IjEzNjIiIHkxPSI1NzQuOTg0NCIgeTI9IjU3NC45ODQ0Ii8+PHRleHQgZmlsbD0iIzAwMDAwMCIgZm9udC1mYW1pbHk9InNhbnMtc2VyaWYiIGZvbnQtc2l6ZT0iMTQiIGxlbmd0aEFkanVzdD0ic3BhY2luZyIgdGV4dExlbmd0aD0iODQiIHg9IjEyNjgiIHk9IjU2OC4yMzQ0Ij5GZXRjaF9TdGF0dXM8L3RleHQ+PC9nPjxnIGlkPSJMaXZlX1VwZGF0ZXMuRGlzcGxheV9VcGRhdGVzIj48cmVjdCBmaWxsPSIjRjFGMUYxIiBoZWlnaHQ9IjUwIiByeD0iMTIuNSIgcnk9IjEyLjUiIHN0eWxlPSJzdHJva2U6IzE4MTgxODtzdHJva2Utd2lkdGg6MC41OyIgd2lkdGg9IjEyNSIgeD0iMTI0Ny41IiB5PSI2NzUiLz48bGluZSBzdHlsZT0ic3Ryb2tlOiMxODE4MTg7c3Ryb2tlLXdpZHRoOjAuNTsiIHgxPSIxMjQ3LjUiIHgyPSIxMzcyLjUiIHkxPSI2OTkuOTg0NCIgeTI9IjY5OS45ODQ0Ii8+PHRleHQgZmlsbD0iIzAwMDAwMCIgZm9udC1mYW1pbHk9InNhbnMtc2VyaWYiIGZvbnQtc2l6ZT0iMTQiIGxlbmd0aEFkanVzdD0ic3BhY2luZyIgdGV4dExlbmd0aD0iMTA1IiB4PSIxMjU3LjUiIHk9IjY5My4yMzQ0Ij5EaXNwbGF5X1VwZGF0ZXM8L3RleHQ+PC9nPjxlbGxpcHNlIGN4PSIxNjU0IiBjeT0iMTc0IiBmaWxsPSIjMjIyMjIyIiByeD0iMTAiIHJ5PSIxMCIgc3R5bGU9InN0cm9rZTojMjIyMjIyO3N0cm9rZS13aWR0aDoxOyIvPjxnIGlkPSJXYWxsZXRfVG9wdXAuU2VsZWN0X01ldGhvZCI+PHJlY3QgZmlsbD0iI0YxRjFGMSIgaGVpZ2h0PSI1MCIgcng9IjEyLjUiIHJ5PSIxMi41IiBzdHlsZT0ic3Ryb2tlOiMxODE4MTg7c3Ryb2tlLXdpZHRoOjAuNTsiIHdpZHRoPSIxMTEiIHg9IjE1OTguNSIgeT0iMjgwIi8+PGxpbmUgc3R5bGU9InN0cm9rZTojMTgxODE4O3N0cm9rZS13aWR0aDowLjU7IiB4MT0iMTU5OC41IiB4Mj0iMTcwOS41IiB5MT0iMzA0Ljk4NDQiIHkyPSIzMDQuOTg0NCIvPjx0ZXh0IGZpbGw9IiMwMDAwMDAiIGZvbnQtZmFtaWx5PSJzYW5zLXNlcmlmIiBmb250LXNpemU9IjE0IiBsZW5ndGhBZGp1c3Q9InNwYWNpbmciIHRleHRMZW5ndGg9IjkxIiB4PSIxNjA4LjUiIHk9IjI5OC4yMzQ0Ij5TZWxlY3RfTWV0aG9kPC90ZXh0PjwvZz48ZyBpZD0iV2FsbGV0X1RvcHVwLkVudGVyX0Ftb3VudCI+PHJlY3QgZmlsbD0iI0YxRjFGMSIgaGVpZ2h0PSI1MCIgcng9IjEyLjUiIHJ5PSIxMi41IiBzdHlsZT0ic3Ryb2tlOiMxODE4MTg7c3Ryb2tlLXdpZHRoOjAuNTsiIHdpZHRoPSIxMDQiIHg9IjE1OTkiIHk9IjQyNSIvPjxsaW5lIHN0eWxlPSJzdHJva2U6IzE4MTgxODtzdHJva2Utd2lkdGg6MC41OyIgeDE9IjE1OTkiIHgyPSIxNzAzIiB5MT0iNDQ5Ljk4NDQiIHkyPSI0NDkuOTg0NCIvPjx0ZXh0IGZpbGw9IiMwMDAwMDAiIGZvbnQtZmFtaWx5PSJzYW5zLXNlcmlmIiBmb250LXNpemU9IjE0IiBsZW5ndGhBZGp1c3Q9InNwYWNpbmciIHRleHRMZW5ndGg9Ijg0IiB4PSIxNjA5IiB5PSI0NDMuMjM0NCI+RW50ZXJfQW1vdW50PC90ZXh0PjwvZz48ZyBpZD0iV2FsbGV0X1RvcHVwLlBheW1lbnRfUHJvY2Vzc2luZ19Ub3B1cCI+PHJlY3QgZmlsbD0iI0YxRjFGMSIgaGVpZ2h0PSI1MCIgcng9IjEyLjUiIHJ5PSIxMi41IiBzdHlsZT0ic3Ryb2tlOiMxODE4MTg7c3Ryb2tlLXdpZHRoOjAuNTsiIHdpZHRoPSIxODgiIHg9IjE1OTkiIHk9IjU1MCIvPjxsaW5lIHN0eWxlPSJzdHJva2U6IzE4MTgxODtzdHJva2Utd2lkdGg6MC41OyIgeDE9IjE1OTkiIHgyPSIxNzg3IiB5MT0iNTc0Ljk4NDQiIHkyPSI1NzQuOTg0NCIvPjx0ZXh0IGZpbGw9IiMwMDAwMDAiIGZvbnQtZmFtaWx5PSJzYW5zLXNlcmlmIiBmb250LXNpemU9IjE0IiBsZW5ndGhBZGp1c3Q9InNwYWNpbmciIHRleHRMZW5ndGg9IjE2OCIgeD0iMTYwOSIgeT0iNTY4LjIzNDQiPlBheW1lbnRfUHJvY2Vzc2luZ19Ub3B1cDwvdGV4dD48L2c+PGcgaWQ9IldhbGxldF9Ub3B1cC5XYWxsZXRfVXBkYXRlZCI+PHJlY3QgZmlsbD0iI0YxRjFGMSIgaGVpZ2h0PSI1MCIgcng9IjEyLjUiIHJ5PSIxMi41IiBzdHlsZT0ic3Ryb2tlOiMxODE4MTg7c3Ryb2tlLXdpZHRoOjAuNTsiIHdpZHRoPSIxMTgiIHg9IjE2MTYiIHk9IjY3NSIvPjxsaW5lIHN0eWxlPSJzdHJva2U6IzE4MTgxODtzdHJva2Utd2lkdGg6MC41OyIgeDE9IjE2MTYiIHgyPSIxNzM0IiB5MT0iNjk5Ljk4NDQiIHkyPSI2OTkuOTg0NCIvPjx0ZXh0IGZpbGw9IiMwMDAwMDAiIGZvbnQtZmFtaWx5PSJzYW5zLXNlcmlmIiBmb250LXNpemU9IjE0IiBsZW5ndGhBZGp1c3Q9InNwYWNpbmciIHRleHRMZW5ndGg9Ijk4IiB4PSIxNjI2IiB5PSI2OTMuMjM0NCI+V2FsbGV0X1VwZGF0ZWQ8L3RleHQ+PC9nPjxlbGxpcHNlIGN4PSIyMCIgY3k9IjE3NCIgZmlsbD0iIzIyMjIyMiIgcng9IjEwIiByeT0iMTAiIHN0eWxlPSJzdHJva2U6IzIyMjIyMjtzdHJva2Utd2lkdGg6MTsiLz48ZWxsaXBzZSBjeD0iMTA5NiIgY3k9IjkzNy43MiIgZmlsbD0ibm9uZSIgcng9IjExIiByeT0iMTEiIHN0eWxlPSJzdHJva2U6IzIyMjIyMjtzdHJva2Utd2lkdGg6MTsiLz48ZWxsaXBzZSBjeD0iMTA5NiIgY3k9IjkzNy43MiIgZmlsbD0iIzIyMjIyMiIgcng9IjYiIHJ5PSI2IiBzdHlsZT0ic3Ryb2tlOiMyMjIyMjI7c3Ryb2tlLXdpZHRoOjE7Ii8+PCEtLWxpbmsgKnN0YXJ0KiB0byBBcHBfT3BlbmVkLS0+PGcgY2xhc3M9ImxpbmsiIGRhdGEtZW50aXR5LTE9IipzdGFydCoiIGRhdGEtZW50aXR5LTI9IkFwcF9PcGVuZWQiIGRhdGEtc291cmNlLWxpbmU9IjYiIGRhdGEtdWlkPSJsbmszIiBpZD0ibGlua18qc3RhcnQqX0FwcF9PcGVuZWQiPjxwYXRoIGQ9Ik0yMCwxODQuMjggQzIwLDE5OC44MzUgMjAsMjIyLjA2NSAyMCwyNDcuOTk3NSIgZmlsbD0ibm9uZSIgaWQ9IipzdGFydCotdG8tQXBwX09wZW5lZCIgc3R5bGU9InN0cm9rZTojMTgxODE4O3N0cm9rZS13aWR0aDoxOyIvPjxwb2x5Z29uIGZpbGw9IiMxODE4MTgiIHBvaW50cz0iMjAsMjUzLjk5NzUsMjQsMjQ0Ljk5NzUsMjAsMjQ4Ljk5NzUsMTYsMjQ0Ljk5NzUsMjAsMjUzLjk5NzUiIHN0eWxlPSJzdHJva2U6IzE4MTgxODtzdHJva2Utd2lkdGg6MTsiLz48L2c+PCEtLWxpbmsgKnN0YXJ0KkFwcF9PcGVuZWQgdG8gTG9naW5fU2NyZWVuLS0+PGcgY2xhc3M9ImxpbmsiIGRhdGEtZW50aXR5LTE9IipzdGFydCpBcHBfT3BlbmVkIiBkYXRhLWVudGl0eS0yPSJMb2dpbl9TY3JlZW4iIGRhdGEtc291cmNlLWxpbmU9IjkiIGRhdGEtdWlkPSJsbms2IiBpZD0ibGlua18qc3RhcnQqQXBwX09wZW5lZF9Mb2dpbl9TY3JlZW4iPjxwYXRoIGQ9Ik05NiwzMTUuMzggQzk2LDMzNy4zOCA5NiwzODYuODMgOTYsNDE4Ljk2IiBmaWxsPSJub25lIiBpZD0iKnN0YXJ0KkFwcF9PcGVuZWQtdG8tTG9naW5fU2NyZWVuIiBzdHlsZT0ic3Ryb2tlOiMxODE4MTg7c3Ryb2tlLXdpZHRoOjE7Ii8+PHBvbHlnb24gZmlsbD0iIzE4MTgxOCIgcG9pbnRzPSI5Niw0MjQuOTYsMTAwLDQxNS45Niw5Niw0MTkuOTYsOTIsNDE1Ljk2LDk2LDQyNC45NiIgc3R5bGU9InN0cm9rZTojMTgxODE4O3N0cm9rZS13aWR0aDoxOyIvPjwvZz48IS0tbGluayBMb2dpbl9TY3JlZW4gdG8gQWNjb3VudF9DcmVhdGlvbi0tPjxnIGNsYXNzPSJsaW5rIiBkYXRhLWVudGl0eS0xPSJMb2dpbl9TY3JlZW4iIGRhdGEtZW50aXR5LTI9IkFjY291bnRfQ3JlYXRpb24iIGRhdGEtc291cmNlLWxpbmU9IjEwIiBkYXRhLXVpZD0ibG5rOCIgaWQ9ImxpbmtfTG9naW5fU2NyZWVuX0FjY291bnRfQ3JlYXRpb24iPjxwYXRoIGQ9Ik05OC43Myw0NzUuMDEgQzEwMS4xOCw0OTYuNTQgMTA0LjA3OTYsNTIyLjAyODcgMTA2LjU0OTYsNTQzLjY2ODciIGZpbGw9Im5vbmUiIGlkPSJMb2dpbl9TY3JlZW4tdG8tQWNjb3VudF9DcmVhdGlvbiIgc3R5bGU9InN0cm9rZTojMTgxODE4O3N0cm9rZS13aWR0aDoxOyIvPjxwb2x5Z29uIGZpbGw9IiMxODE4MTgiIHBvaW50cz0iMTA3LjIzLDU0OS42MywxMTAuMTgzNiw1NDAuMjM0NCwxMDYuNjYzLDU0NC42NjIzLDEwMi4yMzUyLDU0MS4xNDE3LDEwNy4yMyw1NDkuNjMiIHN0eWxlPSJzdHJva2U6IzE4MTgxODtzdHJva2Utd2lkdGg6MTsiLz48dGV4dCBmaWxsPSIjMDAwMDAwIiBmb250LWZhbWlseT0ic2Fucy1zZXJpZiIgZm9udC1zaXplPSIxMyIgbGVuZ3RoQWRqdXN0PSJzcGFjaW5nIiB0ZXh0TGVuZ3RoPSI0NS41IiB4PSIxMDQiIHk9IjUxOC4yODkxIj5TaWduIFVwPC90ZXh0PjwvZz48IS0tbGluayBMb2dpbl9TY3JlZW4gdG8gRGFzaGJvYXJkLS0+PGcgY2xhc3M9ImxpbmsiIGRhdGEtZW50aXR5LTE9IkxvZ2luX1NjcmVlbiIgZGF0YS1lbnRpdHktMj0iRGFzaGJvYXJkIiBkYXRhLXNvdXJjZS1saW5lPSIxMSIgZGF0YS11aWQ9ImxuazkiIGlkPSJsaW5rX0xvZ2luX1NjcmVlbl9EYXNoYm9hcmQiPjxwYXRoIGQ9Ik0xMjMuNzUsNDc1LjA4IEMyMDYuNzQsNTQ2Ljk5IDQ0OC41Nyw3NTUuODEgNDY5LDc2NSBDNDk2LjAzNSw3NzcuMTU3NSA1NDIuNDUxOSw3ODcuNjc0NCA1OTYuOTcyLDc5Ni42MTY2IEM2MjQuMjMyMSw4MDEuMDg3NyA2NTMuNTE4LDgwNS4xNjUxIDY4My40MTk5LDgwOC44NTcxIEM2OTguMzcwOCw4MTAuNzAzMSA3MTMuNDc1OCw4MTIuNDUyNyA3MjguNTU4NSw4MTQuMTA3IEM3MzYuMDk5OSw4MTQuOTM0MiA3NDMuNjM1Nyw4MTUuNzM3NSA3NTEuMTQzOSw4MTYuNTE3MSBDNzU0Ljg5OCw4MTYuOTA2OSA3NTguNjQ1Miw4MTcuMjkwOCA3NjIuMzgyOCw4MTcuNjY4OCBDNzY0LjI1MTYsODE3Ljg1NzggNzYwLjE0NzYsODE3LjQ0OTMgNzYyLjAxMTIsODE3LjYzNTMiIGZpbGw9Im5vbmUiIGlkPSJMb2dpbl9TY3JlZW4tdG8tRGFzaGJvYXJkIiBzdHlsZT0ic3Ryb2tlOiMxODE4MTg7c3Ryb2tlLXdpZHRoOjE7Ii8+PHBvbHlnb24gZmlsbD0iIzE4MTgxOCIgcG9pbnRzPSI3NjcuOTgxNSw4MTguMjMxMyw3NTkuNDIzNCw4MTMuMzU3MSw3NjMuMDA2Myw4MTcuNzM0Nyw3NTguNjI4Nyw4MjEuMzE3Niw3NjcuOTgxNSw4MTguMjMxMyIgc3R5bGU9InN0cm9rZTojMTgxODE4O3N0cm9rZS13aWR0aDoxOyIvPjx0ZXh0IGZpbGw9IiMwMDAwMDAiIGZvbnQtZmFtaWx5PSJzYW5zLXNlcmlmIiBmb250LXNpemU9IjEzIiBsZW5ndGhBZGp1c3Q9InNwYWNpbmciIHRleHRMZW5ndGg9Ijg0LjUiIHg9IjMxOSIgeT0iNjQzLjI4OTEiPkxvZ2luIFN1Y2Nlc3M8L3RleHQ+PC9nPjwhLS1saW5rIExvZ2luX1NjcmVlbiB0byBMb2dpbl9TY3JlZW4tLT48ZyBjbGFzcz0ibGluayIgZGF0YS1lbnRpdHktMT0iTG9naW5fU2NyZWVuIiBkYXRhLWVudGl0eS0yPSJMb2dpbl9TY3JlZW4iIGRhdGEtc291cmNlLWxpbmU9IjEyIiBkYXRhLXVpZD0ibG5rMTAiIGlkPSJsaW5rX0xvZ2luX1NjcmVlbl9Mb2dpbl9TY3JlZW4iPjxwYXRoIGQ9Ik0xNDguMjQsNDM4LjM5IEMxNjcuMzUsNDM4LjA4IDE4Myw0NDEuOTUgMTgzLDQ1MCBDMTgzLDQ1OC4wNSAxNzMuMzQ5Miw0NjIuMDE3MyAxNTQuMjM5Miw0NjEuNzA3MyIgZmlsbD0ibm9uZSIgaWQ9IkxvZ2luX1NjcmVlbi10by1Mb2dpbl9TY3JlZW4iIHN0eWxlPSJzdHJva2U6IzE4MTgxODtzdHJva2Utd2lkdGg6MTsiLz48cG9seWdvbiBmaWxsPSIjMTgxODE4IiBwb2ludHM9IjE0OC4yNCw0NjEuNjEsMTU3LjE3MzksNDY1Ljc1NTUsMTUzLjIzOTMsNDYxLjY5MTEsMTU3LjMwMzcsNDU3Ljc1NjUsMTQ4LjI0LDQ2MS42MSIgc3R5bGU9InN0cm9rZTojMTgxODE4O3N0cm9rZS13aWR0aDoxOyIvPjx0ZXh0IGZpbGw9IiMwMDAwMDAiIGZvbnQtZmFtaWx5PSJzYW5zLXNlcmlmIiBmb250LXNpemU9IjEzIiBsZW5ndGhBZGp1c3Q9InNwYWNpbmciIHRleHRMZW5ndGg9IjE3NS41IiB4PSIxODkiIHk9IjQ1NS43ODkxIj5JbnZhbGlkIENyZWRlbnRpYWxzICYjMTcxO2Vycm9yJiMxODc7PC90ZXh0PjwvZz48IS0tbGluayBBY2NvdW50X0NyZWF0aW9uIHRvIE9UUF9WZXJpZmljYXRpb24tLT48ZyBjbGFzcz0ibGluayIgZGF0YS1lbnRpdHktMT0iQWNjb3VudF9DcmVhdGlvbiIgZGF0YS1lbnRpdHktMj0iT1RQX1ZlcmlmaWNhdGlvbiIgZGF0YS1zb3VyY2UtbGluZT0iMTMiIGRhdGEtdWlkPSJsbmsxMiIgaWQ9ImxpbmtfQWNjb3VudF9DcmVhdGlvbl9PVFBfVmVyaWZpY2F0aW9uIj48cGF0aCBkPSJNODUuODYsNjAwLjAxIEM3NS4xOCw2MTMuNjEgNjYuODgsNjMwLjcgNzYsNjQ1IEM4Ny40LDY2Mi44OSAxMDAuOTAxNiw2NzIuNjQyMSAxMjAuMjkxNiw2ODAuNzIyMSIgZmlsbD0ibm9uZSIgaWQ9IkFjY291bnRfQ3JlYXRpb24tdG8tT1RQX1ZlcmlmaWNhdGlvbiIgc3R5bGU9InN0cm9rZTojMTgxODE4O3N0cm9rZS13aWR0aDoxOyIvPjxwb2x5Z29uIGZpbGw9IiMxODE4MTgiIHBvaW50cz0iMTI1LjgzLDY4My4wMywxMTkuMDYxLDY3NS44NzU5LDEyMS4yMTQ3LDY4MS4xMDY4LDExNS45ODM4LDY4My4yNjA0LDEyNS44Myw2ODMuMDMiIHN0eWxlPSJzdHJva2U6IzE4MTgxODtzdHJva2Utd2lkdGg6MTsiLz48dGV4dCBmaWxsPSIjMDAwMDAwIiBmb250LWZhbWlseT0ic2Fucy1zZXJpZiIgZm9udC1zaXplPSIxMyIgbGVuZ3RoQWRqdXN0PSJzcGFjaW5nIiB0ZXh0TGVuZ3RoPSI3MS41IiB4PSI3NyIgeT0iNjQzLjI4OTEiPlN1Ym1pdCBJbmZvPC90ZXh0PjwvZz48IS0tbGluayBPVFBfVmVyaWZpY2F0aW9uIHRvIEFjY291bnRfQ3JlYXRpb24tLT48ZyBjbGFzcz0ibGluayIgZGF0YS1lbnRpdHktMT0iT1RQX1ZlcmlmaWNhdGlvbiIgZGF0YS1lbnRpdHktMj0iQWNjb3VudF9DcmVhdGlvbiIgZGF0YS1zb3VyY2UtbGluZT0iMTUiIGRhdGEtdWlkPSJsbmsxNCIgaWQ9ImxpbmtfT1RQX1ZlcmlmaWNhdGlvbl9BY2NvdW50X0NyZWF0aW9uIj48cGF0aCBkPSJNMTc5LjU0LDY3NC44MSBDMTcyLjMsNjYxLjMxIDE2Mi43LDY0NC4zNyAxNTMsNjMwIEMxNDYuMTYsNjE5Ljg3IDE0MS43MzExLDYxMy44OTg3IDEzNC4zMjExLDYwNC43Njg3IiBmaWxsPSJub25lIiBpZD0iT1RQX1ZlcmlmaWNhdGlvbi10by1BY2NvdW50X0NyZWF0aW9uIiBzdHlsZT0ic3Ryb2tlOiMxODE4MTg7c3Ryb2tlLXdpZHRoOjE7Ii8+PHBvbHlnb24gZmlsbD0iIzE4MTgxOCIgcG9pbnRzPSIxMzAuNTQsNjAwLjExLDEzMy4xMDU4LDYwOS42MTg4LDEzMy42OTA5LDYwMy45OTIzLDEzOS4zMTc0LDYwNC41Nzc0LDEzMC41NCw2MDAuMTEiIHN0eWxlPSJzdHJva2U6IzE4MTgxODtzdHJva2Utd2lkdGg6MTsiLz48dGV4dCBmaWxsPSIjMDAwMDAwIiBmb250LWZhbWlseT0ic2Fucy1zZXJpZiIgZm9udC1zaXplPSIxMyIgbGVuZ3RoQWRqdXN0PSJzcGFjaW5nIiB0ZXh0TGVuZ3RoPSIxMTciIHg9IjE2MyIgeT0iNjQzLjI4OTEiPk9UUCBGYWlsZWQgJiMxNzE7ZXJyb3ImIzE4Nzs8L3RleHQ+PC9nPjwhLS1saW5rIE9UUF9WZXJpZmljYXRpb24gdG8gRGFzaGJvYXJkLS0+PGcgY2xhc3M9ImxpbmsiIGRhdGEtZW50aXR5LTE9Ik9UUF9WZXJpZmljYXRpb24iIGRhdGEtZW50aXR5LTI9IkRhc2hib2FyZCIgZGF0YS1zb3VyY2UtbGluZT0iMTQiIGRhdGEtdWlkPSJsbmsxMyIgaWQ9ImxpbmtfT1RQX1ZlcmlmaWNhdGlvbl9EYXNoYm9hcmQiPjxwYXRoIGQ9Ik0xOTkuNTksNzI1LjEyIEMyMDcuNDMsNzQ1LjY2IDIyMS44NCw3NzQgMjQ1LDc4OCBDMjgwLjc4LDgwOS42MyA0NjcuMzY1LDgyMS43IDY0Ni4zMjI1LDgyOC4zNzI1IEM2NjguNjkyMiw4MjkuMjA2NiA2OTAuOTQyNyw4MjkuOTU2MyA3MTIuNzY0Niw4MzAuNjI5OCBDNzIzLjY3NTUsODMwLjk2NjYgNzM0LjQ3OTMsODMxLjI4NDMgNzQ1LjEzNzMsODMxLjU4NCBDNzUwLjQ2NjMsODMxLjczMzggNzU1Ljc1ODgsODMxLjg3OTEgNzYxLjAxLDgzMi4wMjAxIEM3NjMuNjM1Niw4MzIuMDkwNSA3NjAuMjUzLDgzMi4wMDI2IDc2Mi44NTczLDgzMi4wNzA5IiBmaWxsPSJub25lIiBpZD0iT1RQX1ZlcmlmaWNhdGlvbi10by1EYXNoYm9hcmQiIHN0eWxlPSJzdHJva2U6IzE4MTgxODtzdHJva2Utd2lkdGg6MTsiLz48cG9seWdvbiBmaWxsPSIjMTgxODE4IiBwb2ludHM9Ijc2OC44NTUzLDgzMi4yMjgyLDc1OS45NjMyLDgyNy45OTM2LDc2My44NTcsODMyLjA5NzEsNzU5Ljc1MzUsODM1Ljk5MDksNzY4Ljg1NTMsODMyLjIyODIiIHN0eWxlPSJzdHJva2U6IzE4MTgxODtzdHJva2Utd2lkdGg6MTsiLz48dGV4dCBmaWxsPSIjMDAwMDAwIiBmb250LWZhbWlseT0ic2Fucy1zZXJpZiIgZm9udC1zaXplPSIxMyIgbGVuZ3RoQWRqdXN0PSJzcGFjaW5nIiB0ZXh0TGVuZ3RoPSI3OCIgeD0iMjQ2IiB5PSI3ODYuMjg5MSI+T1RQIFZlcmlmaWVkPC90ZXh0PjwvZz48IS0tbGluayAqc3RhcnQqRGFzaGJvYXJkIHRvIERhc2hib2FyZC0tPjxnIGNsYXNzPSJsaW5rIiBkYXRhLWVudGl0eS0xPSIqc3RhcnQqRGFzaGJvYXJkIiBkYXRhLWVudGl0eS0yPSJEYXNoYm9hcmQiIGRhdGEtc291cmNlLWxpbmU9IjE5IiBkYXRhLXVpZD0ibG5rMTYiIGlkPSJsaW5rXypzdGFydCpEYXNoYm9hcmRfRGFzaGJvYXJkIj48cGF0aCBkPSJNMTAzMi4yNiw5MjguNjQgQzEwNDAuMjEsOTE1LjMgMTA1My4zNSw4ODguMTIgMTA0Myw4NjcuNzIgQzEwMzMuMSw4NDguMjEgMTAwOS41OTUyLDg0MC4yMzc5IDEwMDcuNzg1Miw4MzkuNjM3OSIgZmlsbD0ibm9uZSIgaWQ9IipzdGFydCpEYXNoYm9hcmQtdG8tRGFzaGJvYXJkIiBzdHlsZT0ic3Ryb2tlOiMxODE4MTg7c3Ryb2tlLXdpZHRoOjE7Ii8+PHBvbHlnb24gZmlsbD0iIzE4MTgxOCIgcG9pbnRzPSIxMDAyLjA5LDgzNy43NSwxMDA5LjM3NDIsODQ0LjM3ODcsMTAwNi44MzYsODM5LjMyMzMsMTAxMS44OTE1LDgzNi43ODUxLDEwMDIuMDksODM3Ljc1IiBzdHlsZT0ic3Ryb2tlOiMxODE4MTg7c3Ryb2tlLXdpZHRoOjE7Ii8+PC9nPjwhLS1saW5rIERhc2hib2FyZCB0byBXYWxsZXRfVG9wdXAtLT48ZyBjbGFzcz0ibGluayIgZGF0YS1lbnRpdHktMT0iRGFzaGJvYXJkIiBkYXRhLWVudGl0eS0yPSJXYWxsZXRfVG9wdXAiIGRhdGEtc291cmNlLWxpbmU9IjIwIiBkYXRhLXVpZD0ibG5rMTciIGlkPSJsaW5rX0Rhc2hib2FyZF9XYWxsZXRfVG9wdXAiPjxwYXRoIGQ9Ik0xMDYzLjMxMTcsODMzLjkyNzcgQzEwNjYuNjM5NSw4MzMuNzg3NiAxMDcwLjA4MjYsODMzLjY0MTYgMTA3My42MzU5LDgzMy40ODk2IEMxMDg3Ljg0ODgsODMyLjg4MTkgMTEwMy44MjQsODMyLjE3OTMgMTEyMS4yMzQ1LDgzMS4zODM0IEMxMTkwLjg3NjYsODI4LjIgMTI4My40ODMxLDgyMy41MjM4IDEzNzguMTI2Myw4MTcuNDUgQzE1NjcuNDEyNSw4MDUuMzAyNSAxNzY0Ljg0NSw3ODcuNTY1IDE4MDMsNzY1IEMxODMyLjUsNzQ3LjU2IDE4NDYsNzM1LjI3IDE4NDYsNzAxIEMxODQ2LDMwNCAxODQ2LDMwNCAxODQ2LDMwNCBDMTg0NiwyNzQuNzYgMTgzNy41MjI1LDI0My4wNTI1IDE4MjguOTEyNSwyMTguMzkgQzE4MjYuNzYsMjEyLjIyNDQgMTgyNC41OTkyLDIwNi40OTkxIDE4MjIuNTYwNSwyMDEuMzYyNyBDMTgyMS41NDEyLDE5OC43OTQ1IDE4MjAuNTUyNCwxOTYuMzczNiAxODE5LjYxMDQsMTk0LjExODQgQzE4MTkuNDkyNywxOTMuODM2NSAxODE5LjM3NTcsMTkzLjU1NzIgMTgxOS4yNTk0LDE5My4yODA2IEMxODE5LjIwMTMsMTkzLjE0MjIgMTgyMS40NzMzLDE5OC41MzM3IDE4MjEuNDE1NiwxOTguMzk2NiIgZmlsbD0ibm9uZSIgaWQ9IkRhc2hib2FyZC10by1XYWxsZXRfVG9wdXAiIHN0eWxlPSJzdHJva2U6IzE4MTgxODtzdHJva2Utd2lkdGg6MTsiLz48cG9seWdvbiBmaWxsPSIjMTgxODE4IiBwb2ludHM9IjE4MTkuMDg1NiwxOTIuODY3NSwxODE4Ljg5NDUsMjAyLjcxNDUsMTgyMS4wMjczLDE5Ny40NzUxLDE4MjYuMjY2NywxOTkuNjA3OSwxODE5LjA4NTYsMTkyLjg2NzUiIHN0eWxlPSJzdHJva2U6IzE4MTgxODtzdHJva2Utd2lkdGg6MTsiLz48dGV4dCBmaWxsPSIjMDAwMDAwIiBmb250LWZhbWlseT0ic2Fucy1zZXJpZiIgZm9udC1zaXplPSIxMyIgbGVuZ3RoQWRqdXN0PSJzcGFjaW5nIiB0ZXh0TGVuZ3RoPSIxMjMuNSIgeD0iMTg0NyIgeT0iNTE4LjI4OTEiPlRhcCAnVG9wLXVwIFdhbGxldCc8L3RleHQ+PC9nPjwhLS1saW5rIERhc2hib2FyZCB0byBUaWNrZXRfQm9va2luZy0tPjxnIGNsYXNzPSJsaW5rIiBkYXRhLWVudGl0eS0xPSJEYXNoYm9hcmQiIGRhdGEtZW50aXR5LTI9IlRpY2tldF9Cb29raW5nIiBkYXRhLXNvdXJjZS1saW5lPSIyMSIgZGF0YS11aWQ9ImxuazE4IiBpZD0ibGlua19EYXNoYm9hcmRfVGlja2V0X0Jvb2tpbmciPjxwYXRoIGQ9Ik04MzkuODU4OCw4MTEuNTIzMiBDODMxLjYwMjMsODA4LjgyNzIgODIzLjQ4MzIsODA1LjgzODYgODE1LjYzMDgsODAyLjUyNTYgQzc5OS45MjU4LDc5NS44OTk3IDc4NS4yODc0LDc4Ny45NzYyIDc3Mi43NDk1LDc3OC41MDEzIEM3NDcuNjczNyw3NTkuNTUxMyA3MzEsNzM0LjM5NSA3MzEsNzAxIEM3MzEsMTczIDczMSwxNzMgNzMxLDE3MyBDNzMxLDE0Ni45MTUgNzIyLjUyMjUsMTE4Ljg5IDcxMy45MTI1LDk3LjE1MzggQzcxMS43Niw5MS43MTk3IDcwOS41OTkyLDg2LjY3ODcgNzA3LjU2MDUsODIuMTU5MyBDNzA2LjU0MTIsNzkuODk5NiA3MDUuNTUyNCw3Ny43NzAzIDcwNC42MTA0LDc1Ljc4NzUgQzcwNC40OTI3LDc1LjUzOTYgNzA0LjM3NTcsNzUuMjk0MSA3MDQuMjU5NCw3NS4wNTA4IEM3MDQuMjAxMyw3NC45MjkyIDcwNi43MzY4LDgwLjIxODcgNzA2LjY3OTEsODAuMDk4MiIgZmlsbD0ibm9uZSIgaWQ9IkRhc2hib2FyZC10by1UaWNrZXRfQm9va2luZyIgc3R5bGU9InN0cm9rZTojMTgxODE4O3N0cm9rZS13aWR0aDoxOyIvPjxwb2x5Z29uIGZpbGw9IiMxODE4MTgiIHBvaW50cz0iNzA0LjA4NTYsNzQuNjg3Nyw3MDQuMzY4OCw4NC41MzI1LDcwNi4yNDY5LDc5LjE5NjUsNzExLjU4MjksODEuMDc0NSw3MDQuMDg1Niw3NC42ODc3IiBzdHlsZT0ic3Ryb2tlOiMxODE4MTg7c3Ryb2tlLXdpZHRoOjE7Ii8+PHRleHQgZmlsbD0iIzAwMDAwMCIgZm9udC1mYW1pbHk9InNhbnMtc2VyaWYiIGZvbnQtc2l6ZT0iMTMiIGxlbmd0aEFkanVzdD0ic3BhY2luZyIgdGV4dExlbmd0aD0iMTEwLjUiIHg9IjczMiIgeT0iNDU1Ljc4OTEiPlRhcCAnQm9vayBUaWNrZXQnPC90ZXh0PjwvZz48IS0tbGluayBEYXNoYm9hcmQgdG8gUm91dGVfUGxhbm5lci0tPjxnIGNsYXNzPSJsaW5rIiBkYXRhLWVudGl0eS0xPSJEYXNoYm9hcmQiIGRhdGEtZW50aXR5LTI9IlJvdXRlX1BsYW5uZXIiIGRhdGEtc291cmNlLWxpbmU9IjIyIiBkYXRhLXVpZD0ibG5rMTkiIGlkPSJsaW5rX0Rhc2hib2FyZF9Sb3V0ZV9QbGFubmVyIj48cGF0aCBkPSJNMTA0Ni44MTkzLDgxMS45NzIzIEMxMDQ2LjkzNDUsODExLjg4NzEgMTA0Ny4wNDk3LDgxMS44MDE4IDEwNDcuMTY0OCw4MTEuNzE2MiBDMTA0Ny4zOTUxLDgxMS41NDUxIDEwNDcuNjI1MSw4MTEuMzczMSAxMDQ3Ljg1NDgsODExLjIwMDMgQzEwNDguMzE0Miw4MTAuODU0OCAxMDQ4Ljc3MjUsODEwLjUwNTkgMTA0OS4yMjkzLDgxMC4xNTM3IEMxMDUwLjE0MjksODA5LjQ0OTMgMTA1MS4wNTA3LDgwOC43MzE2IDEwNTEuOTUwOCw4MDguMDAwOCBDMTA1OS4xNTEzLDgwMi4xNTQ0IDEwNjUuODUyNSw3OTUuNDY3NSAxMDcxLDc4OCBDMTA5My42NCw3NTUuMTYgMTA5Myw3NDAuODggMTA5Myw3MDEgQzEwOTMsNDQ5IDEwOTMsNDQ5IDEwOTMsNDQ5IEMxMDkzLDQxNi4xNCAxMDgxLjg1NzUsMzgwLjk4NSAxMDcwLjU0LDM1My43NTUgQzEwNjcuNzEwNiwzNDYuOTQ3NSAxMDY0Ljg3MDMsMzQwLjYzNTMgMTA2Mi4xOTA0LDMzNC45NzgxIEMxMDYwLjg1MDUsMzMyLjE0OTUgMTA1OS41NTA3LDMyOS40ODQ3IDEwNTguMzEyMywzMjcuMDAzNiBDMTA1Ny42OTMyLDMyNS43NjMgMTA1Ny4wODk0LDMyNC41NjgzIDEwNTYuNTAzNywzMjMuNDIyMSBDMTA1Ni4yMTA5LDMyMi44NDkgMTA1NS45MjI1LDMyMi4yODggMTA1NS42MzksMzIxLjczOTQgQzEwNTUuNDk3MywzMjEuNDY1MSAxMDU1LjM1NjcsMzIxLjE5NCAxMDU1LjIxNzUsMzIwLjkyNTkgQzEwNTUuMTQ3OCwzMjAuNzkxOSAxMDU3Ljg1MDksMzI1Ljk3OTcgMTA1Ny43ODE5LDMyNS44NDczIiBmaWxsPSJub25lIiBpZD0iRGFzaGJvYXJkLXRvLVJvdXRlX1BsYW5uZXIiIHN0eWxlPSJzdHJva2U6IzE4MTgxODtzdHJva2Utd2lkdGg6MTsiLz48cG9seWdvbiBmaWxsPSIjMTgxODE4IiBwb2ludHM9IjEwNTUuMDA5NSwzMjAuNTI2MiwxMDU1LjYyMDcsMzMwLjM1NjEsMTA1Ny4zMTk4LDMyNC45NjA0LDEwNjIuNzE1NSwzMjYuNjU5NiwxMDU1LjAwOTUsMzIwLjUyNjIiIHN0eWxlPSJzdHJva2U6IzE4MTgxODtzdHJva2Utd2lkdGg6MTsiLz48dGV4dCBmaWxsPSIjMDAwMDAwIiBmb250LWZhbWlseT0ic2Fucy1zZXJpZiIgZm9udC1zaXplPSIxMyIgbGVuZ3RoQWRqdXN0PSJzcGFjaW5nIiB0ZXh0TGVuZ3RoPSIxMDQiIHg9IjEwOTQiIHk9IjU4MC43ODkxIj5UYXAgJ1BsYW4gUm91dGUnPC90ZXh0PjwvZz48IS0tbGluayBEYXNoYm9hcmQgdG8gTGl2ZV9VcGRhdGVzLS0+PGcgY2xhc3M9ImxpbmsiIGRhdGEtZW50aXR5LTE9IkRhc2hib2FyZCIgZGF0YS1lbnRpdHktMj0iTGl2ZV9VcGRhdGVzIiBkYXRhLXNvdXJjZS1saW5lPSIyMyIgZGF0YS11aWQ9ImxuazIwIiBpZD0ibGlua19EYXNoYm9hcmRfTGl2ZV9VcGRhdGVzIj48cGF0aCBkPSJNMTA2MS4zMjI4LDgzNC4yMjg4IEMxMDYxLjg0LDgzNC4yMDMgMTA2Mi4zNTk4LDgzNC4xNzY4IDEwNjIuODgyMSw4MzQuMTUwNCBDMTA2NC45NzEzLDgzNC4wNDQ2IDEwNjcuMTAwNCw4MzMuOTM0IDEwNjkuMjY3Myw4MzMuODE4MiBDMTA3My42MDExLDgzMy41ODY4IDEwNzguMDg1OCw4MzMuMzM1IDEwODIuNzAzNiw4MzMuMDYxMiBDMTA5MS45MzkxLDgzMi41MTM2IDExMDEuNzA2Niw4MzEuODc3OSAxMTExLjg2MjEsODMxLjE0MDUgQzExMzIuMTczMSw4MjkuNjY1OSAxMTU0LjAzNjMsODI3Ljc4NDcgMTE3Ni4zLDgyNS4zODg4IEMxMjY1LjM1NSw4MTUuODA1IDEzNjAuODIsNzk3Ljk4NSAxMzg5LDc2NSBDMTQzMy42Myw3MTIuNzU1IDE0MzYuMjY1LDYzNS44NzI1IDE0MjcuNDMyNSw1NzEuMjYxMyBDMTQyMy4wMTYzLDUzOC45NTU2IDE0MTUuNzMzMSw1MDkuNzE3OCAxNDA5LjM5OTEsNDg4LjE2MTQgQzE0MDguNjA3Myw0ODUuNDY2OSAxNDA3LjgzMDQsNDgyLjg5MjMgMTQwNy4wNzU3LDQ4MC40NDY4IEMxNDA2LjY5ODQsNDc5LjIyNDEgMTQwNi4zMjY3LDQ3OC4wMzM2IDE0MDUuOTYxNCw0NzYuODc2NSBDMTQwNS43Nzg4LDQ3Ni4yOTc5IDE0MDUuNTk3OCw0NzUuNzI3NyAxNDA1LjQxODUsNDc1LjE2NiBDMTQwNS4zMjg5LDQ3NC44ODUxIDE0MDcuMDcyNyw0ODAuMzE5NiAxNDA2Ljk4NCw0ODAuMDQzIiBmaWxsPSJub25lIiBpZD0iRGFzaGJvYXJkLXRvLUxpdmVfVXBkYXRlcyIgc3R5bGU9InN0cm9rZTojMTgxODE4O3N0cm9rZS13aWR0aDoxOyIvPjxwb2x5Z29uIGZpbGw9IiMxODE4MTgiIHBvaW50cz0iMTQwNS4xNTEsNDc0LjMyOTgsMTQwNC4wOTE3LDQ4NC4xMjE1LDE0MDYuNjc4NSw0NzkuMDkwOCwxNDExLjcwOTIsNDgxLjY3NzUsMTQwNS4xNTEsNDc0LjMyOTgiIHN0eWxlPSJzdHJva2U6IzE4MTgxODtzdHJva2Utd2lkdGg6MTsiLz48dGV4dCBmaWxsPSIjMDAwMDAwIiBmb250LWZhbWlseT0ic2Fucy1zZXJpZiIgZm9udC1zaXplPSIxMyIgbGVuZ3RoQWRqdXN0PSJzcGFjaW5nIiB0ZXh0TGVuZ3RoPSIxMTciIHg9IjE0MzIiIHk9IjY0My4yODkxIj5UYXAgJ1ZpZXcgVXBkYXRlcyc8L3RleHQ+PC9nPjwhLS1saW5rIERhc2hib2FyZCB0byBGYXZvcml0ZXMtLT48ZyBjbGFzcz0ibGluayIgZGF0YS1lbnRpdHktMT0iRGFzaGJvYXJkIiBkYXRhLWVudGl0eS0yPSJGYXZvcml0ZXMiIGRhdGEtc291cmNlLWxpbmU9IjI0IiBkYXRhLXVpZD0ibG5rMjIiIGlkPSJsaW5rX0Rhc2hib2FyZF9GYXZvcml0ZXMiPjxwYXRoIGQ9Ik0xMDAxLjksODM3LjcyIEM5OTcuNTksODM3Ljc3IDg1OS42Niw4MzkuNCA4MzYsODY3LjcyIEM4MjUuNzgsODc5Ljk1IDgyNS4wNzA5LDg5Mi4xOTM0IDgyNy44MjA5LDkwNi44MTM0IiBmaWxsPSJub25lIiBpZD0iRGFzaGJvYXJkLXRvLUZhdm9yaXRlcyIgc3R5bGU9InN0cm9rZTojMTgxODE4O3N0cm9rZS13aWR0aDoxOyIvPjxwb2x5Z29uIGZpbGw9IiMxODE4MTgiIHBvaW50cz0iODI4LjkzLDkxMi43MSw4MzEuMTk3NCw5MDMuMTI1Nyw4MjguMDA1Nyw5MDcuNzk2Miw4MjMuMzM1Miw5MDQuNjA0NSw4MjguOTMsOTEyLjcxIiBzdHlsZT0ic3Ryb2tlOiMxODE4MTg7c3Ryb2tlLXdpZHRoOjE7Ii8+PHRleHQgZmlsbD0iIzAwMDAwMCIgZm9udC1mYW1pbHk9InNhbnMtc2VyaWYiIGZvbnQtc2l6ZT0iMTMiIGxlbmd0aEFkanVzdD0ic3BhY2luZyIgdGV4dExlbmd0aD0iOTcuNSIgeD0iODM3IiB5PSI4ODEuMDA5MSI+VGFwICdGYXZvcml0ZXMnPC90ZXh0PjwvZz48IS0tbGluayBEYXNoYm9hcmQgdG8gSGlzdG9yeS0tPjxnIGNsYXNzPSJsaW5rIiBkYXRhLWVudGl0eS0xPSJEYXNoYm9hcmQiIGRhdGEtZW50aXR5LTI9Ikhpc3RvcnkiIGRhdGEtc291cmNlLWxpbmU9IjI1IiBkYXRhLXVpZD0ibG5rMjQiIGlkPSJsaW5rX0Rhc2hib2FyZF9IaXN0b3J5Ij48cGF0aCBkPSJNMTAwMS44OSw4MzcuNzQgQzk5OS41OSw4MzguMTYgOTYyLjUzLDg0NS4yNiA5NDksODY3LjcyIEM5NDEuMDIsODgwLjk2IDkzOS45MzMzLDg5Mi40MTUgOTQxLjQ1MzMsOTA2LjQzNSIgZmlsbD0ibm9uZSIgaWQ9IkRhc2hib2FyZC10by1IaXN0b3J5IiBzdHlsZT0ic3Ryb2tlOiMxODE4MTg7c3Ryb2tlLXdpZHRoOjE7Ii8+PHBvbHlnb24gZmlsbD0iIzE4MTgxOCIgcG9pbnRzPSI5NDIuMSw5MTIuNCw5NDUuMTA2Niw5MDMuMDIxMyw5NDEuNTYxMSw5MDcuNDI5MSw5MzcuMTUzMiw5MDMuODgzNiw5NDIuMSw5MTIuNCIgc3R5bGU9InN0cm9rZTojMTgxODE4O3N0cm9rZS13aWR0aDoxOyIvPjx0ZXh0IGZpbGw9IiMwMDAwMDAiIGZvbnQtZmFtaWx5PSJzYW5zLXNlcmlmIiBmb250LXNpemU9IjEzIiBsZW5ndGhBZGp1c3Q9InNwYWNpbmciIHRleHRMZW5ndGg9Ijg0LjUiIHg9Ijk1MCIgeT0iODgxLjAwOTEiPlRhcCAnSGlzdG9yeSc8L3RleHQ+PC9nPjwhLS1saW5rICpzdGFydCpUaWNrZXRfQm9va2luZyB0byBTZWxlY3RfU3RhdGlvbnMtLT48ZyBjbGFzcz0ibGluayIgZGF0YS1lbnRpdHktMT0iKnN0YXJ0KlRpY2tldF9Cb29raW5nIiBkYXRhLWVudGl0eS0yPSJTZWxlY3RfU3RhdGlvbnMiIGRhdGEtc291cmNlLWxpbmU9IjI5IiBkYXRhLXVpZD0ibG5rMjciIGlkPSJsaW5rXypzdGFydCpUaWNrZXRfQm9va2luZ19TZWxlY3RfU3RhdGlvbnMiPjxwYXRoIGQ9Ik01NDgsNjguMzMgQzU0OCw4NS43NyA1NDgsMTE3LjgyIDU0OCwxNDIuOTIiIGZpbGw9Im5vbmUiIGlkPSIqc3RhcnQqVGlja2V0X0Jvb2tpbmctdG8tU2VsZWN0X1N0YXRpb25zIiBzdHlsZT0ic3Ryb2tlOiMxODE4MTg7c3Ryb2tlLXdpZHRoOjE7Ii8+PHBvbHlnb24gZmlsbD0iIzE4MTgxOCIgcG9pbnRzPSI1NDgsMTQ4LjkyLDU1MiwxMzkuOTIsNTQ4LDE0My45Miw1NDQsMTM5LjkyLDU0OCwxNDguOTIiIHN0eWxlPSJzdHJva2U6IzE4MTgxODtzdHJva2Utd2lkdGg6MTsiLz48L2c+PCEtLWxpbmsgU2VsZWN0X1N0YXRpb25zIHRvIFZpZXdfRmFyZS0tPjxnIGNsYXNzPSJsaW5rIiBkYXRhLWVudGl0eS0xPSJTZWxlY3RfU3RhdGlvbnMiIGRhdGEtZW50aXR5LTI9IlZpZXdfRmFyZSIgZGF0YS1zb3VyY2UtbGluZT0iMzAiIGRhdGEtdWlkPSJsbmsyOSIgaWQ9ImxpbmtfU2VsZWN0X1N0YXRpb25zX1ZpZXdfRmFyZSI+PHBhdGggZD0iTTU0NC4wNSwxOTkuMjYgQzU0MC4zLDIyMi4zMyA1MzUuNjQ0NywyNTAuODk4MSA1MzEuODk0NywyNzMuOTE4MSIgZmlsbD0ibm9uZSIgaWQ9IlNlbGVjdF9TdGF0aW9ucy10by1WaWV3X0ZhcmUiIHN0eWxlPSJzdHJva2U6IzE4MTgxODtzdHJva2Utd2lkdGg6MTsiLz48cG9seWdvbiBmaWxsPSIjMTgxODE4IiBwb2ludHM9IjUzMC45MywyNzkuODQsNTM2LjMyNSwyNzEuNjAwMiw1MzEuNzMzOSwyNzQuOTA1MSw1MjguNDI5MSwyNzAuMzE0LDUzMC45MywyNzkuODQiIHN0eWxlPSJzdHJva2U6IzE4MTgxODtzdHJva2Utd2lkdGg6MTsiLz48L2c+PCEtLWxpbmsgVmlld19GYXJlIHRvIFBheW1lbnRfUHJvY2Vzc2luZy0tPjxnIGNsYXNzPSJsaW5rIiBkYXRhLWVudGl0eS0xPSJWaWV3X0ZhcmUiIGRhdGEtZW50aXR5LTI9IlBheW1lbnRfUHJvY2Vzc2luZyIgZGF0YS1zb3VyY2UtbGluZT0iMzEiIGRhdGEtdWlkPSJsbmszMSIgaWQ9ImxpbmtfVmlld19GYXJlX1BheW1lbnRfUHJvY2Vzc2luZyI+PHBhdGggZD0iTTUwMi44NiwzMzAuMjggQzQ5Mi45NywzNDMuMjMgNDg1LjA3LDM1OS42MiA0OTEsMzc1IEM0OTguNDgsMzk0LjQxIDUwOS4yODI5LDQwNy43ODY5IDUyMy4zMTI5LDQyMC44NzY5IiBmaWxsPSJub25lIiBpZD0iVmlld19GYXJlLXRvLVBheW1lbnRfUHJvY2Vzc2luZyIgc3R5bGU9InN0cm9rZTojMTgxODE4O3N0cm9rZS13aWR0aDoxOyIvPjxwb2x5Z29uIGZpbGw9IiMxODE4MTgiIHBvaW50cz0iNTI3LjcsNDI0Ljk3LDUyMy44NDgyLDQxNS45MDU2LDUyNC4wNDQxLDQyMS41NTkxLDUxOC4zOTA3LDQyMS43NTUsNTI3LjcsNDI0Ljk3IiBzdHlsZT0ic3Ryb2tlOiMxODE4MTg7c3Ryb2tlLXdpZHRoOjE7Ii8+PC9nPjwhLS1saW5rIFBheW1lbnRfUHJvY2Vzc2luZyB0byBWaWV3X0ZhcmUtLT48ZyBjbGFzcz0ibGluayIgZGF0YS1lbnRpdHktMT0iUGF5bWVudF9Qcm9jZXNzaW5nIiBkYXRhLWVudGl0eS0yPSJWaWV3X0ZhcmUiIGRhdGEtc291cmNlLWxpbmU9IjMzIiBkYXRhLXVpZD0ibG5rMzQiIGlkPSJsaW5rX1BheW1lbnRfUHJvY2Vzc2luZ19WaWV3X0ZhcmUiPjxwYXRoIGQ9Ik01NTIuNzIsNDI0LjYyIEM1NDcsMzk4LjI4IDUzOS4yMzEzLDM2Mi40MTM4IDUzMy41MzEzLDMzNi4xMjM4IiBmaWxsPSJub25lIiBpZD0iUGF5bWVudF9Qcm9jZXNzaW5nLXRvLVZpZXdfRmFyZSIgc3R5bGU9InN0cm9rZTojMTgxODE4O3N0cm9rZS13aWR0aDoxOyIvPjxwb2x5Z29uIGZpbGw9IiMxODE4MTgiIHBvaW50cz0iNTMyLjI2LDMzMC4yNiw1MzAuMjU3OCwzMzkuOTAzMiw1MzMuMzE5NCwzMzUuMTQ2NSw1MzguMDc2MiwzMzguMjA4MSw1MzIuMjYsMzMwLjI2IiBzdHlsZT0ic3Ryb2tlOiMxODE4MTg7c3Ryb2tlLXdpZHRoOjE7Ii8+PHRleHQgZmlsbD0iIzAwMDAwMCIgZm9udC1mYW1pbHk9InNhbnMtc2VyaWYiIGZvbnQtc2l6ZT0iMTMiIGxlbmd0aEFkanVzdD0ic3BhY2luZyIgdGV4dExlbmd0aD0iMTQzIiB4PSI1NDIiIHk9IjM3My4yODkxIj5QYXltZW50IEZhaWxlZCAmIzE3MTtlcnJvciYjMTg3OzwvdGV4dD48L2c+PCEtLWxpbmsgUGF5bWVudF9Qcm9jZXNzaW5nIHRvIFRpY2tldF9Db25maXJtZWQtLT48ZyBjbGFzcz0ibGluayIgZGF0YS1lbnRpdHktMT0iUGF5bWVudF9Qcm9jZXNzaW5nIiBkYXRhLWVudGl0eS0yPSJUaWNrZXRfQ29uZmlybWVkIiBkYXRhLXNvdXJjZS1saW5lPSIzMiIgZGF0YS11aWQ9ImxuazMzIiBpZD0ibGlua19QYXltZW50X1Byb2Nlc3NpbmdfVGlja2V0X0NvbmZpcm1lZCI+PHBhdGggZD0iTTU2Mi44OCw0NzUuMDEgQzU2Ny4yNiw0OTYuNTQgNTcyLjQ1NDUsNTIyLjExMDMgNTc2Ljg1NDUsNTQzLjc1MDMiIGZpbGw9Im5vbmUiIGlkPSJQYXltZW50X1Byb2Nlc3NpbmctdG8tVGlja2V0X0NvbmZpcm1lZCIgc3R5bGU9InN0cm9rZTojMTgxODE4O3N0cm9rZS13aWR0aDoxOyIvPjxwb2x5Z29uIGZpbGw9IiMxODE4MTgiIHBvaW50cz0iNTc4LjA1LDU0OS42Myw1ODAuMTc2NSw1NDAuMDEzNSw1NzcuMDUzNyw1NDQuNzMwMyw1NzIuMzM3LDU0MS42MDc1LDU3OC4wNSw1NDkuNjMiIHN0eWxlPSJzdHJva2U6IzE4MTgxODtzdHJva2Utd2lkdGg6MTsiLz48dGV4dCBmaWxsPSIjMDAwMDAwIiBmb250LWZhbWlseT0ic2Fucy1zZXJpZiIgZm9udC1zaXplPSIxMyIgbGVuZ3RoQWRqdXN0PSJzcGFjaW5nIiB0ZXh0TGVuZ3RoPSI5Ny41IiB4PSI1NzIiIHk9IjUxOC4yODkxIj5QYXltZW50IFN1Y2Nlc3M8L3RleHQ+PC9nPjwhLS1saW5rIFRpY2tldF9Db25maXJtZWQgdG8gUVJfR2VuZXJhdGVkLS0+PGcgY2xhc3M9ImxpbmsiIGRhdGEtZW50aXR5LTE9IlRpY2tldF9Db25maXJtZWQiIGRhdGEtZW50aXR5LTI9IlFSX0dlbmVyYXRlZCIgZGF0YS1zb3VyY2UtbGluZT0iMzQiIGRhdGEtdWlkPSJsbmszNiIgaWQ9ImxpbmtfVGlja2V0X0NvbmZpcm1lZF9RUl9HZW5lcmF0ZWQiPjxwYXRoIGQ9Ik01ODYuMTIsNjAwLjAxIEM1ODguOTIsNjIxLjU0IDU5Mi4yMzQ3LDY0Ny4wNDAzIDU5NS4wNTQ3LDY2OC42ODAzIiBmaWxsPSJub25lIiBpZD0iVGlja2V0X0NvbmZpcm1lZC10by1RUl9HZW5lcmF0ZWQiIHN0eWxlPSJzdHJva2U6IzE4MTgxODtzdHJva2Utd2lkdGg6MTsiLz48cG9seWdvbiBmaWxsPSIjMTgxODE4IiBwb2ludHM9IjU5NS44Myw2NzQuNjMsNTk4LjYzMzUsNjY1LjE4ODYsNTk1LjE4MzksNjY5LjY3MTksNTkwLjcwMDUsNjY2LjIyMjMsNTk1LjgzLDY3NC42MyIgc3R5bGU9InN0cm9rZTojMTgxODE4O3N0cm9rZS13aWR0aDoxOyIvPjx0ZXh0IGZpbGw9IiMwMDAwMDAiIGZvbnQtZmFtaWx5PSJzYW5zLXNlcmlmIiBmb250LXNpemU9IjEzIiBsZW5ndGhBZGp1c3Q9InNwYWNpbmciIHRleHRMZW5ndGg9IjcxLjUiIHg9IjU5MiIgeT0iNjQzLjI4OTEiPkdlbmVyYXRlIFFSPC90ZXh0PjwvZz48IS0tbGluayBRUl9HZW5lcmF0ZWQgdG8gRGFzaGJvYXJkLS0+PGcgY2xhc3M9ImxpbmsiIGRhdGEtZW50aXR5LTE9IlFSX0dlbmVyYXRlZCIgZGF0YS1lbnRpdHktMj0iRGFzaGJvYXJkIiBkYXRhLXNvdXJjZS1saW5lPSIzNSIgZGF0YS11aWQ9ImxuazM3IiBpZD0ibGlua19RUl9HZW5lcmF0ZWRfRGFzaGJvYXJkIj48cGF0aCBkPSJNNjA2LjczLDcyNS4xIEM2MTQuNTQsNzQ1LjM0IDYyOC42OSw3NzMuMjQgNjUxLDc4OCBDNjY3LjI4NzUsNzk4Ljc3NzUgNjk3LjA5MTMsODA3LjE4MzggNzMyLjcwMzcsODEzLjczMiBDNzQxLjYwNjksODE1LjM2OTEgNzUwLjg3Myw4MTYuODkgNzYwLjM4MTgsODE4LjMwMjkgQzc2Mi43NTksODE4LjY1NjEgNzY1LjE1MTQsODE5LjAwMjYgNzY3LjU1Nyw4MTkuMzQyNCBDNzY4LjE1ODQsODE5LjQyNzMgNzYyLjgxODIsODE4LjY4MjkgNzYzLjQyMTMsODE4Ljc2NyIgZmlsbD0ibm9uZSIgaWQ9IlFSX0dlbmVyYXRlZC10by1EYXNoYm9hcmQiIHN0eWxlPSJzdHJva2U6IzE4MTgxODtzdHJva2Utd2lkdGg6MTsiLz48cG9seWdvbiBmaWxsPSIjMTgxODE4IiBwb2ludHM9Ijc2OS4zNjM3LDgxOS41OTYsNzYxLjAwMjcsODE0LjM5MDgsNzY0LjQxMTcsODE4LjkwNTIsNzU5Ljg5NzQsODIyLjMxNDEsNzY5LjM2MzcsODE5LjU5NiIgc3R5bGU9InN0cm9rZTojMTgxODE4O3N0cm9rZS13aWR0aDoxOyIvPjx0ZXh0IGZpbGw9IiMwMDAwMDAiIGZvbnQtZmFtaWx5PSJzYW5zLXNlcmlmIiBmb250LXNpemU9IjEzIiBsZW5ndGhBZGp1c3Q9InNwYWNpbmciIHRleHRMZW5ndGg9IjUyIiB4PSI2NTIiIHk9Ijc4Ni4yODkxIj5RUiBSZWFkeTwvdGV4dD48L2c+PCEtLWxpbmsgKnN0YXJ0KlJvdXRlX1BsYW5uZXIgdG8gRW50ZXJfTG9jYXRpb24tLT48ZyBjbGFzcz0ibGluayIgZGF0YS1lbnRpdHktMT0iKnN0YXJ0KlJvdXRlX1BsYW5uZXIiIGRhdGEtZW50aXR5LTI9IkVudGVyX0xvY2F0aW9uIiBkYXRhLXNvdXJjZS1saW5lPSIzOSIgZGF0YS11aWQ9ImxuazQwIiBpZD0ibGlua18qc3RhcnQqUm91dGVfUGxhbm5lcl9FbnRlcl9Mb2NhdGlvbiI+PHBhdGggZD0iTTk1NywzMTUuMzggQzk1NywzMzcuMzggOTU3LDM4Ni44MyA5NTcsNDE4Ljk2IiBmaWxsPSJub25lIiBpZD0iKnN0YXJ0KlJvdXRlX1BsYW5uZXItdG8tRW50ZXJfTG9jYXRpb24iIHN0eWxlPSJzdHJva2U6IzE4MTgxODtzdHJva2Utd2lkdGg6MTsiLz48cG9seWdvbiBmaWxsPSIjMTgxODE4IiBwb2ludHM9Ijk1Nyw0MjQuOTYsOTYxLDQxNS45Niw5NTcsNDE5Ljk2LDk1Myw0MTUuOTYsOTU3LDQyNC45NiIgc3R5bGU9InN0cm9rZTojMTgxODE4O3N0cm9rZS13aWR0aDoxOyIvPjwvZz48IS0tbGluayBFbnRlcl9Mb2NhdGlvbiB0byBWaWV3X1N1Z2dlc3Rpb25zLS0+PGcgY2xhc3M9ImxpbmsiIGRhdGEtZW50aXR5LTE9IkVudGVyX0xvY2F0aW9uIiBkYXRhLWVudGl0eS0yPSJWaWV3X1N1Z2dlc3Rpb25zIiBkYXRhLXNvdXJjZS1saW5lPSI0MCIgZGF0YS11aWQ9ImxuazQyIiBpZD0ibGlua19FbnRlcl9Mb2NhdGlvbl9WaWV3X1N1Z2dlc3Rpb25zIj48cGF0aCBkPSJNOTU3LDQ3NS4wMSBDOTU3LDQ5Ni41NCA5NTcsNTIxLjk5IDk1Nyw1NDMuNjMiIGZpbGw9Im5vbmUiIGlkPSJFbnRlcl9Mb2NhdGlvbi10by1WaWV3X1N1Z2dlc3Rpb25zIiBzdHlsZT0ic3Ryb2tlOiMxODE4MTg7c3Ryb2tlLXdpZHRoOjE7Ii8+PHBvbHlnb24gZmlsbD0iIzE4MTgxOCIgcG9pbnRzPSI5NTcsNTQ5LjYzLDk2MSw1NDAuNjMsOTU3LDU0NC42Myw5NTMsNTQwLjYzLDk1Nyw1NDkuNjMiIHN0eWxlPSJzdHJva2U6IzE4MTgxODtzdHJva2Utd2lkdGg6MTsiLz48L2c+PCEtLWxpbmsgVmlld19TdWdnZXN0aW9ucyB0byBSb3V0ZV9TZWxlY3RlZC0tPjxnIGNsYXNzPSJsaW5rIiBkYXRhLWVudGl0eS0xPSJWaWV3X1N1Z2dlc3Rpb25zIiBkYXRhLWVudGl0eS0yPSJSb3V0ZV9TZWxlY3RlZCIgZGF0YS1zb3VyY2UtbGluZT0iNDEiIGRhdGEtdWlkPSJsbms0NCIgaWQ9ImxpbmtfVmlld19TdWdnZXN0aW9uc19Sb3V0ZV9TZWxlY3RlZCI+PHBhdGggZD0iTTk1Ni4yMiw2MDAuMDEgQzk1NS41Miw2MjEuNTQgOTU0LjY5NjgsNjQ2Ljk5MzIgOTUzLjk4NjgsNjY4LjYzMzIiIGZpbGw9Im5vbmUiIGlkPSJWaWV3X1N1Z2dlc3Rpb25zLXRvLVJvdXRlX1NlbGVjdGVkIiBzdHlsZT0ic3Ryb2tlOiMxODE4MTg7c3Ryb2tlLXdpZHRoOjE7Ii8+PHBvbHlnb24gZmlsbD0iIzE4MTgxOCIgcG9pbnRzPSI5NTMuNzksNjc0LjYzLDk1OC4wODMsNjY1Ljc2Niw5NTMuOTU0LDY2OS42MzI3LDk1MC4wODczLDY2NS41MDM3LDk1My43OSw2NzQuNjMiIHN0eWxlPSJzdHJva2U6IzE4MTgxODtzdHJva2Utd2lkdGg6MTsiLz48L2c+PCEtLWxpbmsgUm91dGVfU2VsZWN0ZWQgdG8gRGFzaGJvYXJkLS0+PGcgY2xhc3M9ImxpbmsiIGRhdGEtZW50aXR5LTE9IlJvdXRlX1NlbGVjdGVkIiBkYXRhLWVudGl0eS0yPSJEYXNoYm9hcmQiIGRhdGEtc291cmNlLWxpbmU9IjQyIiBkYXRhLXVpZD0ibG5rNDUiIGlkPSJsaW5rX1JvdXRlX1NlbGVjdGVkX0Rhc2hib2FyZCI+PHBhdGggZD0iTTkyNy4xNyw3MjUuMTcgQzkxMS40Myw3NDIuOTMgODk2LjUzLDc2Ny40NiA5MDksNzg4IEM5MTEuOTc1LDc5Mi45IDkxNS42MjU5LDc5Ny4zMjY0IDkxOS43NDE0LDgwMS4zMjE2IEM5MjEuNzk5Miw4MDMuMzE5MSA5MjMuOTczMSw4MDUuMjA4OSA5MjYuMjM2Niw4MDYuOTk2MiBDOTI3LjM2ODQsODA3Ljg4OTggOTI4LjUyMjcsODA4Ljc1NzggOTI5LjY5Niw4MDkuNjAwOCBDOTMwLjI4MjcsODEwLjAyMjMgOTMwLjg3NDIsODEwLjQzNzYgOTMxLjQ3LDgxMC44NDY3IEM5MzEuNzY3OSw4MTEuMDUxMiA5MzIuMDY2OSw4MTEuMjU0MyA5MzIuMzY2OSw4MTEuNDU1NyBDOTMyLjUxNyw4MTEuNTU2NSA5MjcuNjY5Miw4MDguMzM3MyA5MjcuODE5Nyw4MDguNDM3MyIgZmlsbD0ibm9uZSIgaWQ9IlJvdXRlX1NlbGVjdGVkLXRvLURhc2hib2FyZCIgc3R5bGU9InN0cm9rZTojMTgxODE4O3N0cm9rZS13aWR0aDoxOyIvPjxwb2x5Z29uIGZpbGw9IiMxODE4MTgiIHBvaW50cz0iOTMyLjgxNzgsODExLjc1NjgsOTI3LjUzMzcsODAzLjQ0NTUsOTI4LjY1MjcsODA4Ljk5MDYsOTIzLjEwNzcsODEwLjEwOTYsOTMyLjgxNzgsODExLjc1NjgiIHN0eWxlPSJzdHJva2U6IzE4MTgxODtzdHJva2Utd2lkdGg6MTsiLz48dGV4dCBmaWxsPSIjMDAwMDAwIiBmb250LWZhbWlseT0ic2Fucy1zZXJpZiIgZm9udC1zaXplPSIxMyIgbGVuZ3RoQWRqdXN0PSJzcGFjaW5nIiB0ZXh0TGVuZ3RoPSIxNTYiIHg9IjkxMCIgeT0iNzg2LjI4OTEiPlNhdmUgb3IgU3RhcnQgTmF2aWdhdGlvbjwvdGV4dD48L2c+PCEtLWxpbmsgKnN0YXJ0KkxpdmVfVXBkYXRlcyB0byBGZXRjaF9TdGF0dXMtLT48ZyBjbGFzcz0ibGluayIgZGF0YS1lbnRpdHktMT0iKnN0YXJ0KkxpdmVfVXBkYXRlcyIgZGF0YS1lbnRpdHktMj0iRmV0Y2hfU3RhdHVzIiBkYXRhLXNvdXJjZS1saW5lPSI0NiIgZGF0YS11aWQ9ImxuazQ4IiBpZD0ibGlua18qc3RhcnQqTGl2ZV9VcGRhdGVzX0ZldGNoX1N0YXR1cyI+PHBhdGggZD0iTTEzMTAsNDYwLjI0IEMxMzEwLDQ3OS4wMiAxMzEwLDUxNi4xNCAxMzEwLDU0My41NyIgZmlsbD0ibm9uZSIgaWQ9IipzdGFydCpMaXZlX1VwZGF0ZXMtdG8tRmV0Y2hfU3RhdHVzIiBzdHlsZT0ic3Ryb2tlOiMxODE4MTg7c3Ryb2tlLXdpZHRoOjE7Ii8+PHBvbHlnb24gZmlsbD0iIzE4MTgxOCIgcG9pbnRzPSIxMzEwLDU0OS41NywxMzE0LDU0MC41NywxMzEwLDU0NC41NywxMzA2LDU0MC41NywxMzEwLDU0OS41NyIgc3R5bGU9InN0cm9rZTojMTgxODE4O3N0cm9rZS13aWR0aDoxOyIvPjwvZz48IS0tbGluayBGZXRjaF9TdGF0dXMgdG8gRGlzcGxheV9VcGRhdGVzLS0+PGcgY2xhc3M9ImxpbmsiIGRhdGEtZW50aXR5LTE9IkZldGNoX1N0YXR1cyIgZGF0YS1lbnRpdHktMj0iRGlzcGxheV9VcGRhdGVzIiBkYXRhLXNvdXJjZS1saW5lPSI0NyIgZGF0YS11aWQ9ImxuazUwIiBpZD0ibGlua19GZXRjaF9TdGF0dXNfRGlzcGxheV9VcGRhdGVzIj48cGF0aCBkPSJNMTMxMCw2MDAuMDEgQzEzMTAsNjIxLjU0IDEzMTAsNjQ2Ljk5IDEzMTAsNjY4LjYzIiBmaWxsPSJub25lIiBpZD0iRmV0Y2hfU3RhdHVzLXRvLURpc3BsYXlfVXBkYXRlcyIgc3R5bGU9InN0cm9rZTojMTgxODE4O3N0cm9rZS13aWR0aDoxOyIvPjxwb2x5Z29uIGZpbGw9IiMxODE4MTgiIHBvaW50cz0iMTMxMCw2NzQuNjMsMTMxNCw2NjUuNjMsMTMxMCw2NjkuNjMsMTMwNiw2NjUuNjMsMTMxMCw2NzQuNjMiIHN0eWxlPSJzdHJva2U6IzE4MTgxODtzdHJva2Utd2lkdGg6MTsiLz48L2c+PCEtLWxpbmsgRGlzcGxheV9VcGRhdGVzIHRvIERhc2hib2FyZC0tPjxnIGNsYXNzPSJsaW5rIiBkYXRhLWVudGl0eS0xPSJEaXNwbGF5X1VwZGF0ZXMiIGRhdGEtZW50aXR5LTI9IkRhc2hib2FyZCIgZGF0YS1zb3VyY2UtbGluZT0iNDgiIGRhdGEtdWlkPSJsbms1MSIgaWQ9ImxpbmtfRGlzcGxheV9VcGRhdGVzX0Rhc2hib2FyZCI+PHBhdGggZD0iTTEyNTguMzQsNzI1LjEzIEMxMjIwLjA0LDc0Mi44OCAxMTY2LjQ2LDc2Ny4zOSAxMTE5LDc4OCBDMTEwNi4zLDc5My41MTUgMTA5Mi43NjUsNzk5LjI0NDQgMTA3OS41NzUyLDgwNC43NDg2IEMxMDc2LjI3NzcsODA2LjEyNDYgMTA3My4wMDE4LDgwNy40ODY2IDEwNjkuNzY1OSw4MDguODI3NyBDMTA2OC4xNDgsODA5LjQ5ODIgMTA2Ni41NDAxLDgxMC4xNjM1IDEwNjQuOTQ0NCw4MTAuODIyNyBDMTA2NC4xNDY2LDgxMS4xNTIzIDEwNjMuMzUxOSw4MTEuNDgwMyAxMDYyLjU2MDUsODExLjgwNjggQzEwNjIuMTY0OCw4MTEuOTcgMTA2Ny4zMTcyLDgwOS44NDYzIDEwNjYuOTIzMiw4MTAuMDA4NyIgZmlsbD0ibm9uZSIgaWQ9IkRpc3BsYXlfVXBkYXRlcy10by1EYXNoYm9hcmQiIHN0eWxlPSJzdHJva2U6IzE4MTgxODtzdHJva2Utd2lkdGg6MTsiLz48cG9seWdvbiBmaWxsPSIjMTgxODE4IiBwb2ludHM9IjEwNjEuMzc2LDgxMi4yOTUyLDEwNzEuMjIxMiw4MTIuNTYzNSwxMDY1Ljk5ODcsODEwLjM4OTgsMTA2OC4xNzI1LDgwNS4xNjcyLDEwNjEuMzc2LDgxMi4yOTUyIiBzdHlsZT0ic3Ryb2tlOiMxODE4MTg7c3Ryb2tlLXdpZHRoOjE7Ii8+PHRleHQgZmlsbD0iIzAwMDAwMCIgZm9udC1mYW1pbHk9InNhbnMtc2VyaWYiIGZvbnQtc2l6ZT0iMTMiIGxlbmd0aEFkanVzdD0ic3BhY2luZyIgdGV4dExlbmd0aD0iMjYiIHg9IjExNTEiIHk9Ijc4Ni4yODkxIj5CYWNrPC90ZXh0PjwvZz48IS0tbGluayAqc3RhcnQqV2FsbGV0X1RvcHVwIHRvIFNlbGVjdF9NZXRob2QtLT48ZyBjbGFzcz0ibGluayIgZGF0YS1lbnRpdHktMT0iKnN0YXJ0KldhbGxldF9Ub3B1cCIgZGF0YS1lbnRpdHktMj0iU2VsZWN0X01ldGhvZCIgZGF0YS1zb3VyY2UtbGluZT0iNTIiIGRhdGEtdWlkPSJsbms1NCIgaWQ9ImxpbmtfKnN0YXJ0KldhbGxldF9Ub3B1cF9TZWxlY3RfTWV0aG9kIj48cGF0aCBkPSJNMTY1NCwxODQuMjggQzE2NTQsMjA0LjA5IDE2NTQsMjQ1LjA5IDE2NTQsMjczLjk2IiBmaWxsPSJub25lIiBpZD0iKnN0YXJ0KldhbGxldF9Ub3B1cC10by1TZWxlY3RfTWV0aG9kIiBzdHlsZT0ic3Ryb2tlOiMxODE4MTg7c3Ryb2tlLXdpZHRoOjE7Ii8+PHBvbHlnb24gZmlsbD0iIzE4MTgxOCIgcG9pbnRzPSIxNjU0LDI3OS45NiwxNjU4LDI3MC45NiwxNjU0LDI3NC45NiwxNjUwLDI3MC45NiwxNjU0LDI3OS45NiIgc3R5bGU9InN0cm9rZTojMTgxODE4O3N0cm9rZS13aWR0aDoxOyIvPjwvZz48IS0tbGluayBTZWxlY3RfTWV0aG9kIHRvIEVudGVyX0Ftb3VudC0tPjxnIGNsYXNzPSJsaW5rIiBkYXRhLWVudGl0eS0xPSJTZWxlY3RfTWV0aG9kIiBkYXRhLWVudGl0eS0yPSJFbnRlcl9BbW91bnQiIGRhdGEtc291cmNlLWxpbmU9IjUzIiBkYXRhLXVpZD0ibG5rNTYiIGlkPSJsaW5rX1NlbGVjdF9NZXRob2RfRW50ZXJfQW1vdW50Ij48cGF0aCBkPSJNMTY1My40OSwzMzAuMjYgQzE2NTIuOTQsMzU2LjU1IDE2NTIuMTg1MywzOTIuMjgxMyAxNjUxLjYzNTMsNDE4LjYyMTMiIGZpbGw9Im5vbmUiIGlkPSJTZWxlY3RfTWV0aG9kLXRvLUVudGVyX0Ftb3VudCIgc3R5bGU9InN0cm9rZTojMTgxODE4O3N0cm9rZS13aWR0aDoxOyIvPjxwb2x5Z29uIGZpbGw9IiMxODE4MTgiIHBvaW50cz0iMTY1MS41MSw0MjQuNjIsMTY1NS42OTcsNDE1LjcwNTUsMTY1MS42MTQ0LDQxOS42MjExLDE2NDcuNjk4OCw0MTUuNTM4NSwxNjUxLjUxLDQyNC42MiIgc3R5bGU9InN0cm9rZTojMTgxODE4O3N0cm9rZS13aWR0aDoxOyIvPjwvZz48IS0tbGluayBFbnRlcl9BbW91bnQgdG8gUGF5bWVudF9Qcm9jZXNzaW5nX1RvcHVwLS0+PGcgY2xhc3M9ImxpbmsiIGRhdGEtZW50aXR5LTE9IkVudGVyX0Ftb3VudCIgZGF0YS1lbnRpdHktMj0iUGF5bWVudF9Qcm9jZXNzaW5nX1RvcHVwIiBkYXRhLXNvdXJjZS1saW5lPSI1NCIgZGF0YS11aWQ9ImxuazU4IiBpZD0ibGlua19FbnRlcl9BbW91bnRfUGF5bWVudF9Qcm9jZXNzaW5nX1RvcHVwIj48cGF0aCBkPSJNMTYyNC43Niw0NzUuMTcgQzE2MTMuNzEsNDg4LjM3IDE2MDUuMDQsNTA1LjAzIDE2MTMsNTIwIEMxNjE5LjQ1LDUzMi4xMyAxNjI1LjA0MDEsNTM4LjYxIDE2MzYuMzcwMSw1NDYuNDciIGZpbGw9Im5vbmUiIGlkPSJFbnRlcl9BbW91bnQtdG8tUGF5bWVudF9Qcm9jZXNzaW5nX1RvcHVwIiBzdHlsZT0ic3Ryb2tlOiMxODE4MTg7c3Ryb2tlLXdpZHRoOjE7Ii8+PHBvbHlnb24gZmlsbD0iIzE4MTgxOCIgcG9pbnRzPSIxNjQxLjMsNTQ5Ljg5LDE2MzYuMTg1Miw1NDEuNDczNCwxNjM3LjE5MTgsNTQ3LjA0LDE2MzEuNjI1Miw1NDguMDQ2NiwxNjQxLjMsNTQ5Ljg5IiBzdHlsZT0ic3Ryb2tlOiMxODE4MTg7c3Ryb2tlLXdpZHRoOjE7Ii8+PC9nPjwhLS1saW5rIFBheW1lbnRfUHJvY2Vzc2luZ19Ub3B1cCB0byBFbnRlcl9BbW91bnQtLT48ZyBjbGFzcz0ibGluayIgZGF0YS1lbnRpdHktMT0iUGF5bWVudF9Qcm9jZXNzaW5nX1RvcHVwIiBkYXRhLWVudGl0eS0yPSJFbnRlcl9BbW91bnQiIGRhdGEtc291cmNlLWxpbmU9IjU2IiBkYXRhLXVpZD0ibG5rNjEiIGlkPSJsaW5rX1BheW1lbnRfUHJvY2Vzc2luZ19Ub3B1cF9FbnRlcl9BbW91bnQiPjxwYXRoIGQ9Ik0xNjc4LjY4LDU0OS45MSBDMTY3My43Niw1NDAuNzkgMTY2OC41OCw1MzAuMTYgMTY2NSw1MjAgQzE2NTkuODcsNTA1LjQ4IDE2NTcuMzY3OCw0OTQuNDUxNCAxNjU1LjE2NzgsNDgwLjk5MTQiIGZpbGw9Im5vbmUiIGlkPSJQYXltZW50X1Byb2Nlc3NpbmdfVG9wdXAtdG8tRW50ZXJfQW1vdW50IiBzdHlsZT0ic3Ryb2tlOiMxODE4MTg7c3Ryb2tlLXdpZHRoOjE7Ii8+PHBvbHlnb24gZmlsbD0iIzE4MTgxOCIgcG9pbnRzPSIxNjU0LjIsNDc1LjA3LDE2NTEuNzA0MSw0ODQuNTk3NCwxNjU1LjAwNjUsNDgwLjAwNDUsMTY1OS41OTk0LDQ4My4zMDY5LDE2NTQuMiw0NzUuMDciIHN0eWxlPSJzdHJva2U6IzE4MTgxODtzdHJva2Utd2lkdGg6MTsiLz48dGV4dCBmaWxsPSIjMDAwMDAwIiBmb250LWZhbWlseT0ic2Fucy1zZXJpZiIgZm9udC1zaXplPSIxMyIgbGVuZ3RoQWRqdXN0PSJzcGFjaW5nIiB0ZXh0TGVuZ3RoPSIxMzYuNSIgeD0iMTY2NiIgeT0iNTE4LjI4OTEiPlRvcC1VcCBGYWlsZWQgJiMxNzE7ZXJyb3ImIzE4Nzs8L3RleHQ+PC9nPjwhLS1saW5rIFBheW1lbnRfUHJvY2Vzc2luZ19Ub3B1cCB0byBXYWxsZXRfVXBkYXRlZC0tPjxnIGNsYXNzPSJsaW5rIiBkYXRhLWVudGl0eS0xPSJQYXltZW50X1Byb2Nlc3NpbmdfVG9wdXAiIGRhdGEtZW50aXR5LTI9IldhbGxldF9VcGRhdGVkIiBkYXRhLXNvdXJjZS1saW5lPSI1NSIgZGF0YS11aWQ9ImxuazYwIiBpZD0ibGlua19QYXltZW50X1Byb2Nlc3NpbmdfVG9wdXBfV2FsbGV0X1VwZGF0ZWQiPjxwYXRoIGQ9Ik0xNjg5LjQ5LDYwMC4wMSBDMTY4Ni4zNCw2MjEuNTQgMTY4Mi41OTcsNjQ3LjA1MyAxNjc5LjQzNyw2NjguNjkzIiBmaWxsPSJub25lIiBpZD0iUGF5bWVudF9Qcm9jZXNzaW5nX1RvcHVwLXRvLVdhbGxldF9VcGRhdGVkIiBzdHlsZT0ic3Ryb2tlOiMxODE4MTg7c3Ryb2tlLXdpZHRoOjE7Ii8+PHBvbHlnb24gZmlsbD0iIzE4MTgxOCIgcG9pbnRzPSIxNjc4LjU3LDY3NC42MywxNjgzLjgyODUsNjY2LjMwMjQsMTY3OS4yOTI1LDY2OS42ODI1LDE2NzUuOTEyNCw2NjUuMTQ2NSwxNjc4LjU3LDY3NC42MyIgc3R5bGU9InN0cm9rZTojMTgxODE4O3N0cm9rZS13aWR0aDoxOyIvPjx0ZXh0IGZpbGw9IiMwMDAwMDAiIGZvbnQtZmFtaWx5PSJzYW5zLXNlcmlmIiBmb250LXNpemU9IjEzIiBsZW5ndGhBZGp1c3Q9InNwYWNpbmciIHRleHRMZW5ndGg9IjkxIiB4PSIxNjg2IiB5PSI2NDMuMjg5MSI+VG9wLVVwIFN1Y2Nlc3M8L3RleHQ+PC9nPjwhLS1saW5rIFdhbGxldF9VcGRhdGVkIHRvIERhc2hib2FyZC0tPjxnIGNsYXNzPSJsaW5rIiBkYXRhLWVudGl0eS0xPSJXYWxsZXRfVXBkYXRlZCIgZGF0YS1lbnRpdHktMj0iRGFzaGJvYXJkIiBkYXRhLXNvdXJjZS1saW5lPSI1NyIgZGF0YS11aWQ9ImxuazYyIiBpZD0ibGlua19XYWxsZXRfVXBkYXRlZF9EYXNoYm9hcmQiPjxwYXRoIGQ9Ik0xNjI2LjMsNzI1LjA0IEMxNTgzLjE1LDc0NS4yNCAxNTE3Ljg4LDc3My4xMyAxNDU4LDc4OCBDMTM1OS44NzUsODEyLjM3NSAxMjQ2Ljg4MjUsODI0LjQ2NzUgMTE1Ny45MjM4LDgzMC40NjUgQzExMzUuNjg0MSw4MzEuOTY0NCAxMTE0Ljk0NjUsODMzLjA4MjggMTA5Ni4zMTg4LDgzMy45MTcgQzEwODcuMDA1LDgzNC4zMzQxIDEwNzguMjE4Nyw4MzQuNjgwMSAxMDcwLjAzNTgsODM0Ljk2NzIgQzEwNjcuOTkwMSw4MzUuMDM4OSAxMDY1Ljk4MjEsODM1LjEwNyAxMDY0LjAxMyw4MzUuMTcxNiBDMTA2My4wMjg1LDgzNS4yMDM5IDEwNjguMDUwNiw4MzUuMDQ1MyAxMDY3LjA4NTcsODM1LjA3NTkiIGZpbGw9Im5vbmUiIGlkPSJXYWxsZXRfVXBkYXRlZC10by1EYXNoYm9hcmQiIHN0eWxlPSJzdHJva2U6IzE4MTgxODtzdHJva2Utd2lkdGg6MTsiLz48cG9seWdvbiBmaWxsPSIjMTgxODE4IiBwb2ludHM9IjEwNjEuMDg4Nyw4MzUuMjY1OCwxMDcwLjIxMDgsODM4Ljk3ODksMTA2Ni4wODYyLDgzNS4xMDc1LDEwNjkuOTU3NSw4MzAuOTgyOSwxMDYxLjA4ODcsODM1LjI2NTgiIHN0eWxlPSJzdHJva2U6IzE4MTgxODtzdHJva2Utd2lkdGg6MTsiLz48L2c+PCEtLWxpbmsgRGFzaGJvYXJkIHRvICplbmQqLS0+PGcgY2xhc3M9ImxpbmsiIGRhdGEtZW50aXR5LTE9IkRhc2hib2FyZCIgZGF0YS1lbnRpdHktMj0iKmVuZCoiIGRhdGEtc291cmNlLWxpbmU9IjYwIiBkYXRhLXVpZD0ibG5rNjQiIGlkPSJsaW5rX0Rhc2hib2FyZF8qZW5kKiI+PHBhdGggZD0iTTEwNjEuMDkwMyw4NzYuNDg4NSBDMTA2MS4xNTY3LDg3Ni41Njc2IDEwNjEuMjIyOSw4NzYuNjQ2OSAxMDYxLjI4OTEsODc2LjcyNjMgQzEwNjEuODE4NSw4NzcuMzYxMSAxMDYyLjM0MzIsODc4LjAwMTYgMTA2Mi44NjMsODc4LjY0NzMgQzEwNjMuOTAyNiw4NzkuOTM4NSAxMDY0LjkyMjcsODgxLjI1IDEwNjUuOTIyNSw4ODIuNTc2MyBDMTA2OS45MjE5LDg4Ny44ODEzIDEwNzMuNTk3NSw4OTMuNDIyNSAxMDc2LjkwMjUsODk4Ljg1IEMxMDgzLjUxMjUsOTA5LjcwNSAxMDg2LjE0MzEsOTE0LjY0OTIgMTA4OS40MTMxLDkyMS43OTQyIiBmaWxsPSJub25lIiBpZD0iRGFzaGJvYXJkLXRvLSplbmQqIiBzdHlsZT0ic3Ryb2tlOiMxODE4MTg7c3Ryb2tlLXdpZHRoOjE7Ii8+PHBvbHlnb24gZmlsbD0iIzE4MTgxOCIgcG9pbnRzPSIxMDkxLjkxLDkyNy4yNSwxMDkxLjgwMTgsOTE3LjQwMTcsMTA4OS44MjkyLDkyMi43MDM1LDEwODQuNTI3NSw5MjAuNzMwOSwxMDkxLjkxLDkyNy4yNSIgc3R5bGU9InN0cm9rZTojMTgxODE4O3N0cm9rZS13aWR0aDoxOyIvPjwvZz48IS0tU1JDPVtWTEpSWmppVzQ3dHRMXzJzS2dOeW02ZUxRSlRqamZOSVJaUEVqV3pMWExYeHVnM09XMzFFNUxOeHhuc0NCczJTbFo0cHZwMzN1SzF6dmE4bnBJZkk2c1EwXzRxOFVNQlBrVDJvNFZiQWJiOF9GNklvS1lLT285VEJpazc1b0puaDAzNjcxQXNieGI0aGdMY1BWMko5aHEtX29NQW45OHpBcUhTNTBsOGFTVXQ2SkRrdjFzdmFtR0xEaXd3RDd4Z0RpV29SNmhoSW0wb05Xam9KYjFVMjdER1MtWkVoSi0gLUl3SG5YUlA2YUpQUDFOUy0xV3lHei1JT2toRUd2bUt1djJDRFBNUEZYY0NZRjloNXhsRW90ejBxcUZfOWk2QXp2aHhaMXhPdUlNSDVXRVlPMlkwRVdMWlZtQ285T3NmaG40a0tTWF9wZW5IdVItNWVGTVNvRDI1bHZvS2d5VFJnTmdiNnUtUHVmU2VWMTBZRE5rZWllVXZ3VGFWOGE5VmdndzRhc3g0ZW5QSVNSMHRIUkNZNTB6bW1Sa2FmQ3NGMEJxOEZBeUtYclp0X1p5OFRxa1BZblBYVWZrR1NWNFo3c0F3LURyRFNVc09MdGV1Z0o4X2ZJZmIxMlBjWGdzbGttemZmYU1mSVRiUXdQMWdtRnd4UW9QVFNBSktRdE1iZnh1bE84WVBFLXFZaWZaYm5OTzR0SjhKcnR0LTJFTktUSVAxaUlqeDNTcm5yem5sVWdLR2hSaXJ6WjdYYjFTVWhmcm50UDBTa2xldkpYclZqQVZYNDZERHI4UHRTaVg4ZG41NmJKNTUzdFNhekpkaTdTSlJJbEFLbjRTd1JpMGFIZ1dmVWMzVmQxQmhubUttbnAxbXhxbnJ3M29LeGpSSlRzNzN6cVJOWWpJZFJqa1RQeU9JT1FubHdtTy1GV0hTdXV4cGtPYXluN3R4ZE9LX0luaWJfNmVBU0JSdFpGalBicktKVTF6cWN1LVV0NHplU3VnRi1RcUFDN1NtcGE2SkRFLWVHXzVtZUtsY0JLdkh5MF0tLT48L2c+PC9zdmc+;" vertex="1" parent="1">
            <mxGeometry x="-3242" y="-1741" width="1978" height="992" as="geometry" />
          </mxCell>
        </UserObject>
      </root>
    </mxGraphModel>
  </diagram>
</mxfile>
